%TF.GenerationSoftware,KiCad,Pcbnew,(5.1.6)-1*%
%TF.CreationDate,2020-11-25T02:53:10+01:00*%
%TF.ProjectId,MainBoard,4d61696e-426f-4617-9264-2e6b69636164,rev?*%
%TF.SameCoordinates,Original*%
%TF.FileFunction,Copper,L1,Top*%
%TF.FilePolarity,Positive*%
%FSLAX46Y46*%
G04 Gerber Fmt 4.6, Leading zero omitted, Abs format (unit mm)*
G04 Created by KiCad (PCBNEW (5.1.6)-1) date 2020-11-25 02:53:10*
%MOMM*%
%LPD*%
G01*
G04 APERTURE LIST*
%TA.AperFunction,SMDPad,CuDef*%
%ADD10R,0.250000X1.100000*%
%TD*%
%TA.AperFunction,ComponentPad*%
%ADD11O,1.700000X1.700000*%
%TD*%
%TA.AperFunction,ComponentPad*%
%ADD12R,1.700000X1.700000*%
%TD*%
%TA.AperFunction,SMDPad,CuDef*%
%ADD13R,1.525000X0.650000*%
%TD*%
%TA.AperFunction,SMDPad,CuDef*%
%ADD14R,1.450000X1.000000*%
%TD*%
%TA.AperFunction,ViaPad*%
%ADD15C,0.800000*%
%TD*%
%TA.AperFunction,Conductor*%
%ADD16C,0.250000*%
%TD*%
%TA.AperFunction,Conductor*%
%ADD17C,0.500000*%
%TD*%
%TA.AperFunction,Conductor*%
%ADD18C,0.254000*%
%TD*%
G04 APERTURE END LIST*
%TO.P,C1,2*%
%TO.N,GND*%
%TA.AperFunction,SMDPad,CuDef*%
G36*
G01*
X135245000Y-94605000D02*
X133995000Y-94605000D01*
G75*
G02*
X133745000Y-94355000I0J250000D01*
G01*
X133745000Y-93605000D01*
G75*
G02*
X133995000Y-93355000I250000J0D01*
G01*
X135245000Y-93355000D01*
G75*
G02*
X135495000Y-93605000I0J-250000D01*
G01*
X135495000Y-94355000D01*
G75*
G02*
X135245000Y-94605000I-250000J0D01*
G01*
G37*
%TD.AperFunction*%
%TO.P,C1,1*%
%TO.N,+5V*%
%TA.AperFunction,SMDPad,CuDef*%
G36*
G01*
X135245000Y-97405000D02*
X133995000Y-97405000D01*
G75*
G02*
X133745000Y-97155000I0J250000D01*
G01*
X133745000Y-96405000D01*
G75*
G02*
X133995000Y-96155000I250000J0D01*
G01*
X135245000Y-96155000D01*
G75*
G02*
X135495000Y-96405000I0J-250000D01*
G01*
X135495000Y-97155000D01*
G75*
G02*
X135245000Y-97405000I-250000J0D01*
G01*
G37*
%TD.AperFunction*%
%TD*%
D10*
%TO.P,U2,10*%
%TO.N,SCL*%
X136950780Y-93060387D03*
%TO.P,U2,9*%
%TO.N,SDA*%
X137450780Y-93060387D03*
%TO.P,U2,8*%
%TO.N,+5V*%
X137950780Y-93060387D03*
%TO.P,U2,7*%
%TO.N,AmpOut8*%
X138450780Y-93060387D03*
%TO.P,U2,6*%
%TO.N,AmpOut7*%
X138950780Y-93060387D03*
%TO.P,U2,5*%
%TO.N,AmpOut6*%
X138950780Y-97360387D03*
%TO.P,U2,4*%
%TO.N,AmpOut5*%
X138450780Y-97360387D03*
%TO.P,U2,3*%
%TO.N,GND*%
X137950780Y-97360387D03*
%TO.P,U2,2*%
%TO.N,Net-(U2-Pad2)*%
X137450780Y-97360387D03*
%TO.P,U2,1*%
%TO.N,+5V*%
X136950780Y-97360387D03*
%TD*%
%TO.P,U1,10*%
%TO.N,SCL*%
X129810000Y-93100000D03*
%TO.P,U1,9*%
%TO.N,SDA*%
X130310000Y-93100000D03*
%TO.P,U1,8*%
%TO.N,+5V*%
X130810000Y-93100000D03*
%TO.P,U1,7*%
%TO.N,AmpOut4*%
X131310000Y-93100000D03*
%TO.P,U1,6*%
%TO.N,AmpOut3*%
X131810000Y-93100000D03*
%TO.P,U1,5*%
%TO.N,AmpOut2*%
X131810000Y-97400000D03*
%TO.P,U1,4*%
%TO.N,AmpOut1*%
X131310000Y-97400000D03*
%TO.P,U1,3*%
%TO.N,GND*%
X130810000Y-97400000D03*
%TO.P,U1,2*%
%TO.N,Net-(U1-Pad2)*%
X130310000Y-97400000D03*
%TO.P,U1,1*%
%TO.N,GND*%
X129810000Y-97400000D03*
%TD*%
%TO.P,R10,2*%
%TO.N,+5V*%
%TA.AperFunction,SMDPad,CuDef*%
G36*
G01*
X135275115Y-101917405D02*
X135275115Y-100667405D01*
G75*
G02*
X135525115Y-100417405I250000J0D01*
G01*
X136275115Y-100417405D01*
G75*
G02*
X136525115Y-100667405I0J-250000D01*
G01*
X136525115Y-101917405D01*
G75*
G02*
X136275115Y-102167405I-250000J0D01*
G01*
X135525115Y-102167405D01*
G75*
G02*
X135275115Y-101917405I0J250000D01*
G01*
G37*
%TD.AperFunction*%
%TO.P,R10,1*%
%TO.N,SDA*%
%TA.AperFunction,SMDPad,CuDef*%
G36*
G01*
X132475115Y-101917405D02*
X132475115Y-100667405D01*
G75*
G02*
X132725115Y-100417405I250000J0D01*
G01*
X133475115Y-100417405D01*
G75*
G02*
X133725115Y-100667405I0J-250000D01*
G01*
X133725115Y-101917405D01*
G75*
G02*
X133475115Y-102167405I-250000J0D01*
G01*
X132725115Y-102167405D01*
G75*
G02*
X132475115Y-101917405I0J250000D01*
G01*
G37*
%TD.AperFunction*%
%TD*%
%TO.P,R9,2*%
%TO.N,+5V*%
%TA.AperFunction,SMDPad,CuDef*%
G36*
G01*
X135265000Y-104765000D02*
X135265000Y-103515000D01*
G75*
G02*
X135515000Y-103265000I250000J0D01*
G01*
X136265000Y-103265000D01*
G75*
G02*
X136515000Y-103515000I0J-250000D01*
G01*
X136515000Y-104765000D01*
G75*
G02*
X136265000Y-105015000I-250000J0D01*
G01*
X135515000Y-105015000D01*
G75*
G02*
X135265000Y-104765000I0J250000D01*
G01*
G37*
%TD.AperFunction*%
%TO.P,R9,1*%
%TO.N,SCL*%
%TA.AperFunction,SMDPad,CuDef*%
G36*
G01*
X132465000Y-104765000D02*
X132465000Y-103515000D01*
G75*
G02*
X132715000Y-103265000I250000J0D01*
G01*
X133465000Y-103265000D01*
G75*
G02*
X133715000Y-103515000I0J-250000D01*
G01*
X133715000Y-104765000D01*
G75*
G02*
X133465000Y-105015000I-250000J0D01*
G01*
X132715000Y-105015000D01*
G75*
G02*
X132465000Y-104765000I0J250000D01*
G01*
G37*
%TD.AperFunction*%
%TD*%
%TO.P,R8,2*%
%TO.N,AmpOut7*%
%TA.AperFunction,SMDPad,CuDef*%
G36*
G01*
X164325000Y-91935000D02*
X163075000Y-91935000D01*
G75*
G02*
X162825000Y-91685000I0J250000D01*
G01*
X162825000Y-90935000D01*
G75*
G02*
X163075000Y-90685000I250000J0D01*
G01*
X164325000Y-90685000D01*
G75*
G02*
X164575000Y-90935000I0J-250000D01*
G01*
X164575000Y-91685000D01*
G75*
G02*
X164325000Y-91935000I-250000J0D01*
G01*
G37*
%TD.AperFunction*%
%TO.P,R8,1*%
%TO.N,PD7*%
%TA.AperFunction,SMDPad,CuDef*%
G36*
G01*
X164325000Y-94735000D02*
X163075000Y-94735000D01*
G75*
G02*
X162825000Y-94485000I0J250000D01*
G01*
X162825000Y-93735000D01*
G75*
G02*
X163075000Y-93485000I250000J0D01*
G01*
X164325000Y-93485000D01*
G75*
G02*
X164575000Y-93735000I0J-250000D01*
G01*
X164575000Y-94485000D01*
G75*
G02*
X164325000Y-94735000I-250000J0D01*
G01*
G37*
%TD.AperFunction*%
%TD*%
%TO.P,R7,2*%
%TO.N,AmpOut8*%
%TA.AperFunction,SMDPad,CuDef*%
G36*
G01*
X163205000Y-101105000D02*
X164455000Y-101105000D01*
G75*
G02*
X164705000Y-101355000I0J-250000D01*
G01*
X164705000Y-102105000D01*
G75*
G02*
X164455000Y-102355000I-250000J0D01*
G01*
X163205000Y-102355000D01*
G75*
G02*
X162955000Y-102105000I0J250000D01*
G01*
X162955000Y-101355000D01*
G75*
G02*
X163205000Y-101105000I250000J0D01*
G01*
G37*
%TD.AperFunction*%
%TO.P,R7,1*%
%TO.N,PD8*%
%TA.AperFunction,SMDPad,CuDef*%
G36*
G01*
X163205000Y-98305000D02*
X164455000Y-98305000D01*
G75*
G02*
X164705000Y-98555000I0J-250000D01*
G01*
X164705000Y-99305000D01*
G75*
G02*
X164455000Y-99555000I-250000J0D01*
G01*
X163205000Y-99555000D01*
G75*
G02*
X162955000Y-99305000I0J250000D01*
G01*
X162955000Y-98555000D01*
G75*
G02*
X163205000Y-98305000I250000J0D01*
G01*
G37*
%TD.AperFunction*%
%TD*%
%TO.P,R6,2*%
%TO.N,PD6*%
%TA.AperFunction,SMDPad,CuDef*%
G36*
G01*
X146675000Y-99685000D02*
X145425000Y-99685000D01*
G75*
G02*
X145175000Y-99435000I0J250000D01*
G01*
X145175000Y-98685000D01*
G75*
G02*
X145425000Y-98435000I250000J0D01*
G01*
X146675000Y-98435000D01*
G75*
G02*
X146925000Y-98685000I0J-250000D01*
G01*
X146925000Y-99435000D01*
G75*
G02*
X146675000Y-99685000I-250000J0D01*
G01*
G37*
%TD.AperFunction*%
%TO.P,R6,1*%
%TO.N,AmpOut6*%
%TA.AperFunction,SMDPad,CuDef*%
G36*
G01*
X146675000Y-102485000D02*
X145425000Y-102485000D01*
G75*
G02*
X145175000Y-102235000I0J250000D01*
G01*
X145175000Y-101485000D01*
G75*
G02*
X145425000Y-101235000I250000J0D01*
G01*
X146675000Y-101235000D01*
G75*
G02*
X146925000Y-101485000I0J-250000D01*
G01*
X146925000Y-102235000D01*
G75*
G02*
X146675000Y-102485000I-250000J0D01*
G01*
G37*
%TD.AperFunction*%
%TD*%
%TO.P,R5,2*%
%TO.N,PD5*%
%TA.AperFunction,SMDPad,CuDef*%
G36*
G01*
X145425000Y-93485000D02*
X146675000Y-93485000D01*
G75*
G02*
X146925000Y-93735000I0J-250000D01*
G01*
X146925000Y-94485000D01*
G75*
G02*
X146675000Y-94735000I-250000J0D01*
G01*
X145425000Y-94735000D01*
G75*
G02*
X145175000Y-94485000I0J250000D01*
G01*
X145175000Y-93735000D01*
G75*
G02*
X145425000Y-93485000I250000J0D01*
G01*
G37*
%TD.AperFunction*%
%TO.P,R5,1*%
%TO.N,AmpOut5*%
%TA.AperFunction,SMDPad,CuDef*%
G36*
G01*
X145425000Y-90685000D02*
X146675000Y-90685000D01*
G75*
G02*
X146925000Y-90935000I0J-250000D01*
G01*
X146925000Y-91685000D01*
G75*
G02*
X146675000Y-91935000I-250000J0D01*
G01*
X145425000Y-91935000D01*
G75*
G02*
X145175000Y-91685000I0J250000D01*
G01*
X145175000Y-90935000D01*
G75*
G02*
X145425000Y-90685000I250000J0D01*
G01*
G37*
%TD.AperFunction*%
%TD*%
%TO.P,R4,2*%
%TO.N,AmpOut4*%
%TA.AperFunction,SMDPad,CuDef*%
G36*
G01*
X121295000Y-101105000D02*
X122545000Y-101105000D01*
G75*
G02*
X122795000Y-101355000I0J-250000D01*
G01*
X122795000Y-102105000D01*
G75*
G02*
X122545000Y-102355000I-250000J0D01*
G01*
X121295000Y-102355000D01*
G75*
G02*
X121045000Y-102105000I0J250000D01*
G01*
X121045000Y-101355000D01*
G75*
G02*
X121295000Y-101105000I250000J0D01*
G01*
G37*
%TD.AperFunction*%
%TO.P,R4,1*%
%TO.N,PD4*%
%TA.AperFunction,SMDPad,CuDef*%
G36*
G01*
X121295000Y-98305000D02*
X122545000Y-98305000D01*
G75*
G02*
X122795000Y-98555000I0J-250000D01*
G01*
X122795000Y-99305000D01*
G75*
G02*
X122545000Y-99555000I-250000J0D01*
G01*
X121295000Y-99555000D01*
G75*
G02*
X121045000Y-99305000I0J250000D01*
G01*
X121045000Y-98555000D01*
G75*
G02*
X121295000Y-98305000I250000J0D01*
G01*
G37*
%TD.AperFunction*%
%TD*%
%TO.P,R3,2*%
%TO.N,AmpOut3*%
%TA.AperFunction,SMDPad,CuDef*%
G36*
G01*
X122545000Y-91935000D02*
X121295000Y-91935000D01*
G75*
G02*
X121045000Y-91685000I0J250000D01*
G01*
X121045000Y-90935000D01*
G75*
G02*
X121295000Y-90685000I250000J0D01*
G01*
X122545000Y-90685000D01*
G75*
G02*
X122795000Y-90935000I0J-250000D01*
G01*
X122795000Y-91685000D01*
G75*
G02*
X122545000Y-91935000I-250000J0D01*
G01*
G37*
%TD.AperFunction*%
%TO.P,R3,1*%
%TO.N,PD3*%
%TA.AperFunction,SMDPad,CuDef*%
G36*
G01*
X122545000Y-94735000D02*
X121295000Y-94735000D01*
G75*
G02*
X121045000Y-94485000I0J250000D01*
G01*
X121045000Y-93735000D01*
G75*
G02*
X121295000Y-93485000I250000J0D01*
G01*
X122545000Y-93485000D01*
G75*
G02*
X122795000Y-93735000I0J-250000D01*
G01*
X122795000Y-94485000D01*
G75*
G02*
X122545000Y-94735000I-250000J0D01*
G01*
G37*
%TD.AperFunction*%
%TD*%
%TO.P,R2,2*%
%TO.N,PD2*%
%TA.AperFunction,SMDPad,CuDef*%
G36*
G01*
X106035000Y-99555000D02*
X104785000Y-99555000D01*
G75*
G02*
X104535000Y-99305000I0J250000D01*
G01*
X104535000Y-98555000D01*
G75*
G02*
X104785000Y-98305000I250000J0D01*
G01*
X106035000Y-98305000D01*
G75*
G02*
X106285000Y-98555000I0J-250000D01*
G01*
X106285000Y-99305000D01*
G75*
G02*
X106035000Y-99555000I-250000J0D01*
G01*
G37*
%TD.AperFunction*%
%TO.P,R2,1*%
%TO.N,AmpOut2*%
%TA.AperFunction,SMDPad,CuDef*%
G36*
G01*
X106035000Y-102355000D02*
X104785000Y-102355000D01*
G75*
G02*
X104535000Y-102105000I0J250000D01*
G01*
X104535000Y-101355000D01*
G75*
G02*
X104785000Y-101105000I250000J0D01*
G01*
X106035000Y-101105000D01*
G75*
G02*
X106285000Y-101355000I0J-250000D01*
G01*
X106285000Y-102105000D01*
G75*
G02*
X106035000Y-102355000I-250000J0D01*
G01*
G37*
%TD.AperFunction*%
%TD*%
%TO.P,R1,2*%
%TO.N,PD1*%
%TA.AperFunction,SMDPad,CuDef*%
G36*
G01*
X104785000Y-93615000D02*
X106035000Y-93615000D01*
G75*
G02*
X106285000Y-93865000I0J-250000D01*
G01*
X106285000Y-94615000D01*
G75*
G02*
X106035000Y-94865000I-250000J0D01*
G01*
X104785000Y-94865000D01*
G75*
G02*
X104535000Y-94615000I0J250000D01*
G01*
X104535000Y-93865000D01*
G75*
G02*
X104785000Y-93615000I250000J0D01*
G01*
G37*
%TD.AperFunction*%
%TO.P,R1,1*%
%TO.N,AmpOut1*%
%TA.AperFunction,SMDPad,CuDef*%
G36*
G01*
X104785000Y-90815000D02*
X106035000Y-90815000D01*
G75*
G02*
X106285000Y-91065000I0J-250000D01*
G01*
X106285000Y-91815000D01*
G75*
G02*
X106035000Y-92065000I-250000J0D01*
G01*
X104785000Y-92065000D01*
G75*
G02*
X104535000Y-91815000I0J250000D01*
G01*
X104535000Y-91065000D01*
G75*
G02*
X104785000Y-90815000I250000J0D01*
G01*
G37*
%TD.AperFunction*%
%TD*%
D11*
%TO.P,J1,4*%
%TO.N,GND*%
X138430000Y-107950000D03*
%TO.P,J1,3*%
%TO.N,+5V*%
X135890000Y-107950000D03*
%TO.P,J1,2*%
%TO.N,SDA*%
X133350000Y-107950000D03*
D12*
%TO.P,J1,1*%
%TO.N,SCL*%
X130810000Y-107950000D03*
%TD*%
D13*
%TO.P,IC2,14*%
%TO.N,AmpOut7*%
X157652000Y-92710000D03*
%TO.P,IC2,13*%
%TO.N,PD7*%
X157652000Y-93980000D03*
%TO.P,IC2,12*%
%TO.N,GND*%
X157652000Y-95250000D03*
%TO.P,IC2,11*%
X157652000Y-96520000D03*
%TO.P,IC2,10*%
X157652000Y-97790000D03*
%TO.P,IC2,9*%
%TO.N,PD8*%
X157652000Y-99060000D03*
%TO.P,IC2,8*%
%TO.N,AmpOut8*%
X157652000Y-100330000D03*
%TO.P,IC2,7*%
%TO.N,AmpOut6*%
X152228000Y-100330000D03*
%TO.P,IC2,6*%
%TO.N,PD6*%
X152228000Y-99060000D03*
%TO.P,IC2,5*%
%TO.N,GND*%
X152228000Y-97790000D03*
%TO.P,IC2,4*%
%TO.N,+5V*%
X152228000Y-96520000D03*
%TO.P,IC2,3*%
%TO.N,GND*%
X152228000Y-95250000D03*
%TO.P,IC2,2*%
%TO.N,PD5*%
X152228000Y-93980000D03*
%TO.P,IC2,1*%
%TO.N,AmpOut5*%
X152228000Y-92710000D03*
%TD*%
%TO.P,IC1,14*%
%TO.N,AmpOut3*%
X116840000Y-92710000D03*
%TO.P,IC1,13*%
%TO.N,PD3*%
X116840000Y-93980000D03*
%TO.P,IC1,12*%
%TO.N,GND*%
X116840000Y-95250000D03*
%TO.P,IC1,11*%
X116840000Y-96520000D03*
%TO.P,IC1,10*%
X116840000Y-97790000D03*
%TO.P,IC1,9*%
%TO.N,PD4*%
X116840000Y-99060000D03*
%TO.P,IC1,8*%
%TO.N,AmpOut4*%
X116840000Y-100330000D03*
%TO.P,IC1,7*%
%TO.N,AmpOut2*%
X111416000Y-100330000D03*
%TO.P,IC1,6*%
%TO.N,PD2*%
X111416000Y-99060000D03*
%TO.P,IC1,5*%
%TO.N,GND*%
X111416000Y-97790000D03*
%TO.P,IC1,4*%
%TO.N,+5V*%
X111416000Y-96520000D03*
%TO.P,IC1,3*%
%TO.N,GND*%
X111416000Y-95250000D03*
%TO.P,IC1,2*%
%TO.N,PD1*%
X111416000Y-93980000D03*
%TO.P,IC1,1*%
%TO.N,AmpOut1*%
X111416000Y-92710000D03*
%TD*%
D14*
%TO.P,D8,2*%
%TO.N,PD8*%
X165900000Y-87160000D03*
%TO.P,D8,1*%
%TO.N,GND*%
X165900000Y-85560000D03*
%TD*%
%TO.P,D7,2*%
%TO.N,PD7*%
X156868641Y-87207097D03*
%TO.P,D7,1*%
%TO.N,GND*%
X156868641Y-85607097D03*
%TD*%
%TO.P,D6,2*%
%TO.N,PD6*%
X147920099Y-87144300D03*
%TO.P,D6,1*%
%TO.N,GND*%
X147920099Y-85544300D03*
%TD*%
%TO.P,D5,2*%
%TO.N,PD5*%
X138915040Y-87192057D03*
%TO.P,D5,1*%
%TO.N,GND*%
X138915040Y-85592057D03*
%TD*%
%TO.P,D4,2*%
%TO.N,PD4*%
X129966498Y-87192057D03*
%TO.P,D4,1*%
%TO.N,GND*%
X129966498Y-85592057D03*
%TD*%
%TO.P,D3,2*%
%TO.N,PD3*%
X120887451Y-87212336D03*
%TO.P,D3,1*%
%TO.N,GND*%
X120887451Y-85612336D03*
%TD*%
%TO.P,D2,2*%
%TO.N,PD2*%
X111912743Y-87148880D03*
%TO.P,D2,1*%
%TO.N,GND*%
X111912743Y-85548880D03*
%TD*%
%TO.P,D1,2*%
%TO.N,PD1*%
X102870000Y-87160000D03*
%TO.P,D1,1*%
%TO.N,GND*%
X102870000Y-85560000D03*
%TD*%
D15*
%TO.N,GND*%
X141293499Y-96843499D03*
X133985000Y-99060000D03*
%TO.N,AmpOut3*%
X131445000Y-91440000D03*
X123825000Y-90805000D03*
%TO.N,AmpOut2*%
X112395000Y-101600000D03*
X132715000Y-95885000D03*
%TO.N,+5V*%
X109220000Y-96520000D03*
X142875000Y-96520000D03*
X142875000Y-96520000D03*
%TO.N,AmpOut1*%
X113030000Y-92710000D03*
X131445000Y-95885000D03*
%TO.N,AmpOut7*%
X140335000Y-92075000D03*
X158115000Y-90805000D03*
%TO.N,AmpOut8*%
X138450780Y-94594220D03*
X156210000Y-101600000D03*
%TO.N,AmpOut5*%
X143510000Y-90170000D03*
X142240000Y-92075000D03*
%TO.N,SDA*%
X135975583Y-95335583D03*
X131462499Y-100312501D03*
%TO.N,SCL*%
X137160000Y-91440000D03*
X128909989Y-99690011D03*
%TD*%
D16*
%TO.N,PD1*%
X102870000Y-91700000D02*
X105410000Y-94240000D01*
X102870000Y-87160000D02*
X102870000Y-91700000D01*
X111156000Y-94240000D02*
X111416000Y-93980000D01*
X105410000Y-94240000D02*
X111156000Y-94240000D01*
D17*
%TO.N,GND*%
X142886998Y-95250000D02*
X152228000Y-95250000D01*
X141293499Y-96843499D02*
X142886998Y-95250000D01*
X137129999Y-109250001D02*
X129599999Y-109250001D01*
X138430000Y-107950000D02*
X137129999Y-109250001D01*
X127475010Y-103943245D02*
X126336775Y-102805010D01*
X129599999Y-109250001D02*
X127475010Y-107125012D01*
X126336775Y-102805010D02*
X118045010Y-102805010D01*
X127475010Y-107125012D02*
X127475010Y-103943245D01*
X118045010Y-102805010D02*
X117475000Y-102235000D01*
X117475000Y-102235000D02*
X116840000Y-102235000D01*
X138430000Y-107950000D02*
X138430000Y-99695000D01*
D16*
X138430000Y-99695000D02*
X137900781Y-99165781D01*
X137900781Y-97410386D02*
X137950780Y-97360387D01*
X137900781Y-99165781D02*
X137900781Y-97410386D01*
X129810000Y-96600000D02*
X129885001Y-96524999D01*
X130810000Y-96600000D02*
X130810000Y-97400000D01*
X130734999Y-96524999D02*
X130810000Y-96600000D01*
X129810000Y-97400000D02*
X129810000Y-96600000D01*
X130179999Y-96524999D02*
X130734999Y-96524999D01*
X129885001Y-96524999D02*
X130179999Y-96524999D01*
D17*
X142240000Y-97790000D02*
X141293499Y-96843499D01*
X152228000Y-97790000D02*
X142240000Y-97790000D01*
D16*
X130810000Y-98200000D02*
X131670000Y-99060000D01*
X130810000Y-97400000D02*
X130810000Y-98200000D01*
X131670000Y-99060000D02*
X133985000Y-99060000D01*
X133985000Y-99060000D02*
X133985000Y-99060000D01*
%TO.N,PD2*%
X105540000Y-99060000D02*
X105410000Y-98930000D01*
X111416000Y-99060000D02*
X105540000Y-99060000D01*
X111912743Y-87148880D02*
X111913880Y-87148880D01*
X111913880Y-87148880D02*
X114300000Y-89535000D01*
X112428500Y-99060000D02*
X111416000Y-99060000D01*
X114300000Y-97188500D02*
X112428500Y-99060000D01*
X114300000Y-89535000D02*
X114300000Y-97188500D01*
%TO.N,PD3*%
X116970000Y-94110000D02*
X116840000Y-93980000D01*
X121920000Y-94110000D02*
X116970000Y-94110000D01*
X120887451Y-87212336D02*
X121502336Y-87212336D01*
X124550001Y-91479999D02*
X121920000Y-94110000D01*
X124550001Y-89899886D02*
X124550001Y-91479999D01*
X121862451Y-87212336D02*
X124550001Y-89899886D01*
X120887451Y-87212336D02*
X121862451Y-87212336D01*
%TO.N,PD4*%
X129966498Y-90883502D02*
X121920000Y-98930000D01*
X129966498Y-87192057D02*
X129966498Y-90883502D01*
X116970000Y-98930000D02*
X116840000Y-99060000D01*
X121920000Y-98930000D02*
X116970000Y-98930000D01*
%TO.N,PD5*%
X139132057Y-87192057D02*
X146050000Y-94110000D01*
X138915040Y-87192057D02*
X139132057Y-87192057D01*
X152098000Y-94110000D02*
X152228000Y-93980000D01*
X146050000Y-94110000D02*
X152098000Y-94110000D01*
%TO.N,PD6*%
X153240500Y-99060000D02*
X152228000Y-99060000D01*
X147920099Y-87144300D02*
X148895099Y-87144300D01*
X152228000Y-99060000D02*
X146050000Y-99060000D01*
X153315501Y-98984999D02*
X153240500Y-99060000D01*
X153315501Y-91564702D02*
X153315501Y-98984999D01*
X148895099Y-87144300D02*
X153315501Y-91564702D01*
%TO.N,PD7*%
X156639500Y-93980000D02*
X157652000Y-93980000D01*
X156564499Y-93904999D02*
X156639500Y-93980000D01*
X156564499Y-87511239D02*
X156564499Y-93904999D01*
X156868641Y-87207097D02*
X156564499Y-87511239D01*
X163570000Y-93980000D02*
X163700000Y-94110000D01*
X157652000Y-93980000D02*
X163570000Y-93980000D01*
%TO.N,PD8*%
X165900000Y-96860000D02*
X163830000Y-98930000D01*
X165900000Y-87160000D02*
X165900000Y-96860000D01*
X157782000Y-98930000D02*
X157652000Y-99060000D01*
X163830000Y-98930000D02*
X157782000Y-98930000D01*
%TO.N,AmpOut3*%
X118240000Y-91310000D02*
X116840000Y-92710000D01*
X121920000Y-91310000D02*
X118240000Y-91310000D01*
X121920000Y-91310000D02*
X123320000Y-91310000D01*
X123320000Y-91310000D02*
X123825000Y-90805000D01*
X131810000Y-93100000D02*
X131810000Y-91805000D01*
X131810000Y-91805000D02*
X131445000Y-91440000D01*
X131445000Y-91440000D02*
X131445000Y-91440000D01*
X123825000Y-90805000D02*
X123825000Y-90805000D01*
%TO.N,AmpOut4*%
X120520000Y-100330000D02*
X121920000Y-101730000D01*
X116840000Y-100330000D02*
X120520000Y-100330000D01*
X131310000Y-92339998D02*
X131310000Y-93100000D01*
X131195001Y-92224999D02*
X131310000Y-92339998D01*
X129424999Y-92224999D02*
X131195001Y-92224999D01*
X123120010Y-98529988D02*
X129424999Y-92224999D01*
X123120010Y-100529990D02*
X123120010Y-98529988D01*
X121920000Y-101730000D02*
X123120010Y-100529990D01*
%TO.N,AmpOut2*%
X106810000Y-100330000D02*
X105410000Y-101730000D01*
X111416000Y-100330000D02*
X106810000Y-100330000D01*
X111416000Y-100330000D02*
X111760000Y-100330000D01*
X111416000Y-100330000D02*
X111416000Y-100621000D01*
X111416000Y-100621000D02*
X112395000Y-101600000D01*
X112395000Y-101600000D02*
X112395000Y-101600000D01*
X131810000Y-97400000D02*
X131810000Y-96790000D01*
X131810000Y-96790000D02*
X132715000Y-95885000D01*
X132715000Y-95885000D02*
X132715000Y-95885000D01*
D17*
%TO.N,+5V*%
X135890000Y-107950000D02*
X135890000Y-104140000D01*
X135890000Y-101302520D02*
X135900115Y-101292405D01*
X135890000Y-104140000D02*
X135890000Y-101302520D01*
X135900115Y-98336051D02*
X136875779Y-97360387D01*
X135900115Y-101292405D02*
X135900115Y-98336051D01*
X135900115Y-98060115D02*
X134620000Y-96780000D01*
X135900115Y-98336051D02*
X135900115Y-98060115D01*
D16*
X137950780Y-93996797D02*
X137950780Y-93060387D01*
X136950780Y-94996797D02*
X137950780Y-93996797D01*
X136950780Y-97360387D02*
X136950780Y-94996797D01*
D17*
X134620000Y-96155000D02*
X132565001Y-94100001D01*
X134620000Y-96780000D02*
X134620000Y-96155000D01*
D16*
X131049999Y-94100001D02*
X130810000Y-93860002D01*
X132565001Y-94100001D02*
X131049999Y-94100001D01*
X130810000Y-93860002D02*
X130810000Y-93345000D01*
D17*
X111416000Y-96520000D02*
X109220000Y-96520000D01*
X109220000Y-96520000D02*
X109220000Y-96520000D01*
X152228000Y-96520000D02*
X142875000Y-96520000D01*
X142875000Y-96520000D02*
X142875000Y-96520000D01*
X142875000Y-96520000D02*
X142875000Y-96520000D01*
D16*
%TO.N,AmpOut1*%
X110146000Y-91440000D02*
X111416000Y-92710000D01*
X105410000Y-91440000D02*
X110146000Y-91440000D01*
X111416000Y-92710000D02*
X113030000Y-92710000D01*
X113030000Y-92710000D02*
X113030000Y-92710000D01*
X131310000Y-96020000D02*
X131310000Y-97400000D01*
X131445000Y-95885000D02*
X131310000Y-96020000D01*
%TO.N,AmpOut7*%
X162300000Y-92710000D02*
X163700000Y-91310000D01*
X157652000Y-92710000D02*
X162300000Y-92710000D01*
X138950780Y-93060387D02*
X139349613Y-93060387D01*
X139349613Y-93060387D02*
X140335000Y-92075000D01*
X140335000Y-92075000D02*
X140335000Y-92075000D01*
X157652000Y-92710000D02*
X157652000Y-91268000D01*
X157652000Y-91268000D02*
X158115000Y-90805000D01*
X158115000Y-90805000D02*
X158115000Y-90805000D01*
%TO.N,AmpOut8*%
X159052000Y-101730000D02*
X157652000Y-100330000D01*
X163830000Y-101730000D02*
X159052000Y-101730000D01*
X138450780Y-93060387D02*
X138450780Y-94594220D01*
X138450780Y-94594220D02*
X138450780Y-94594220D01*
X157652000Y-100330000D02*
X157480000Y-100330000D01*
X157480000Y-100330000D02*
X156210000Y-101600000D01*
X156210000Y-101600000D02*
X156210000Y-101600000D01*
%TO.N,AmpOut6*%
X147580000Y-100330000D02*
X146050000Y-101860000D01*
X152228000Y-100330000D02*
X147580000Y-100330000D01*
X143450393Y-101860000D02*
X138950780Y-97360387D01*
X146050000Y-101860000D02*
X143450393Y-101860000D01*
%TO.N,AmpOut5*%
X150828000Y-91310000D02*
X152228000Y-92710000D01*
X146050000Y-91310000D02*
X150828000Y-91310000D01*
X146050000Y-91310000D02*
X145285000Y-91310000D01*
X145285000Y-91310000D02*
X144145000Y-90170000D01*
X144145000Y-90170000D02*
X143510000Y-90170000D01*
X143510000Y-90170000D02*
X143510000Y-90170000D01*
X138450780Y-96560387D02*
X142240000Y-92771167D01*
X138450780Y-97360387D02*
X138450780Y-96560387D01*
X142240000Y-92771167D02*
X142240000Y-92075000D01*
X142240000Y-92075000D02*
X142240000Y-92075000D01*
%TO.N,SDA*%
X132442403Y-101292405D02*
X133100115Y-101292405D01*
X134040010Y-107259990D02*
X133350000Y-107950000D01*
X134040010Y-102232300D02*
X134040010Y-107259990D01*
X133100115Y-101292405D02*
X134040010Y-102232300D01*
X137450780Y-93060387D02*
X137450780Y-93860387D01*
X137450780Y-93860387D02*
X135975583Y-95335583D01*
X131462499Y-100312501D02*
X132442403Y-101292405D01*
X130310000Y-93900000D02*
X130310000Y-93100000D01*
X129359999Y-94850001D02*
X130310000Y-93900000D01*
X129359999Y-98210001D02*
X129359999Y-94850001D01*
X131462499Y-100312501D02*
X129359999Y-98210001D01*
%TO.N,SCL*%
X128909989Y-99959989D02*
X133090000Y-104140000D01*
X128909989Y-94000011D02*
X128909989Y-99690011D01*
X129810000Y-93100000D02*
X128909989Y-94000011D01*
X133090000Y-105670000D02*
X130810000Y-107950000D01*
X133090000Y-104140000D02*
X133090000Y-105670000D01*
X136950780Y-93060387D02*
X136950780Y-92919220D01*
X128909989Y-99690011D02*
X128909989Y-99959989D01*
X136950780Y-91649220D02*
X137160000Y-91440000D01*
X136950780Y-93060387D02*
X136950780Y-91649220D01*
%TD*%
D18*
%TO.N,GND*%
G36*
X167513000Y-86233000D02*
G01*
X167236094Y-86233000D01*
X167250812Y-86184482D01*
X167263072Y-86060000D01*
X167260000Y-85845750D01*
X167101250Y-85687000D01*
X166027000Y-85687000D01*
X166027000Y-85707000D01*
X165773000Y-85707000D01*
X165773000Y-85687000D01*
X164698750Y-85687000D01*
X164540000Y-85845750D01*
X164536928Y-86060000D01*
X164549188Y-86184482D01*
X164563906Y-86233000D01*
X158219022Y-86233000D01*
X158219453Y-86231579D01*
X158231713Y-86107097D01*
X158228641Y-85892847D01*
X158069891Y-85734097D01*
X156995641Y-85734097D01*
X156995641Y-85754097D01*
X156741641Y-85754097D01*
X156741641Y-85734097D01*
X155667391Y-85734097D01*
X155508641Y-85892847D01*
X155505569Y-86107097D01*
X155517829Y-86231579D01*
X155518260Y-86233000D01*
X149251431Y-86233000D01*
X149270911Y-86168782D01*
X149283171Y-86044300D01*
X149280099Y-85830050D01*
X149121349Y-85671300D01*
X148047099Y-85671300D01*
X148047099Y-85691300D01*
X147793099Y-85691300D01*
X147793099Y-85671300D01*
X146718849Y-85671300D01*
X146560099Y-85830050D01*
X146557027Y-86044300D01*
X146569287Y-86168782D01*
X146588767Y-86233000D01*
X140260859Y-86233000D01*
X140265852Y-86216539D01*
X140278112Y-86092057D01*
X140275040Y-85877807D01*
X140116290Y-85719057D01*
X139042040Y-85719057D01*
X139042040Y-85739057D01*
X138788040Y-85739057D01*
X138788040Y-85719057D01*
X137713790Y-85719057D01*
X137555040Y-85877807D01*
X137551968Y-86092057D01*
X137564228Y-86216539D01*
X137569221Y-86233000D01*
X131312317Y-86233000D01*
X131317310Y-86216539D01*
X131329570Y-86092057D01*
X131326498Y-85877807D01*
X131167748Y-85719057D01*
X130093498Y-85719057D01*
X130093498Y-85739057D01*
X129839498Y-85739057D01*
X129839498Y-85719057D01*
X128765248Y-85719057D01*
X128606498Y-85877807D01*
X128603426Y-86092057D01*
X128615686Y-86216539D01*
X128620679Y-86233000D01*
X122238639Y-86233000D01*
X122250523Y-86112336D01*
X122247451Y-85898086D01*
X122088701Y-85739336D01*
X121014451Y-85739336D01*
X121014451Y-85759336D01*
X120760451Y-85759336D01*
X120760451Y-85739336D01*
X119686201Y-85739336D01*
X119527451Y-85898086D01*
X119524379Y-86112336D01*
X119536263Y-86233000D01*
X113245464Y-86233000D01*
X113263555Y-86173362D01*
X113275815Y-86048880D01*
X113272743Y-85834630D01*
X113113993Y-85675880D01*
X112039743Y-85675880D01*
X112039743Y-85695880D01*
X111785743Y-85695880D01*
X111785743Y-85675880D01*
X110711493Y-85675880D01*
X110552743Y-85834630D01*
X110549671Y-86048880D01*
X110561931Y-86173362D01*
X110580022Y-86233000D01*
X104206094Y-86233000D01*
X104220812Y-86184482D01*
X104233072Y-86060000D01*
X104230000Y-85845750D01*
X104071250Y-85687000D01*
X102997000Y-85687000D01*
X102997000Y-85707000D01*
X102743000Y-85707000D01*
X102743000Y-85687000D01*
X101668750Y-85687000D01*
X101510000Y-85845750D01*
X101506928Y-86060000D01*
X101519188Y-86184482D01*
X101533906Y-86233000D01*
X101092000Y-86233000D01*
X101092000Y-85060000D01*
X101506928Y-85060000D01*
X101510000Y-85274250D01*
X101668750Y-85433000D01*
X102743000Y-85433000D01*
X102743000Y-84583750D01*
X102997000Y-84583750D01*
X102997000Y-85433000D01*
X104071250Y-85433000D01*
X104230000Y-85274250D01*
X104233072Y-85060000D01*
X104231977Y-85048880D01*
X110549671Y-85048880D01*
X110552743Y-85263130D01*
X110711493Y-85421880D01*
X111785743Y-85421880D01*
X111785743Y-84572630D01*
X112039743Y-84572630D01*
X112039743Y-85421880D01*
X113113993Y-85421880D01*
X113272743Y-85263130D01*
X113274905Y-85112336D01*
X119524379Y-85112336D01*
X119527451Y-85326586D01*
X119686201Y-85485336D01*
X120760451Y-85485336D01*
X120760451Y-84636086D01*
X121014451Y-84636086D01*
X121014451Y-85485336D01*
X122088701Y-85485336D01*
X122247451Y-85326586D01*
X122250523Y-85112336D01*
X122248526Y-85092057D01*
X128603426Y-85092057D01*
X128606498Y-85306307D01*
X128765248Y-85465057D01*
X129839498Y-85465057D01*
X129839498Y-84615807D01*
X130093498Y-84615807D01*
X130093498Y-85465057D01*
X131167748Y-85465057D01*
X131326498Y-85306307D01*
X131329570Y-85092057D01*
X137551968Y-85092057D01*
X137555040Y-85306307D01*
X137713790Y-85465057D01*
X138788040Y-85465057D01*
X138788040Y-84615807D01*
X139042040Y-84615807D01*
X139042040Y-85465057D01*
X140116290Y-85465057D01*
X140275040Y-85306307D01*
X140278112Y-85092057D01*
X140273409Y-85044300D01*
X146557027Y-85044300D01*
X146560099Y-85258550D01*
X146718849Y-85417300D01*
X147793099Y-85417300D01*
X147793099Y-84568050D01*
X148047099Y-84568050D01*
X148047099Y-85417300D01*
X149121349Y-85417300D01*
X149280099Y-85258550D01*
X149282270Y-85107097D01*
X155505569Y-85107097D01*
X155508641Y-85321347D01*
X155667391Y-85480097D01*
X156741641Y-85480097D01*
X156741641Y-84630847D01*
X156995641Y-84630847D01*
X156995641Y-85480097D01*
X158069891Y-85480097D01*
X158228641Y-85321347D01*
X158231713Y-85107097D01*
X158227075Y-85060000D01*
X164536928Y-85060000D01*
X164540000Y-85274250D01*
X164698750Y-85433000D01*
X165773000Y-85433000D01*
X165773000Y-84583750D01*
X166027000Y-84583750D01*
X166027000Y-85433000D01*
X167101250Y-85433000D01*
X167260000Y-85274250D01*
X167263072Y-85060000D01*
X167250812Y-84935518D01*
X167214502Y-84815820D01*
X167155537Y-84705506D01*
X167076185Y-84608815D01*
X166979494Y-84529463D01*
X166869180Y-84470498D01*
X166749482Y-84434188D01*
X166625000Y-84421928D01*
X166185750Y-84425000D01*
X166027000Y-84583750D01*
X165773000Y-84583750D01*
X165614250Y-84425000D01*
X165175000Y-84421928D01*
X165050518Y-84434188D01*
X164930820Y-84470498D01*
X164820506Y-84529463D01*
X164723815Y-84608815D01*
X164644463Y-84705506D01*
X164585498Y-84815820D01*
X164549188Y-84935518D01*
X164536928Y-85060000D01*
X158227075Y-85060000D01*
X158219453Y-84982615D01*
X158183143Y-84862917D01*
X158124178Y-84752603D01*
X158044826Y-84655912D01*
X157948135Y-84576560D01*
X157837821Y-84517595D01*
X157718123Y-84481285D01*
X157593641Y-84469025D01*
X157154391Y-84472097D01*
X156995641Y-84630847D01*
X156741641Y-84630847D01*
X156582891Y-84472097D01*
X156143641Y-84469025D01*
X156019159Y-84481285D01*
X155899461Y-84517595D01*
X155789147Y-84576560D01*
X155692456Y-84655912D01*
X155613104Y-84752603D01*
X155554139Y-84862917D01*
X155517829Y-84982615D01*
X155505569Y-85107097D01*
X149282270Y-85107097D01*
X149283171Y-85044300D01*
X149270911Y-84919818D01*
X149234601Y-84800120D01*
X149175636Y-84689806D01*
X149096284Y-84593115D01*
X148999593Y-84513763D01*
X148889279Y-84454798D01*
X148769581Y-84418488D01*
X148645099Y-84406228D01*
X148205849Y-84409300D01*
X148047099Y-84568050D01*
X147793099Y-84568050D01*
X147634349Y-84409300D01*
X147195099Y-84406228D01*
X147070617Y-84418488D01*
X146950919Y-84454798D01*
X146840605Y-84513763D01*
X146743914Y-84593115D01*
X146664562Y-84689806D01*
X146605597Y-84800120D01*
X146569287Y-84919818D01*
X146557027Y-85044300D01*
X140273409Y-85044300D01*
X140265852Y-84967575D01*
X140229542Y-84847877D01*
X140170577Y-84737563D01*
X140091225Y-84640872D01*
X139994534Y-84561520D01*
X139884220Y-84502555D01*
X139764522Y-84466245D01*
X139640040Y-84453985D01*
X139200790Y-84457057D01*
X139042040Y-84615807D01*
X138788040Y-84615807D01*
X138629290Y-84457057D01*
X138190040Y-84453985D01*
X138065558Y-84466245D01*
X137945860Y-84502555D01*
X137835546Y-84561520D01*
X137738855Y-84640872D01*
X137659503Y-84737563D01*
X137600538Y-84847877D01*
X137564228Y-84967575D01*
X137551968Y-85092057D01*
X131329570Y-85092057D01*
X131317310Y-84967575D01*
X131281000Y-84847877D01*
X131222035Y-84737563D01*
X131142683Y-84640872D01*
X131045992Y-84561520D01*
X130935678Y-84502555D01*
X130815980Y-84466245D01*
X130691498Y-84453985D01*
X130252248Y-84457057D01*
X130093498Y-84615807D01*
X129839498Y-84615807D01*
X129680748Y-84457057D01*
X129241498Y-84453985D01*
X129117016Y-84466245D01*
X128997318Y-84502555D01*
X128887004Y-84561520D01*
X128790313Y-84640872D01*
X128710961Y-84737563D01*
X128651996Y-84847877D01*
X128615686Y-84967575D01*
X128603426Y-85092057D01*
X122248526Y-85092057D01*
X122238263Y-84987854D01*
X122201953Y-84868156D01*
X122142988Y-84757842D01*
X122063636Y-84661151D01*
X121966945Y-84581799D01*
X121856631Y-84522834D01*
X121736933Y-84486524D01*
X121612451Y-84474264D01*
X121173201Y-84477336D01*
X121014451Y-84636086D01*
X120760451Y-84636086D01*
X120601701Y-84477336D01*
X120162451Y-84474264D01*
X120037969Y-84486524D01*
X119918271Y-84522834D01*
X119807957Y-84581799D01*
X119711266Y-84661151D01*
X119631914Y-84757842D01*
X119572949Y-84868156D01*
X119536639Y-84987854D01*
X119524379Y-85112336D01*
X113274905Y-85112336D01*
X113275815Y-85048880D01*
X113263555Y-84924398D01*
X113227245Y-84804700D01*
X113168280Y-84694386D01*
X113088928Y-84597695D01*
X112992237Y-84518343D01*
X112881923Y-84459378D01*
X112762225Y-84423068D01*
X112637743Y-84410808D01*
X112198493Y-84413880D01*
X112039743Y-84572630D01*
X111785743Y-84572630D01*
X111626993Y-84413880D01*
X111187743Y-84410808D01*
X111063261Y-84423068D01*
X110943563Y-84459378D01*
X110833249Y-84518343D01*
X110736558Y-84597695D01*
X110657206Y-84694386D01*
X110598241Y-84804700D01*
X110561931Y-84924398D01*
X110549671Y-85048880D01*
X104231977Y-85048880D01*
X104220812Y-84935518D01*
X104184502Y-84815820D01*
X104125537Y-84705506D01*
X104046185Y-84608815D01*
X103949494Y-84529463D01*
X103839180Y-84470498D01*
X103719482Y-84434188D01*
X103595000Y-84421928D01*
X103155750Y-84425000D01*
X102997000Y-84583750D01*
X102743000Y-84583750D01*
X102584250Y-84425000D01*
X102145000Y-84421928D01*
X102020518Y-84434188D01*
X101900820Y-84470498D01*
X101790506Y-84529463D01*
X101693815Y-84608815D01*
X101614463Y-84705506D01*
X101555498Y-84815820D01*
X101519188Y-84935518D01*
X101506928Y-85060000D01*
X101092000Y-85060000D01*
X101092000Y-83947000D01*
X167513000Y-83947000D01*
X167513000Y-86233000D01*
G37*
X167513000Y-86233000D02*
X167236094Y-86233000D01*
X167250812Y-86184482D01*
X167263072Y-86060000D01*
X167260000Y-85845750D01*
X167101250Y-85687000D01*
X166027000Y-85687000D01*
X166027000Y-85707000D01*
X165773000Y-85707000D01*
X165773000Y-85687000D01*
X164698750Y-85687000D01*
X164540000Y-85845750D01*
X164536928Y-86060000D01*
X164549188Y-86184482D01*
X164563906Y-86233000D01*
X158219022Y-86233000D01*
X158219453Y-86231579D01*
X158231713Y-86107097D01*
X158228641Y-85892847D01*
X158069891Y-85734097D01*
X156995641Y-85734097D01*
X156995641Y-85754097D01*
X156741641Y-85754097D01*
X156741641Y-85734097D01*
X155667391Y-85734097D01*
X155508641Y-85892847D01*
X155505569Y-86107097D01*
X155517829Y-86231579D01*
X155518260Y-86233000D01*
X149251431Y-86233000D01*
X149270911Y-86168782D01*
X149283171Y-86044300D01*
X149280099Y-85830050D01*
X149121349Y-85671300D01*
X148047099Y-85671300D01*
X148047099Y-85691300D01*
X147793099Y-85691300D01*
X147793099Y-85671300D01*
X146718849Y-85671300D01*
X146560099Y-85830050D01*
X146557027Y-86044300D01*
X146569287Y-86168782D01*
X146588767Y-86233000D01*
X140260859Y-86233000D01*
X140265852Y-86216539D01*
X140278112Y-86092057D01*
X140275040Y-85877807D01*
X140116290Y-85719057D01*
X139042040Y-85719057D01*
X139042040Y-85739057D01*
X138788040Y-85739057D01*
X138788040Y-85719057D01*
X137713790Y-85719057D01*
X137555040Y-85877807D01*
X137551968Y-86092057D01*
X137564228Y-86216539D01*
X137569221Y-86233000D01*
X131312317Y-86233000D01*
X131317310Y-86216539D01*
X131329570Y-86092057D01*
X131326498Y-85877807D01*
X131167748Y-85719057D01*
X130093498Y-85719057D01*
X130093498Y-85739057D01*
X129839498Y-85739057D01*
X129839498Y-85719057D01*
X128765248Y-85719057D01*
X128606498Y-85877807D01*
X128603426Y-86092057D01*
X128615686Y-86216539D01*
X128620679Y-86233000D01*
X122238639Y-86233000D01*
X122250523Y-86112336D01*
X122247451Y-85898086D01*
X122088701Y-85739336D01*
X121014451Y-85739336D01*
X121014451Y-85759336D01*
X120760451Y-85759336D01*
X120760451Y-85739336D01*
X119686201Y-85739336D01*
X119527451Y-85898086D01*
X119524379Y-86112336D01*
X119536263Y-86233000D01*
X113245464Y-86233000D01*
X113263555Y-86173362D01*
X113275815Y-86048880D01*
X113272743Y-85834630D01*
X113113993Y-85675880D01*
X112039743Y-85675880D01*
X112039743Y-85695880D01*
X111785743Y-85695880D01*
X111785743Y-85675880D01*
X110711493Y-85675880D01*
X110552743Y-85834630D01*
X110549671Y-86048880D01*
X110561931Y-86173362D01*
X110580022Y-86233000D01*
X104206094Y-86233000D01*
X104220812Y-86184482D01*
X104233072Y-86060000D01*
X104230000Y-85845750D01*
X104071250Y-85687000D01*
X102997000Y-85687000D01*
X102997000Y-85707000D01*
X102743000Y-85707000D01*
X102743000Y-85687000D01*
X101668750Y-85687000D01*
X101510000Y-85845750D01*
X101506928Y-86060000D01*
X101519188Y-86184482D01*
X101533906Y-86233000D01*
X101092000Y-86233000D01*
X101092000Y-85060000D01*
X101506928Y-85060000D01*
X101510000Y-85274250D01*
X101668750Y-85433000D01*
X102743000Y-85433000D01*
X102743000Y-84583750D01*
X102997000Y-84583750D01*
X102997000Y-85433000D01*
X104071250Y-85433000D01*
X104230000Y-85274250D01*
X104233072Y-85060000D01*
X104231977Y-85048880D01*
X110549671Y-85048880D01*
X110552743Y-85263130D01*
X110711493Y-85421880D01*
X111785743Y-85421880D01*
X111785743Y-84572630D01*
X112039743Y-84572630D01*
X112039743Y-85421880D01*
X113113993Y-85421880D01*
X113272743Y-85263130D01*
X113274905Y-85112336D01*
X119524379Y-85112336D01*
X119527451Y-85326586D01*
X119686201Y-85485336D01*
X120760451Y-85485336D01*
X120760451Y-84636086D01*
X121014451Y-84636086D01*
X121014451Y-85485336D01*
X122088701Y-85485336D01*
X122247451Y-85326586D01*
X122250523Y-85112336D01*
X122248526Y-85092057D01*
X128603426Y-85092057D01*
X128606498Y-85306307D01*
X128765248Y-85465057D01*
X129839498Y-85465057D01*
X129839498Y-84615807D01*
X130093498Y-84615807D01*
X130093498Y-85465057D01*
X131167748Y-85465057D01*
X131326498Y-85306307D01*
X131329570Y-85092057D01*
X137551968Y-85092057D01*
X137555040Y-85306307D01*
X137713790Y-85465057D01*
X138788040Y-85465057D01*
X138788040Y-84615807D01*
X139042040Y-84615807D01*
X139042040Y-85465057D01*
X140116290Y-85465057D01*
X140275040Y-85306307D01*
X140278112Y-85092057D01*
X140273409Y-85044300D01*
X146557027Y-85044300D01*
X146560099Y-85258550D01*
X146718849Y-85417300D01*
X147793099Y-85417300D01*
X147793099Y-84568050D01*
X148047099Y-84568050D01*
X148047099Y-85417300D01*
X149121349Y-85417300D01*
X149280099Y-85258550D01*
X149282270Y-85107097D01*
X155505569Y-85107097D01*
X155508641Y-85321347D01*
X155667391Y-85480097D01*
X156741641Y-85480097D01*
X156741641Y-84630847D01*
X156995641Y-84630847D01*
X156995641Y-85480097D01*
X158069891Y-85480097D01*
X158228641Y-85321347D01*
X158231713Y-85107097D01*
X158227075Y-85060000D01*
X164536928Y-85060000D01*
X164540000Y-85274250D01*
X164698750Y-85433000D01*
X165773000Y-85433000D01*
X165773000Y-84583750D01*
X166027000Y-84583750D01*
X166027000Y-85433000D01*
X167101250Y-85433000D01*
X167260000Y-85274250D01*
X167263072Y-85060000D01*
X167250812Y-84935518D01*
X167214502Y-84815820D01*
X167155537Y-84705506D01*
X167076185Y-84608815D01*
X166979494Y-84529463D01*
X166869180Y-84470498D01*
X166749482Y-84434188D01*
X166625000Y-84421928D01*
X166185750Y-84425000D01*
X166027000Y-84583750D01*
X165773000Y-84583750D01*
X165614250Y-84425000D01*
X165175000Y-84421928D01*
X165050518Y-84434188D01*
X164930820Y-84470498D01*
X164820506Y-84529463D01*
X164723815Y-84608815D01*
X164644463Y-84705506D01*
X164585498Y-84815820D01*
X164549188Y-84935518D01*
X164536928Y-85060000D01*
X158227075Y-85060000D01*
X158219453Y-84982615D01*
X158183143Y-84862917D01*
X158124178Y-84752603D01*
X158044826Y-84655912D01*
X157948135Y-84576560D01*
X157837821Y-84517595D01*
X157718123Y-84481285D01*
X157593641Y-84469025D01*
X157154391Y-84472097D01*
X156995641Y-84630847D01*
X156741641Y-84630847D01*
X156582891Y-84472097D01*
X156143641Y-84469025D01*
X156019159Y-84481285D01*
X155899461Y-84517595D01*
X155789147Y-84576560D01*
X155692456Y-84655912D01*
X155613104Y-84752603D01*
X155554139Y-84862917D01*
X155517829Y-84982615D01*
X155505569Y-85107097D01*
X149282270Y-85107097D01*
X149283171Y-85044300D01*
X149270911Y-84919818D01*
X149234601Y-84800120D01*
X149175636Y-84689806D01*
X149096284Y-84593115D01*
X148999593Y-84513763D01*
X148889279Y-84454798D01*
X148769581Y-84418488D01*
X148645099Y-84406228D01*
X148205849Y-84409300D01*
X148047099Y-84568050D01*
X147793099Y-84568050D01*
X147634349Y-84409300D01*
X147195099Y-84406228D01*
X147070617Y-84418488D01*
X146950919Y-84454798D01*
X146840605Y-84513763D01*
X146743914Y-84593115D01*
X146664562Y-84689806D01*
X146605597Y-84800120D01*
X146569287Y-84919818D01*
X146557027Y-85044300D01*
X140273409Y-85044300D01*
X140265852Y-84967575D01*
X140229542Y-84847877D01*
X140170577Y-84737563D01*
X140091225Y-84640872D01*
X139994534Y-84561520D01*
X139884220Y-84502555D01*
X139764522Y-84466245D01*
X139640040Y-84453985D01*
X139200790Y-84457057D01*
X139042040Y-84615807D01*
X138788040Y-84615807D01*
X138629290Y-84457057D01*
X138190040Y-84453985D01*
X138065558Y-84466245D01*
X137945860Y-84502555D01*
X137835546Y-84561520D01*
X137738855Y-84640872D01*
X137659503Y-84737563D01*
X137600538Y-84847877D01*
X137564228Y-84967575D01*
X137551968Y-85092057D01*
X131329570Y-85092057D01*
X131317310Y-84967575D01*
X131281000Y-84847877D01*
X131222035Y-84737563D01*
X131142683Y-84640872D01*
X131045992Y-84561520D01*
X130935678Y-84502555D01*
X130815980Y-84466245D01*
X130691498Y-84453985D01*
X130252248Y-84457057D01*
X130093498Y-84615807D01*
X129839498Y-84615807D01*
X129680748Y-84457057D01*
X129241498Y-84453985D01*
X129117016Y-84466245D01*
X128997318Y-84502555D01*
X128887004Y-84561520D01*
X128790313Y-84640872D01*
X128710961Y-84737563D01*
X128651996Y-84847877D01*
X128615686Y-84967575D01*
X128603426Y-85092057D01*
X122248526Y-85092057D01*
X122238263Y-84987854D01*
X122201953Y-84868156D01*
X122142988Y-84757842D01*
X122063636Y-84661151D01*
X121966945Y-84581799D01*
X121856631Y-84522834D01*
X121736933Y-84486524D01*
X121612451Y-84474264D01*
X121173201Y-84477336D01*
X121014451Y-84636086D01*
X120760451Y-84636086D01*
X120601701Y-84477336D01*
X120162451Y-84474264D01*
X120037969Y-84486524D01*
X119918271Y-84522834D01*
X119807957Y-84581799D01*
X119711266Y-84661151D01*
X119631914Y-84757842D01*
X119572949Y-84868156D01*
X119536639Y-84987854D01*
X119524379Y-85112336D01*
X113274905Y-85112336D01*
X113275815Y-85048880D01*
X113263555Y-84924398D01*
X113227245Y-84804700D01*
X113168280Y-84694386D01*
X113088928Y-84597695D01*
X112992237Y-84518343D01*
X112881923Y-84459378D01*
X112762225Y-84423068D01*
X112637743Y-84410808D01*
X112198493Y-84413880D01*
X112039743Y-84572630D01*
X111785743Y-84572630D01*
X111626993Y-84413880D01*
X111187743Y-84410808D01*
X111063261Y-84423068D01*
X110943563Y-84459378D01*
X110833249Y-84518343D01*
X110736558Y-84597695D01*
X110657206Y-84694386D01*
X110598241Y-84804700D01*
X110561931Y-84924398D01*
X110549671Y-85048880D01*
X104231977Y-85048880D01*
X104220812Y-84935518D01*
X104184502Y-84815820D01*
X104125537Y-84705506D01*
X104046185Y-84608815D01*
X103949494Y-84529463D01*
X103839180Y-84470498D01*
X103719482Y-84434188D01*
X103595000Y-84421928D01*
X103155750Y-84425000D01*
X102997000Y-84583750D01*
X102743000Y-84583750D01*
X102584250Y-84425000D01*
X102145000Y-84421928D01*
X102020518Y-84434188D01*
X101900820Y-84470498D01*
X101790506Y-84529463D01*
X101693815Y-84608815D01*
X101614463Y-84705506D01*
X101555498Y-84815820D01*
X101519188Y-84935518D01*
X101506928Y-85060000D01*
X101092000Y-85060000D01*
X101092000Y-83947000D01*
X167513000Y-83947000D01*
X167513000Y-86233000D01*
G36*
X117983000Y-90593762D02*
G01*
X117947753Y-90604454D01*
X117815723Y-90675026D01*
X117743311Y-90734454D01*
X117699999Y-90769999D01*
X117676201Y-90798997D01*
X116728271Y-91746928D01*
X116077500Y-91746928D01*
X115953018Y-91759188D01*
X115833320Y-91795498D01*
X115723006Y-91854463D01*
X115626315Y-91933815D01*
X115546963Y-92030506D01*
X115487998Y-92140820D01*
X115451688Y-92260518D01*
X115439428Y-92385000D01*
X115439428Y-93035000D01*
X115451688Y-93159482D01*
X115487998Y-93279180D01*
X115523180Y-93345000D01*
X115487998Y-93410820D01*
X115451688Y-93530518D01*
X115439428Y-93655000D01*
X115439428Y-94305000D01*
X115451688Y-94429482D01*
X115487998Y-94549180D01*
X115523180Y-94615000D01*
X115487998Y-94680820D01*
X115451688Y-94800518D01*
X115439428Y-94925000D01*
X115442500Y-94964250D01*
X115601250Y-95123000D01*
X116713000Y-95123000D01*
X116713000Y-95103000D01*
X116967000Y-95103000D01*
X116967000Y-95123000D01*
X116987000Y-95123000D01*
X116987000Y-95377000D01*
X116967000Y-95377000D01*
X116967000Y-96393000D01*
X116987000Y-96393000D01*
X116987000Y-96647000D01*
X116967000Y-96647000D01*
X116967000Y-97663000D01*
X116987000Y-97663000D01*
X116987000Y-97917000D01*
X116967000Y-97917000D01*
X116967000Y-97937000D01*
X116713000Y-97937000D01*
X116713000Y-97917000D01*
X115601250Y-97917000D01*
X115442500Y-98075750D01*
X115439428Y-98115000D01*
X115451688Y-98239482D01*
X115487998Y-98359180D01*
X115523180Y-98425000D01*
X115487998Y-98490820D01*
X115451688Y-98610518D01*
X115439428Y-98735000D01*
X115439428Y-99385000D01*
X115451688Y-99509482D01*
X115487998Y-99629180D01*
X115523180Y-99695000D01*
X115487998Y-99760820D01*
X115451688Y-99880518D01*
X115439428Y-100005000D01*
X115439428Y-100655000D01*
X115451688Y-100779482D01*
X115487998Y-100899180D01*
X115546963Y-101009494D01*
X115626315Y-101106185D01*
X115723006Y-101185537D01*
X115833320Y-101244502D01*
X115953018Y-101280812D01*
X116077500Y-101293072D01*
X117602500Y-101293072D01*
X117726982Y-101280812D01*
X117846680Y-101244502D01*
X117956994Y-101185537D01*
X117983000Y-101164194D01*
X117983000Y-102743000D01*
X106650731Y-102743000D01*
X106662962Y-102732962D01*
X106773405Y-102598386D01*
X106855472Y-102444850D01*
X106906008Y-102278254D01*
X106923072Y-102105000D01*
X106923072Y-101355000D01*
X106917399Y-101297403D01*
X107124802Y-101090000D01*
X110189032Y-101090000D01*
X110202315Y-101106185D01*
X110299006Y-101185537D01*
X110409320Y-101244502D01*
X110529018Y-101280812D01*
X110653500Y-101293072D01*
X111013271Y-101293072D01*
X111360000Y-101639801D01*
X111360000Y-101701939D01*
X111399774Y-101901898D01*
X111477795Y-102090256D01*
X111591063Y-102259774D01*
X111735226Y-102403937D01*
X111904744Y-102517205D01*
X112093102Y-102595226D01*
X112293061Y-102635000D01*
X112496939Y-102635000D01*
X112696898Y-102595226D01*
X112885256Y-102517205D01*
X113054774Y-102403937D01*
X113198937Y-102259774D01*
X113312205Y-102090256D01*
X113390226Y-101901898D01*
X113430000Y-101701939D01*
X113430000Y-101498061D01*
X113390226Y-101298102D01*
X113312205Y-101109744D01*
X113198937Y-100940226D01*
X113054774Y-100796063D01*
X112885256Y-100682795D01*
X112816572Y-100654345D01*
X112816572Y-100005000D01*
X112804312Y-99880518D01*
X112768002Y-99760820D01*
X112759466Y-99744850D01*
X112852776Y-99694974D01*
X112968501Y-99600001D01*
X112992304Y-99570997D01*
X114811003Y-97752299D01*
X114840001Y-97728501D01*
X114934974Y-97612776D01*
X115005546Y-97480747D01*
X115049003Y-97337486D01*
X115060000Y-97225833D01*
X115060000Y-97225825D01*
X115063676Y-97188500D01*
X115060000Y-97151175D01*
X115060000Y-96845000D01*
X115439428Y-96845000D01*
X115451688Y-96969482D01*
X115487998Y-97089180D01*
X115523180Y-97155000D01*
X115487998Y-97220820D01*
X115451688Y-97340518D01*
X115439428Y-97465000D01*
X115442500Y-97504250D01*
X115601250Y-97663000D01*
X116713000Y-97663000D01*
X116713000Y-96647000D01*
X115601250Y-96647000D01*
X115442500Y-96805750D01*
X115439428Y-96845000D01*
X115060000Y-96845000D01*
X115060000Y-95575000D01*
X115439428Y-95575000D01*
X115451688Y-95699482D01*
X115487998Y-95819180D01*
X115523180Y-95885000D01*
X115487998Y-95950820D01*
X115451688Y-96070518D01*
X115439428Y-96195000D01*
X115442500Y-96234250D01*
X115601250Y-96393000D01*
X116713000Y-96393000D01*
X116713000Y-95377000D01*
X115601250Y-95377000D01*
X115442500Y-95535750D01*
X115439428Y-95575000D01*
X115060000Y-95575000D01*
X115060000Y-89572322D01*
X115063676Y-89534999D01*
X115060000Y-89497676D01*
X115060000Y-89497667D01*
X115049003Y-89386014D01*
X115005546Y-89242753D01*
X114934974Y-89110724D01*
X114840001Y-88994999D01*
X114811004Y-88971202D01*
X113275815Y-87436014D01*
X113275815Y-86648880D01*
X113263555Y-86524398D01*
X113227245Y-86404700D01*
X113197408Y-86348880D01*
X113227245Y-86293060D01*
X113263555Y-86173362D01*
X113275815Y-86048880D01*
X113272743Y-85834630D01*
X113113993Y-85675880D01*
X112039743Y-85675880D01*
X112039743Y-85695880D01*
X111785743Y-85695880D01*
X111785743Y-85675880D01*
X110711493Y-85675880D01*
X110552743Y-85834630D01*
X110549671Y-86048880D01*
X110561931Y-86173362D01*
X110598241Y-86293060D01*
X110628078Y-86348880D01*
X110598241Y-86404700D01*
X110561931Y-86524398D01*
X110549671Y-86648880D01*
X110549671Y-87648880D01*
X110561931Y-87773362D01*
X110598241Y-87893060D01*
X110657206Y-88003374D01*
X110736558Y-88100065D01*
X110833249Y-88179417D01*
X110943563Y-88238382D01*
X111063261Y-88274692D01*
X111187743Y-88286952D01*
X111977151Y-88286952D01*
X113540000Y-89849802D01*
X113540000Y-91805988D01*
X113520256Y-91792795D01*
X113331898Y-91714774D01*
X113131939Y-91675000D01*
X112928061Y-91675000D01*
X112728102Y-91714774D01*
X112539744Y-91792795D01*
X112485469Y-91829060D01*
X112422680Y-91795498D01*
X112302982Y-91759188D01*
X112178500Y-91746928D01*
X111527730Y-91746928D01*
X110709804Y-90929003D01*
X110686001Y-90899999D01*
X110570276Y-90805026D01*
X110438247Y-90734454D01*
X110294986Y-90690997D01*
X110183333Y-90680000D01*
X110183322Y-90680000D01*
X110146000Y-90676324D01*
X110108678Y-90680000D01*
X106831339Y-90680000D01*
X106773405Y-90571614D01*
X106662962Y-90437038D01*
X106528386Y-90326595D01*
X106374850Y-90244528D01*
X106208254Y-90193992D01*
X106035000Y-90176928D01*
X104785000Y-90176928D01*
X104611746Y-90193992D01*
X104445150Y-90244528D01*
X104291614Y-90326595D01*
X104157038Y-90437038D01*
X104046595Y-90571614D01*
X103964528Y-90725150D01*
X103913992Y-90891746D01*
X103896928Y-91065000D01*
X103896928Y-91652127D01*
X103630000Y-91385199D01*
X103630000Y-88294625D01*
X103719482Y-88285812D01*
X103839180Y-88249502D01*
X103949494Y-88190537D01*
X104046185Y-88111185D01*
X104125537Y-88014494D01*
X104184502Y-87904180D01*
X104220812Y-87784482D01*
X104233072Y-87660000D01*
X104233072Y-86660000D01*
X104220812Y-86535518D01*
X104184502Y-86415820D01*
X104154665Y-86360000D01*
X104184502Y-86304180D01*
X104220812Y-86184482D01*
X104233072Y-86060000D01*
X104230000Y-85845750D01*
X104071250Y-85687000D01*
X102997000Y-85687000D01*
X102997000Y-85707000D01*
X102743000Y-85707000D01*
X102743000Y-85687000D01*
X101668750Y-85687000D01*
X101510000Y-85845750D01*
X101506928Y-86060000D01*
X101519188Y-86184482D01*
X101555498Y-86304180D01*
X101585335Y-86360000D01*
X101555498Y-86415820D01*
X101519188Y-86535518D01*
X101506928Y-86660000D01*
X101506928Y-87660000D01*
X101519188Y-87784482D01*
X101555498Y-87904180D01*
X101614463Y-88014494D01*
X101693815Y-88111185D01*
X101790506Y-88190537D01*
X101900820Y-88249502D01*
X102020518Y-88285812D01*
X102110000Y-88294625D01*
X102110001Y-91662668D01*
X102106324Y-91700000D01*
X102110001Y-91737333D01*
X102120998Y-91848986D01*
X102125636Y-91864276D01*
X102164454Y-91992246D01*
X102235026Y-92124276D01*
X102297172Y-92200000D01*
X102330000Y-92240001D01*
X102358998Y-92263799D01*
X103902601Y-93807403D01*
X103896928Y-93865000D01*
X103896928Y-94615000D01*
X103913992Y-94788254D01*
X103964528Y-94954850D01*
X104046595Y-95108386D01*
X104157038Y-95242962D01*
X104291614Y-95353405D01*
X104445150Y-95435472D01*
X104611746Y-95486008D01*
X104785000Y-95503072D01*
X106035000Y-95503072D01*
X106208254Y-95486008D01*
X106374850Y-95435472D01*
X106528386Y-95353405D01*
X106662962Y-95242962D01*
X106773405Y-95108386D01*
X106831339Y-95000000D01*
X110054250Y-95000000D01*
X110177250Y-95123000D01*
X111289000Y-95123000D01*
X111289000Y-95103000D01*
X111543000Y-95103000D01*
X111543000Y-95123000D01*
X112654750Y-95123000D01*
X112813500Y-94964250D01*
X112816572Y-94925000D01*
X112804312Y-94800518D01*
X112768002Y-94680820D01*
X112732820Y-94615000D01*
X112768002Y-94549180D01*
X112804312Y-94429482D01*
X112816572Y-94305000D01*
X112816572Y-93722824D01*
X112928061Y-93745000D01*
X113131939Y-93745000D01*
X113331898Y-93705226D01*
X113520256Y-93627205D01*
X113540001Y-93614012D01*
X113540001Y-96873697D01*
X112750701Y-97662998D01*
X112654752Y-97662998D01*
X112813500Y-97504250D01*
X112816572Y-97465000D01*
X112804312Y-97340518D01*
X112768002Y-97220820D01*
X112732820Y-97155000D01*
X112768002Y-97089180D01*
X112804312Y-96969482D01*
X112816572Y-96845000D01*
X112816572Y-96195000D01*
X112804312Y-96070518D01*
X112768002Y-95950820D01*
X112732820Y-95885000D01*
X112768002Y-95819180D01*
X112804312Y-95699482D01*
X112816572Y-95575000D01*
X112813500Y-95535750D01*
X112654750Y-95377000D01*
X111543000Y-95377000D01*
X111543000Y-95397000D01*
X111289000Y-95397000D01*
X111289000Y-95377000D01*
X110177250Y-95377000D01*
X110018500Y-95535750D01*
X110015428Y-95575000D01*
X110021337Y-95635000D01*
X109758454Y-95635000D01*
X109710256Y-95602795D01*
X109521898Y-95524774D01*
X109321939Y-95485000D01*
X109118061Y-95485000D01*
X108918102Y-95524774D01*
X108729744Y-95602795D01*
X108560226Y-95716063D01*
X108416063Y-95860226D01*
X108302795Y-96029744D01*
X108224774Y-96218102D01*
X108185000Y-96418061D01*
X108185000Y-96621939D01*
X108224774Y-96821898D01*
X108302795Y-97010256D01*
X108416063Y-97179774D01*
X108560226Y-97323937D01*
X108729744Y-97437205D01*
X108918102Y-97515226D01*
X109118061Y-97555000D01*
X109321939Y-97555000D01*
X109521898Y-97515226D01*
X109710256Y-97437205D01*
X109758454Y-97405000D01*
X110021337Y-97405000D01*
X110015428Y-97465000D01*
X110018500Y-97504250D01*
X110177250Y-97663000D01*
X111289000Y-97663000D01*
X111289000Y-97643000D01*
X111543000Y-97643000D01*
X111543000Y-97663000D01*
X111563000Y-97663000D01*
X111563000Y-97917000D01*
X111543000Y-97917000D01*
X111543000Y-97937000D01*
X111289000Y-97937000D01*
X111289000Y-97917000D01*
X110177250Y-97917000D01*
X110018500Y-98075750D01*
X110015428Y-98115000D01*
X110027688Y-98239482D01*
X110046046Y-98300000D01*
X106881211Y-98300000D01*
X106855472Y-98215150D01*
X106773405Y-98061614D01*
X106662962Y-97927038D01*
X106528386Y-97816595D01*
X106374850Y-97734528D01*
X106208254Y-97683992D01*
X106035000Y-97666928D01*
X104785000Y-97666928D01*
X104611746Y-97683992D01*
X104445150Y-97734528D01*
X104291614Y-97816595D01*
X104157038Y-97927038D01*
X104046595Y-98061614D01*
X103964528Y-98215150D01*
X103913992Y-98381746D01*
X103896928Y-98555000D01*
X103896928Y-99305000D01*
X103913992Y-99478254D01*
X103964528Y-99644850D01*
X104046595Y-99798386D01*
X104157038Y-99932962D01*
X104291614Y-100043405D01*
X104445150Y-100125472D01*
X104611746Y-100176008D01*
X104785000Y-100193072D01*
X105872126Y-100193072D01*
X105598270Y-100466928D01*
X104785000Y-100466928D01*
X104611746Y-100483992D01*
X104445150Y-100534528D01*
X104291614Y-100616595D01*
X104157038Y-100727038D01*
X104046595Y-100861614D01*
X103964528Y-101015150D01*
X103913992Y-101181746D01*
X103896928Y-101355000D01*
X103896928Y-102105000D01*
X103913992Y-102278254D01*
X103964528Y-102444850D01*
X104046595Y-102598386D01*
X104157038Y-102732962D01*
X104169269Y-102743000D01*
X101092000Y-102743000D01*
X101092000Y-85060000D01*
X101506928Y-85060000D01*
X101510000Y-85274250D01*
X101668750Y-85433000D01*
X102743000Y-85433000D01*
X102743000Y-84583750D01*
X102997000Y-84583750D01*
X102997000Y-85433000D01*
X104071250Y-85433000D01*
X104230000Y-85274250D01*
X104233072Y-85060000D01*
X104231977Y-85048880D01*
X110549671Y-85048880D01*
X110552743Y-85263130D01*
X110711493Y-85421880D01*
X111785743Y-85421880D01*
X111785743Y-84572630D01*
X112039743Y-84572630D01*
X112039743Y-85421880D01*
X113113993Y-85421880D01*
X113272743Y-85263130D01*
X113275815Y-85048880D01*
X113263555Y-84924398D01*
X113227245Y-84804700D01*
X113168280Y-84694386D01*
X113088928Y-84597695D01*
X112992237Y-84518343D01*
X112881923Y-84459378D01*
X112762225Y-84423068D01*
X112637743Y-84410808D01*
X112198493Y-84413880D01*
X112039743Y-84572630D01*
X111785743Y-84572630D01*
X111626993Y-84413880D01*
X111187743Y-84410808D01*
X111063261Y-84423068D01*
X110943563Y-84459378D01*
X110833249Y-84518343D01*
X110736558Y-84597695D01*
X110657206Y-84694386D01*
X110598241Y-84804700D01*
X110561931Y-84924398D01*
X110549671Y-85048880D01*
X104231977Y-85048880D01*
X104220812Y-84935518D01*
X104184502Y-84815820D01*
X104125537Y-84705506D01*
X104046185Y-84608815D01*
X103949494Y-84529463D01*
X103839180Y-84470498D01*
X103719482Y-84434188D01*
X103595000Y-84421928D01*
X103155750Y-84425000D01*
X102997000Y-84583750D01*
X102743000Y-84583750D01*
X102584250Y-84425000D01*
X102145000Y-84421928D01*
X102020518Y-84434188D01*
X101900820Y-84470498D01*
X101790506Y-84529463D01*
X101693815Y-84608815D01*
X101614463Y-84705506D01*
X101555498Y-84815820D01*
X101519188Y-84935518D01*
X101506928Y-85060000D01*
X101092000Y-85060000D01*
X101092000Y-83947000D01*
X117983000Y-83947000D01*
X117983000Y-90593762D01*
G37*
X117983000Y-90593762D02*
X117947753Y-90604454D01*
X117815723Y-90675026D01*
X117743311Y-90734454D01*
X117699999Y-90769999D01*
X117676201Y-90798997D01*
X116728271Y-91746928D01*
X116077500Y-91746928D01*
X115953018Y-91759188D01*
X115833320Y-91795498D01*
X115723006Y-91854463D01*
X115626315Y-91933815D01*
X115546963Y-92030506D01*
X115487998Y-92140820D01*
X115451688Y-92260518D01*
X115439428Y-92385000D01*
X115439428Y-93035000D01*
X115451688Y-93159482D01*
X115487998Y-93279180D01*
X115523180Y-93345000D01*
X115487998Y-93410820D01*
X115451688Y-93530518D01*
X115439428Y-93655000D01*
X115439428Y-94305000D01*
X115451688Y-94429482D01*
X115487998Y-94549180D01*
X115523180Y-94615000D01*
X115487998Y-94680820D01*
X115451688Y-94800518D01*
X115439428Y-94925000D01*
X115442500Y-94964250D01*
X115601250Y-95123000D01*
X116713000Y-95123000D01*
X116713000Y-95103000D01*
X116967000Y-95103000D01*
X116967000Y-95123000D01*
X116987000Y-95123000D01*
X116987000Y-95377000D01*
X116967000Y-95377000D01*
X116967000Y-96393000D01*
X116987000Y-96393000D01*
X116987000Y-96647000D01*
X116967000Y-96647000D01*
X116967000Y-97663000D01*
X116987000Y-97663000D01*
X116987000Y-97917000D01*
X116967000Y-97917000D01*
X116967000Y-97937000D01*
X116713000Y-97937000D01*
X116713000Y-97917000D01*
X115601250Y-97917000D01*
X115442500Y-98075750D01*
X115439428Y-98115000D01*
X115451688Y-98239482D01*
X115487998Y-98359180D01*
X115523180Y-98425000D01*
X115487998Y-98490820D01*
X115451688Y-98610518D01*
X115439428Y-98735000D01*
X115439428Y-99385000D01*
X115451688Y-99509482D01*
X115487998Y-99629180D01*
X115523180Y-99695000D01*
X115487998Y-99760820D01*
X115451688Y-99880518D01*
X115439428Y-100005000D01*
X115439428Y-100655000D01*
X115451688Y-100779482D01*
X115487998Y-100899180D01*
X115546963Y-101009494D01*
X115626315Y-101106185D01*
X115723006Y-101185537D01*
X115833320Y-101244502D01*
X115953018Y-101280812D01*
X116077500Y-101293072D01*
X117602500Y-101293072D01*
X117726982Y-101280812D01*
X117846680Y-101244502D01*
X117956994Y-101185537D01*
X117983000Y-101164194D01*
X117983000Y-102743000D01*
X106650731Y-102743000D01*
X106662962Y-102732962D01*
X106773405Y-102598386D01*
X106855472Y-102444850D01*
X106906008Y-102278254D01*
X106923072Y-102105000D01*
X106923072Y-101355000D01*
X106917399Y-101297403D01*
X107124802Y-101090000D01*
X110189032Y-101090000D01*
X110202315Y-101106185D01*
X110299006Y-101185537D01*
X110409320Y-101244502D01*
X110529018Y-101280812D01*
X110653500Y-101293072D01*
X111013271Y-101293072D01*
X111360000Y-101639801D01*
X111360000Y-101701939D01*
X111399774Y-101901898D01*
X111477795Y-102090256D01*
X111591063Y-102259774D01*
X111735226Y-102403937D01*
X111904744Y-102517205D01*
X112093102Y-102595226D01*
X112293061Y-102635000D01*
X112496939Y-102635000D01*
X112696898Y-102595226D01*
X112885256Y-102517205D01*
X113054774Y-102403937D01*
X113198937Y-102259774D01*
X113312205Y-102090256D01*
X113390226Y-101901898D01*
X113430000Y-101701939D01*
X113430000Y-101498061D01*
X113390226Y-101298102D01*
X113312205Y-101109744D01*
X113198937Y-100940226D01*
X113054774Y-100796063D01*
X112885256Y-100682795D01*
X112816572Y-100654345D01*
X112816572Y-100005000D01*
X112804312Y-99880518D01*
X112768002Y-99760820D01*
X112759466Y-99744850D01*
X112852776Y-99694974D01*
X112968501Y-99600001D01*
X112992304Y-99570997D01*
X114811003Y-97752299D01*
X114840001Y-97728501D01*
X114934974Y-97612776D01*
X115005546Y-97480747D01*
X115049003Y-97337486D01*
X115060000Y-97225833D01*
X115060000Y-97225825D01*
X115063676Y-97188500D01*
X115060000Y-97151175D01*
X115060000Y-96845000D01*
X115439428Y-96845000D01*
X115451688Y-96969482D01*
X115487998Y-97089180D01*
X115523180Y-97155000D01*
X115487998Y-97220820D01*
X115451688Y-97340518D01*
X115439428Y-97465000D01*
X115442500Y-97504250D01*
X115601250Y-97663000D01*
X116713000Y-97663000D01*
X116713000Y-96647000D01*
X115601250Y-96647000D01*
X115442500Y-96805750D01*
X115439428Y-96845000D01*
X115060000Y-96845000D01*
X115060000Y-95575000D01*
X115439428Y-95575000D01*
X115451688Y-95699482D01*
X115487998Y-95819180D01*
X115523180Y-95885000D01*
X115487998Y-95950820D01*
X115451688Y-96070518D01*
X115439428Y-96195000D01*
X115442500Y-96234250D01*
X115601250Y-96393000D01*
X116713000Y-96393000D01*
X116713000Y-95377000D01*
X115601250Y-95377000D01*
X115442500Y-95535750D01*
X115439428Y-95575000D01*
X115060000Y-95575000D01*
X115060000Y-89572322D01*
X115063676Y-89534999D01*
X115060000Y-89497676D01*
X115060000Y-89497667D01*
X115049003Y-89386014D01*
X115005546Y-89242753D01*
X114934974Y-89110724D01*
X114840001Y-88994999D01*
X114811004Y-88971202D01*
X113275815Y-87436014D01*
X113275815Y-86648880D01*
X113263555Y-86524398D01*
X113227245Y-86404700D01*
X113197408Y-86348880D01*
X113227245Y-86293060D01*
X113263555Y-86173362D01*
X113275815Y-86048880D01*
X113272743Y-85834630D01*
X113113993Y-85675880D01*
X112039743Y-85675880D01*
X112039743Y-85695880D01*
X111785743Y-85695880D01*
X111785743Y-85675880D01*
X110711493Y-85675880D01*
X110552743Y-85834630D01*
X110549671Y-86048880D01*
X110561931Y-86173362D01*
X110598241Y-86293060D01*
X110628078Y-86348880D01*
X110598241Y-86404700D01*
X110561931Y-86524398D01*
X110549671Y-86648880D01*
X110549671Y-87648880D01*
X110561931Y-87773362D01*
X110598241Y-87893060D01*
X110657206Y-88003374D01*
X110736558Y-88100065D01*
X110833249Y-88179417D01*
X110943563Y-88238382D01*
X111063261Y-88274692D01*
X111187743Y-88286952D01*
X111977151Y-88286952D01*
X113540000Y-89849802D01*
X113540000Y-91805988D01*
X113520256Y-91792795D01*
X113331898Y-91714774D01*
X113131939Y-91675000D01*
X112928061Y-91675000D01*
X112728102Y-91714774D01*
X112539744Y-91792795D01*
X112485469Y-91829060D01*
X112422680Y-91795498D01*
X112302982Y-91759188D01*
X112178500Y-91746928D01*
X111527730Y-91746928D01*
X110709804Y-90929003D01*
X110686001Y-90899999D01*
X110570276Y-90805026D01*
X110438247Y-90734454D01*
X110294986Y-90690997D01*
X110183333Y-90680000D01*
X110183322Y-90680000D01*
X110146000Y-90676324D01*
X110108678Y-90680000D01*
X106831339Y-90680000D01*
X106773405Y-90571614D01*
X106662962Y-90437038D01*
X106528386Y-90326595D01*
X106374850Y-90244528D01*
X106208254Y-90193992D01*
X106035000Y-90176928D01*
X104785000Y-90176928D01*
X104611746Y-90193992D01*
X104445150Y-90244528D01*
X104291614Y-90326595D01*
X104157038Y-90437038D01*
X104046595Y-90571614D01*
X103964528Y-90725150D01*
X103913992Y-90891746D01*
X103896928Y-91065000D01*
X103896928Y-91652127D01*
X103630000Y-91385199D01*
X103630000Y-88294625D01*
X103719482Y-88285812D01*
X103839180Y-88249502D01*
X103949494Y-88190537D01*
X104046185Y-88111185D01*
X104125537Y-88014494D01*
X104184502Y-87904180D01*
X104220812Y-87784482D01*
X104233072Y-87660000D01*
X104233072Y-86660000D01*
X104220812Y-86535518D01*
X104184502Y-86415820D01*
X104154665Y-86360000D01*
X104184502Y-86304180D01*
X104220812Y-86184482D01*
X104233072Y-86060000D01*
X104230000Y-85845750D01*
X104071250Y-85687000D01*
X102997000Y-85687000D01*
X102997000Y-85707000D01*
X102743000Y-85707000D01*
X102743000Y-85687000D01*
X101668750Y-85687000D01*
X101510000Y-85845750D01*
X101506928Y-86060000D01*
X101519188Y-86184482D01*
X101555498Y-86304180D01*
X101585335Y-86360000D01*
X101555498Y-86415820D01*
X101519188Y-86535518D01*
X101506928Y-86660000D01*
X101506928Y-87660000D01*
X101519188Y-87784482D01*
X101555498Y-87904180D01*
X101614463Y-88014494D01*
X101693815Y-88111185D01*
X101790506Y-88190537D01*
X101900820Y-88249502D01*
X102020518Y-88285812D01*
X102110000Y-88294625D01*
X102110001Y-91662668D01*
X102106324Y-91700000D01*
X102110001Y-91737333D01*
X102120998Y-91848986D01*
X102125636Y-91864276D01*
X102164454Y-91992246D01*
X102235026Y-92124276D01*
X102297172Y-92200000D01*
X102330000Y-92240001D01*
X102358998Y-92263799D01*
X103902601Y-93807403D01*
X103896928Y-93865000D01*
X103896928Y-94615000D01*
X103913992Y-94788254D01*
X103964528Y-94954850D01*
X104046595Y-95108386D01*
X104157038Y-95242962D01*
X104291614Y-95353405D01*
X104445150Y-95435472D01*
X104611746Y-95486008D01*
X104785000Y-95503072D01*
X106035000Y-95503072D01*
X106208254Y-95486008D01*
X106374850Y-95435472D01*
X106528386Y-95353405D01*
X106662962Y-95242962D01*
X106773405Y-95108386D01*
X106831339Y-95000000D01*
X110054250Y-95000000D01*
X110177250Y-95123000D01*
X111289000Y-95123000D01*
X111289000Y-95103000D01*
X111543000Y-95103000D01*
X111543000Y-95123000D01*
X112654750Y-95123000D01*
X112813500Y-94964250D01*
X112816572Y-94925000D01*
X112804312Y-94800518D01*
X112768002Y-94680820D01*
X112732820Y-94615000D01*
X112768002Y-94549180D01*
X112804312Y-94429482D01*
X112816572Y-94305000D01*
X112816572Y-93722824D01*
X112928061Y-93745000D01*
X113131939Y-93745000D01*
X113331898Y-93705226D01*
X113520256Y-93627205D01*
X113540001Y-93614012D01*
X113540001Y-96873697D01*
X112750701Y-97662998D01*
X112654752Y-97662998D01*
X112813500Y-97504250D01*
X112816572Y-97465000D01*
X112804312Y-97340518D01*
X112768002Y-97220820D01*
X112732820Y-97155000D01*
X112768002Y-97089180D01*
X112804312Y-96969482D01*
X112816572Y-96845000D01*
X112816572Y-96195000D01*
X112804312Y-96070518D01*
X112768002Y-95950820D01*
X112732820Y-95885000D01*
X112768002Y-95819180D01*
X112804312Y-95699482D01*
X112816572Y-95575000D01*
X112813500Y-95535750D01*
X112654750Y-95377000D01*
X111543000Y-95377000D01*
X111543000Y-95397000D01*
X111289000Y-95397000D01*
X111289000Y-95377000D01*
X110177250Y-95377000D01*
X110018500Y-95535750D01*
X110015428Y-95575000D01*
X110021337Y-95635000D01*
X109758454Y-95635000D01*
X109710256Y-95602795D01*
X109521898Y-95524774D01*
X109321939Y-95485000D01*
X109118061Y-95485000D01*
X108918102Y-95524774D01*
X108729744Y-95602795D01*
X108560226Y-95716063D01*
X108416063Y-95860226D01*
X108302795Y-96029744D01*
X108224774Y-96218102D01*
X108185000Y-96418061D01*
X108185000Y-96621939D01*
X108224774Y-96821898D01*
X108302795Y-97010256D01*
X108416063Y-97179774D01*
X108560226Y-97323937D01*
X108729744Y-97437205D01*
X108918102Y-97515226D01*
X109118061Y-97555000D01*
X109321939Y-97555000D01*
X109521898Y-97515226D01*
X109710256Y-97437205D01*
X109758454Y-97405000D01*
X110021337Y-97405000D01*
X110015428Y-97465000D01*
X110018500Y-97504250D01*
X110177250Y-97663000D01*
X111289000Y-97663000D01*
X111289000Y-97643000D01*
X111543000Y-97643000D01*
X111543000Y-97663000D01*
X111563000Y-97663000D01*
X111563000Y-97917000D01*
X111543000Y-97917000D01*
X111543000Y-97937000D01*
X111289000Y-97937000D01*
X111289000Y-97917000D01*
X110177250Y-97917000D01*
X110018500Y-98075750D01*
X110015428Y-98115000D01*
X110027688Y-98239482D01*
X110046046Y-98300000D01*
X106881211Y-98300000D01*
X106855472Y-98215150D01*
X106773405Y-98061614D01*
X106662962Y-97927038D01*
X106528386Y-97816595D01*
X106374850Y-97734528D01*
X106208254Y-97683992D01*
X106035000Y-97666928D01*
X104785000Y-97666928D01*
X104611746Y-97683992D01*
X104445150Y-97734528D01*
X104291614Y-97816595D01*
X104157038Y-97927038D01*
X104046595Y-98061614D01*
X103964528Y-98215150D01*
X103913992Y-98381746D01*
X103896928Y-98555000D01*
X103896928Y-99305000D01*
X103913992Y-99478254D01*
X103964528Y-99644850D01*
X104046595Y-99798386D01*
X104157038Y-99932962D01*
X104291614Y-100043405D01*
X104445150Y-100125472D01*
X104611746Y-100176008D01*
X104785000Y-100193072D01*
X105872126Y-100193072D01*
X105598270Y-100466928D01*
X104785000Y-100466928D01*
X104611746Y-100483992D01*
X104445150Y-100534528D01*
X104291614Y-100616595D01*
X104157038Y-100727038D01*
X104046595Y-100861614D01*
X103964528Y-101015150D01*
X103913992Y-101181746D01*
X103896928Y-101355000D01*
X103896928Y-102105000D01*
X103913992Y-102278254D01*
X103964528Y-102444850D01*
X104046595Y-102598386D01*
X104157038Y-102732962D01*
X104169269Y-102743000D01*
X101092000Y-102743000D01*
X101092000Y-85060000D01*
X101506928Y-85060000D01*
X101510000Y-85274250D01*
X101668750Y-85433000D01*
X102743000Y-85433000D01*
X102743000Y-84583750D01*
X102997000Y-84583750D01*
X102997000Y-85433000D01*
X104071250Y-85433000D01*
X104230000Y-85274250D01*
X104233072Y-85060000D01*
X104231977Y-85048880D01*
X110549671Y-85048880D01*
X110552743Y-85263130D01*
X110711493Y-85421880D01*
X111785743Y-85421880D01*
X111785743Y-84572630D01*
X112039743Y-84572630D01*
X112039743Y-85421880D01*
X113113993Y-85421880D01*
X113272743Y-85263130D01*
X113275815Y-85048880D01*
X113263555Y-84924398D01*
X113227245Y-84804700D01*
X113168280Y-84694386D01*
X113088928Y-84597695D01*
X112992237Y-84518343D01*
X112881923Y-84459378D01*
X112762225Y-84423068D01*
X112637743Y-84410808D01*
X112198493Y-84413880D01*
X112039743Y-84572630D01*
X111785743Y-84572630D01*
X111626993Y-84413880D01*
X111187743Y-84410808D01*
X111063261Y-84423068D01*
X110943563Y-84459378D01*
X110833249Y-84518343D01*
X110736558Y-84597695D01*
X110657206Y-84694386D01*
X110598241Y-84804700D01*
X110561931Y-84924398D01*
X110549671Y-85048880D01*
X104231977Y-85048880D01*
X104220812Y-84935518D01*
X104184502Y-84815820D01*
X104125537Y-84705506D01*
X104046185Y-84608815D01*
X103949494Y-84529463D01*
X103839180Y-84470498D01*
X103719482Y-84434188D01*
X103595000Y-84421928D01*
X103155750Y-84425000D01*
X102997000Y-84583750D01*
X102743000Y-84583750D01*
X102584250Y-84425000D01*
X102145000Y-84421928D01*
X102020518Y-84434188D01*
X101900820Y-84470498D01*
X101790506Y-84529463D01*
X101693815Y-84608815D01*
X101614463Y-84705506D01*
X101555498Y-84815820D01*
X101519188Y-84935518D01*
X101506928Y-85060000D01*
X101092000Y-85060000D01*
X101092000Y-83947000D01*
X117983000Y-83947000D01*
X117983000Y-90593762D01*
G36*
X167513000Y-102743000D02*
G01*
X165070731Y-102743000D01*
X165082962Y-102732962D01*
X165193405Y-102598386D01*
X165275472Y-102444850D01*
X165326008Y-102278254D01*
X165343072Y-102105000D01*
X165343072Y-101355000D01*
X165326008Y-101181746D01*
X165275472Y-101015150D01*
X165193405Y-100861614D01*
X165082962Y-100727038D01*
X164948386Y-100616595D01*
X164794850Y-100534528D01*
X164628254Y-100483992D01*
X164455000Y-100466928D01*
X163205000Y-100466928D01*
X163031746Y-100483992D01*
X162865150Y-100534528D01*
X162711614Y-100616595D01*
X162577038Y-100727038D01*
X162466595Y-100861614D01*
X162408661Y-100970000D01*
X159366802Y-100970000D01*
X159052503Y-100655701D01*
X159052572Y-100655000D01*
X159052572Y-100005000D01*
X159040312Y-99880518D01*
X159004002Y-99760820D01*
X158968820Y-99695000D01*
X158971493Y-99690000D01*
X162408661Y-99690000D01*
X162466595Y-99798386D01*
X162577038Y-99932962D01*
X162711614Y-100043405D01*
X162865150Y-100125472D01*
X163031746Y-100176008D01*
X163205000Y-100193072D01*
X164455000Y-100193072D01*
X164628254Y-100176008D01*
X164794850Y-100125472D01*
X164948386Y-100043405D01*
X165082962Y-99932962D01*
X165193405Y-99798386D01*
X165275472Y-99644850D01*
X165326008Y-99478254D01*
X165343072Y-99305000D01*
X165343072Y-98555000D01*
X165337399Y-98497402D01*
X166411003Y-97423799D01*
X166440001Y-97400001D01*
X166466332Y-97367917D01*
X166534974Y-97284277D01*
X166605546Y-97152247D01*
X166624677Y-97089180D01*
X166649003Y-97008986D01*
X166660000Y-96897333D01*
X166660000Y-96897324D01*
X166663676Y-96860001D01*
X166660000Y-96822678D01*
X166660000Y-88294625D01*
X166749482Y-88285812D01*
X166869180Y-88249502D01*
X166979494Y-88190537D01*
X167076185Y-88111185D01*
X167155537Y-88014494D01*
X167214502Y-87904180D01*
X167250812Y-87784482D01*
X167263072Y-87660000D01*
X167263072Y-86660000D01*
X167250812Y-86535518D01*
X167214502Y-86415820D01*
X167184665Y-86360000D01*
X167214502Y-86304180D01*
X167250812Y-86184482D01*
X167263072Y-86060000D01*
X167260000Y-85845750D01*
X167101250Y-85687000D01*
X166027000Y-85687000D01*
X166027000Y-85707000D01*
X165773000Y-85707000D01*
X165773000Y-85687000D01*
X164698750Y-85687000D01*
X164540000Y-85845750D01*
X164536928Y-86060000D01*
X164549188Y-86184482D01*
X164585498Y-86304180D01*
X164615335Y-86360000D01*
X164585498Y-86415820D01*
X164549188Y-86535518D01*
X164536928Y-86660000D01*
X164536928Y-87660000D01*
X164549188Y-87784482D01*
X164585498Y-87904180D01*
X164644463Y-88014494D01*
X164723815Y-88111185D01*
X164820506Y-88190537D01*
X164930820Y-88249502D01*
X165050518Y-88285812D01*
X165140000Y-88294625D01*
X165140000Y-90584913D01*
X165063405Y-90441614D01*
X164952962Y-90307038D01*
X164818386Y-90196595D01*
X164664850Y-90114528D01*
X164498254Y-90063992D01*
X164325000Y-90046928D01*
X163075000Y-90046928D01*
X162901746Y-90063992D01*
X162735150Y-90114528D01*
X162581614Y-90196595D01*
X162447038Y-90307038D01*
X162336595Y-90441614D01*
X162254528Y-90595150D01*
X162203992Y-90761746D01*
X162186928Y-90935000D01*
X162186928Y-91685000D01*
X162192601Y-91742598D01*
X161985199Y-91950000D01*
X158878968Y-91950000D01*
X158865685Y-91933815D01*
X158768994Y-91854463D01*
X158658680Y-91795498D01*
X158538982Y-91759188D01*
X158520392Y-91757357D01*
X158605256Y-91722205D01*
X158774774Y-91608937D01*
X158918937Y-91464774D01*
X159032205Y-91295256D01*
X159110226Y-91106898D01*
X159150000Y-90906939D01*
X159150000Y-90703061D01*
X159110226Y-90503102D01*
X159032205Y-90314744D01*
X158918937Y-90145226D01*
X158774774Y-90001063D01*
X158605256Y-89887795D01*
X158416898Y-89809774D01*
X158216939Y-89770000D01*
X158013061Y-89770000D01*
X157813102Y-89809774D01*
X157624744Y-89887795D01*
X157455226Y-90001063D01*
X157324499Y-90131790D01*
X157324499Y-88345169D01*
X157593641Y-88345169D01*
X157718123Y-88332909D01*
X157837821Y-88296599D01*
X157948135Y-88237634D01*
X158044826Y-88158282D01*
X158124178Y-88061591D01*
X158183143Y-87951277D01*
X158219453Y-87831579D01*
X158231713Y-87707097D01*
X158231713Y-86707097D01*
X158219453Y-86582615D01*
X158183143Y-86462917D01*
X158153306Y-86407097D01*
X158183143Y-86351277D01*
X158219453Y-86231579D01*
X158231713Y-86107097D01*
X158228641Y-85892847D01*
X158069891Y-85734097D01*
X156995641Y-85734097D01*
X156995641Y-85754097D01*
X156741641Y-85754097D01*
X156741641Y-85734097D01*
X155667391Y-85734097D01*
X155508641Y-85892847D01*
X155505569Y-86107097D01*
X155517829Y-86231579D01*
X155554139Y-86351277D01*
X155583976Y-86407097D01*
X155554139Y-86462917D01*
X155517829Y-86582615D01*
X155505569Y-86707097D01*
X155505569Y-87707097D01*
X155517829Y-87831579D01*
X155554139Y-87951277D01*
X155613104Y-88061591D01*
X155692456Y-88158282D01*
X155789147Y-88237634D01*
X155804499Y-88245840D01*
X155804500Y-93867667D01*
X155800823Y-93904999D01*
X155815497Y-94053984D01*
X155858953Y-94197245D01*
X155929525Y-94329275D01*
X156000700Y-94416001D01*
X156024499Y-94445000D01*
X156053495Y-94468796D01*
X156075699Y-94491001D01*
X156099499Y-94520001D01*
X156215224Y-94614974D01*
X156308534Y-94664850D01*
X156299998Y-94680820D01*
X156263688Y-94800518D01*
X156251428Y-94925000D01*
X156254500Y-94964250D01*
X156413250Y-95123000D01*
X157525000Y-95123000D01*
X157525000Y-95103000D01*
X157779000Y-95103000D01*
X157779000Y-95123000D01*
X158890750Y-95123000D01*
X159049500Y-94964250D01*
X159052572Y-94925000D01*
X159040312Y-94800518D01*
X159021954Y-94740000D01*
X162228789Y-94740000D01*
X162254528Y-94824850D01*
X162336595Y-94978386D01*
X162447038Y-95112962D01*
X162581614Y-95223405D01*
X162735150Y-95305472D01*
X162901746Y-95356008D01*
X163075000Y-95373072D01*
X164325000Y-95373072D01*
X164498254Y-95356008D01*
X164664850Y-95305472D01*
X164818386Y-95223405D01*
X164952962Y-95112962D01*
X165063405Y-94978386D01*
X165140001Y-94835086D01*
X165140001Y-96545197D01*
X164018271Y-97666928D01*
X163205000Y-97666928D01*
X163031746Y-97683992D01*
X162865150Y-97734528D01*
X162711614Y-97816595D01*
X162577038Y-97927038D01*
X162466595Y-98061614D01*
X162408661Y-98170000D01*
X159047155Y-98170000D01*
X159052572Y-98115000D01*
X159049500Y-98075750D01*
X158890750Y-97917000D01*
X157779000Y-97917000D01*
X157779000Y-97937000D01*
X157525000Y-97937000D01*
X157525000Y-97917000D01*
X156413250Y-97917000D01*
X156254500Y-98075750D01*
X156251428Y-98115000D01*
X156263688Y-98239482D01*
X156299998Y-98359180D01*
X156335180Y-98425000D01*
X156299998Y-98490820D01*
X156263688Y-98610518D01*
X156251428Y-98735000D01*
X156251428Y-99385000D01*
X156263688Y-99509482D01*
X156299998Y-99629180D01*
X156335180Y-99695000D01*
X156299998Y-99760820D01*
X156263688Y-99880518D01*
X156251428Y-100005000D01*
X156251428Y-100483771D01*
X156170199Y-100565000D01*
X156108061Y-100565000D01*
X155908102Y-100604774D01*
X155719744Y-100682795D01*
X155550226Y-100796063D01*
X155406063Y-100940226D01*
X155292795Y-101109744D01*
X155214774Y-101298102D01*
X155175000Y-101498061D01*
X155175000Y-101701939D01*
X155214774Y-101901898D01*
X155292795Y-102090256D01*
X155406063Y-102259774D01*
X155550226Y-102403937D01*
X155719744Y-102517205D01*
X155908102Y-102595226D01*
X156108061Y-102635000D01*
X156311939Y-102635000D01*
X156511898Y-102595226D01*
X156700256Y-102517205D01*
X156869774Y-102403937D01*
X157013937Y-102259774D01*
X157127205Y-102090256D01*
X157205226Y-101901898D01*
X157245000Y-101701939D01*
X157245000Y-101639801D01*
X157566000Y-101318801D01*
X158488201Y-102241003D01*
X158511999Y-102270001D01*
X158540997Y-102293799D01*
X158627723Y-102364974D01*
X158759753Y-102435546D01*
X158903014Y-102479003D01*
X159014667Y-102490000D01*
X159014677Y-102490000D01*
X159052000Y-102493676D01*
X159089322Y-102490000D01*
X162408661Y-102490000D01*
X162466595Y-102598386D01*
X162577038Y-102732962D01*
X162589269Y-102743000D01*
X151257000Y-102743000D01*
X151257000Y-101255325D01*
X151341018Y-101280812D01*
X151465500Y-101293072D01*
X152990500Y-101293072D01*
X153114982Y-101280812D01*
X153234680Y-101244502D01*
X153344994Y-101185537D01*
X153441685Y-101106185D01*
X153521037Y-101009494D01*
X153580002Y-100899180D01*
X153616312Y-100779482D01*
X153628572Y-100655000D01*
X153628572Y-100005000D01*
X153616312Y-99880518D01*
X153580002Y-99760820D01*
X153571466Y-99744850D01*
X153664776Y-99694974D01*
X153780501Y-99600001D01*
X153804302Y-99571000D01*
X153826502Y-99548800D01*
X153855502Y-99525000D01*
X153950475Y-99409275D01*
X154021047Y-99277246D01*
X154064504Y-99133985D01*
X154075501Y-99022332D01*
X154075501Y-99022322D01*
X154079177Y-98985000D01*
X154075501Y-98947677D01*
X154075501Y-96845000D01*
X156251428Y-96845000D01*
X156263688Y-96969482D01*
X156299998Y-97089180D01*
X156335180Y-97155000D01*
X156299998Y-97220820D01*
X156263688Y-97340518D01*
X156251428Y-97465000D01*
X156254500Y-97504250D01*
X156413250Y-97663000D01*
X157525000Y-97663000D01*
X157525000Y-96647000D01*
X157779000Y-96647000D01*
X157779000Y-97663000D01*
X158890750Y-97663000D01*
X159049500Y-97504250D01*
X159052572Y-97465000D01*
X159040312Y-97340518D01*
X159004002Y-97220820D01*
X158968820Y-97155000D01*
X159004002Y-97089180D01*
X159040312Y-96969482D01*
X159052572Y-96845000D01*
X159049500Y-96805750D01*
X158890750Y-96647000D01*
X157779000Y-96647000D01*
X157525000Y-96647000D01*
X156413250Y-96647000D01*
X156254500Y-96805750D01*
X156251428Y-96845000D01*
X154075501Y-96845000D01*
X154075501Y-95575000D01*
X156251428Y-95575000D01*
X156263688Y-95699482D01*
X156299998Y-95819180D01*
X156335180Y-95885000D01*
X156299998Y-95950820D01*
X156263688Y-96070518D01*
X156251428Y-96195000D01*
X156254500Y-96234250D01*
X156413250Y-96393000D01*
X157525000Y-96393000D01*
X157525000Y-95377000D01*
X157779000Y-95377000D01*
X157779000Y-96393000D01*
X158890750Y-96393000D01*
X159049500Y-96234250D01*
X159052572Y-96195000D01*
X159040312Y-96070518D01*
X159004002Y-95950820D01*
X158968820Y-95885000D01*
X159004002Y-95819180D01*
X159040312Y-95699482D01*
X159052572Y-95575000D01*
X159049500Y-95535750D01*
X158890750Y-95377000D01*
X157779000Y-95377000D01*
X157525000Y-95377000D01*
X156413250Y-95377000D01*
X156254500Y-95535750D01*
X156251428Y-95575000D01*
X154075501Y-95575000D01*
X154075501Y-91602024D01*
X154079177Y-91564701D01*
X154075501Y-91527378D01*
X154075501Y-91527369D01*
X154064504Y-91415716D01*
X154021047Y-91272455D01*
X153950475Y-91140426D01*
X153937312Y-91124387D01*
X153879300Y-91053698D01*
X153879296Y-91053694D01*
X153855502Y-91024701D01*
X153826510Y-91000908D01*
X151257000Y-88431399D01*
X151257000Y-85107097D01*
X155505569Y-85107097D01*
X155508641Y-85321347D01*
X155667391Y-85480097D01*
X156741641Y-85480097D01*
X156741641Y-84630847D01*
X156995641Y-84630847D01*
X156995641Y-85480097D01*
X158069891Y-85480097D01*
X158228641Y-85321347D01*
X158231713Y-85107097D01*
X158227075Y-85060000D01*
X164536928Y-85060000D01*
X164540000Y-85274250D01*
X164698750Y-85433000D01*
X165773000Y-85433000D01*
X165773000Y-84583750D01*
X166027000Y-84583750D01*
X166027000Y-85433000D01*
X167101250Y-85433000D01*
X167260000Y-85274250D01*
X167263072Y-85060000D01*
X167250812Y-84935518D01*
X167214502Y-84815820D01*
X167155537Y-84705506D01*
X167076185Y-84608815D01*
X166979494Y-84529463D01*
X166869180Y-84470498D01*
X166749482Y-84434188D01*
X166625000Y-84421928D01*
X166185750Y-84425000D01*
X166027000Y-84583750D01*
X165773000Y-84583750D01*
X165614250Y-84425000D01*
X165175000Y-84421928D01*
X165050518Y-84434188D01*
X164930820Y-84470498D01*
X164820506Y-84529463D01*
X164723815Y-84608815D01*
X164644463Y-84705506D01*
X164585498Y-84815820D01*
X164549188Y-84935518D01*
X164536928Y-85060000D01*
X158227075Y-85060000D01*
X158219453Y-84982615D01*
X158183143Y-84862917D01*
X158124178Y-84752603D01*
X158044826Y-84655912D01*
X157948135Y-84576560D01*
X157837821Y-84517595D01*
X157718123Y-84481285D01*
X157593641Y-84469025D01*
X157154391Y-84472097D01*
X156995641Y-84630847D01*
X156741641Y-84630847D01*
X156582891Y-84472097D01*
X156143641Y-84469025D01*
X156019159Y-84481285D01*
X155899461Y-84517595D01*
X155789147Y-84576560D01*
X155692456Y-84655912D01*
X155613104Y-84752603D01*
X155554139Y-84862917D01*
X155517829Y-84982615D01*
X155505569Y-85107097D01*
X151257000Y-85107097D01*
X151257000Y-83947000D01*
X167513000Y-83947000D01*
X167513000Y-102743000D01*
G37*
X167513000Y-102743000D02*
X165070731Y-102743000D01*
X165082962Y-102732962D01*
X165193405Y-102598386D01*
X165275472Y-102444850D01*
X165326008Y-102278254D01*
X165343072Y-102105000D01*
X165343072Y-101355000D01*
X165326008Y-101181746D01*
X165275472Y-101015150D01*
X165193405Y-100861614D01*
X165082962Y-100727038D01*
X164948386Y-100616595D01*
X164794850Y-100534528D01*
X164628254Y-100483992D01*
X164455000Y-100466928D01*
X163205000Y-100466928D01*
X163031746Y-100483992D01*
X162865150Y-100534528D01*
X162711614Y-100616595D01*
X162577038Y-100727038D01*
X162466595Y-100861614D01*
X162408661Y-100970000D01*
X159366802Y-100970000D01*
X159052503Y-100655701D01*
X159052572Y-100655000D01*
X159052572Y-100005000D01*
X159040312Y-99880518D01*
X159004002Y-99760820D01*
X158968820Y-99695000D01*
X158971493Y-99690000D01*
X162408661Y-99690000D01*
X162466595Y-99798386D01*
X162577038Y-99932962D01*
X162711614Y-100043405D01*
X162865150Y-100125472D01*
X163031746Y-100176008D01*
X163205000Y-100193072D01*
X164455000Y-100193072D01*
X164628254Y-100176008D01*
X164794850Y-100125472D01*
X164948386Y-100043405D01*
X165082962Y-99932962D01*
X165193405Y-99798386D01*
X165275472Y-99644850D01*
X165326008Y-99478254D01*
X165343072Y-99305000D01*
X165343072Y-98555000D01*
X165337399Y-98497402D01*
X166411003Y-97423799D01*
X166440001Y-97400001D01*
X166466332Y-97367917D01*
X166534974Y-97284277D01*
X166605546Y-97152247D01*
X166624677Y-97089180D01*
X166649003Y-97008986D01*
X166660000Y-96897333D01*
X166660000Y-96897324D01*
X166663676Y-96860001D01*
X166660000Y-96822678D01*
X166660000Y-88294625D01*
X166749482Y-88285812D01*
X166869180Y-88249502D01*
X166979494Y-88190537D01*
X167076185Y-88111185D01*
X167155537Y-88014494D01*
X167214502Y-87904180D01*
X167250812Y-87784482D01*
X167263072Y-87660000D01*
X167263072Y-86660000D01*
X167250812Y-86535518D01*
X167214502Y-86415820D01*
X167184665Y-86360000D01*
X167214502Y-86304180D01*
X167250812Y-86184482D01*
X167263072Y-86060000D01*
X167260000Y-85845750D01*
X167101250Y-85687000D01*
X166027000Y-85687000D01*
X166027000Y-85707000D01*
X165773000Y-85707000D01*
X165773000Y-85687000D01*
X164698750Y-85687000D01*
X164540000Y-85845750D01*
X164536928Y-86060000D01*
X164549188Y-86184482D01*
X164585498Y-86304180D01*
X164615335Y-86360000D01*
X164585498Y-86415820D01*
X164549188Y-86535518D01*
X164536928Y-86660000D01*
X164536928Y-87660000D01*
X164549188Y-87784482D01*
X164585498Y-87904180D01*
X164644463Y-88014494D01*
X164723815Y-88111185D01*
X164820506Y-88190537D01*
X164930820Y-88249502D01*
X165050518Y-88285812D01*
X165140000Y-88294625D01*
X165140000Y-90584913D01*
X165063405Y-90441614D01*
X164952962Y-90307038D01*
X164818386Y-90196595D01*
X164664850Y-90114528D01*
X164498254Y-90063992D01*
X164325000Y-90046928D01*
X163075000Y-90046928D01*
X162901746Y-90063992D01*
X162735150Y-90114528D01*
X162581614Y-90196595D01*
X162447038Y-90307038D01*
X162336595Y-90441614D01*
X162254528Y-90595150D01*
X162203992Y-90761746D01*
X162186928Y-90935000D01*
X162186928Y-91685000D01*
X162192601Y-91742598D01*
X161985199Y-91950000D01*
X158878968Y-91950000D01*
X158865685Y-91933815D01*
X158768994Y-91854463D01*
X158658680Y-91795498D01*
X158538982Y-91759188D01*
X158520392Y-91757357D01*
X158605256Y-91722205D01*
X158774774Y-91608937D01*
X158918937Y-91464774D01*
X159032205Y-91295256D01*
X159110226Y-91106898D01*
X159150000Y-90906939D01*
X159150000Y-90703061D01*
X159110226Y-90503102D01*
X159032205Y-90314744D01*
X158918937Y-90145226D01*
X158774774Y-90001063D01*
X158605256Y-89887795D01*
X158416898Y-89809774D01*
X158216939Y-89770000D01*
X158013061Y-89770000D01*
X157813102Y-89809774D01*
X157624744Y-89887795D01*
X157455226Y-90001063D01*
X157324499Y-90131790D01*
X157324499Y-88345169D01*
X157593641Y-88345169D01*
X157718123Y-88332909D01*
X157837821Y-88296599D01*
X157948135Y-88237634D01*
X158044826Y-88158282D01*
X158124178Y-88061591D01*
X158183143Y-87951277D01*
X158219453Y-87831579D01*
X158231713Y-87707097D01*
X158231713Y-86707097D01*
X158219453Y-86582615D01*
X158183143Y-86462917D01*
X158153306Y-86407097D01*
X158183143Y-86351277D01*
X158219453Y-86231579D01*
X158231713Y-86107097D01*
X158228641Y-85892847D01*
X158069891Y-85734097D01*
X156995641Y-85734097D01*
X156995641Y-85754097D01*
X156741641Y-85754097D01*
X156741641Y-85734097D01*
X155667391Y-85734097D01*
X155508641Y-85892847D01*
X155505569Y-86107097D01*
X155517829Y-86231579D01*
X155554139Y-86351277D01*
X155583976Y-86407097D01*
X155554139Y-86462917D01*
X155517829Y-86582615D01*
X155505569Y-86707097D01*
X155505569Y-87707097D01*
X155517829Y-87831579D01*
X155554139Y-87951277D01*
X155613104Y-88061591D01*
X155692456Y-88158282D01*
X155789147Y-88237634D01*
X155804499Y-88245840D01*
X155804500Y-93867667D01*
X155800823Y-93904999D01*
X155815497Y-94053984D01*
X155858953Y-94197245D01*
X155929525Y-94329275D01*
X156000700Y-94416001D01*
X156024499Y-94445000D01*
X156053495Y-94468796D01*
X156075699Y-94491001D01*
X156099499Y-94520001D01*
X156215224Y-94614974D01*
X156308534Y-94664850D01*
X156299998Y-94680820D01*
X156263688Y-94800518D01*
X156251428Y-94925000D01*
X156254500Y-94964250D01*
X156413250Y-95123000D01*
X157525000Y-95123000D01*
X157525000Y-95103000D01*
X157779000Y-95103000D01*
X157779000Y-95123000D01*
X158890750Y-95123000D01*
X159049500Y-94964250D01*
X159052572Y-94925000D01*
X159040312Y-94800518D01*
X159021954Y-94740000D01*
X162228789Y-94740000D01*
X162254528Y-94824850D01*
X162336595Y-94978386D01*
X162447038Y-95112962D01*
X162581614Y-95223405D01*
X162735150Y-95305472D01*
X162901746Y-95356008D01*
X163075000Y-95373072D01*
X164325000Y-95373072D01*
X164498254Y-95356008D01*
X164664850Y-95305472D01*
X164818386Y-95223405D01*
X164952962Y-95112962D01*
X165063405Y-94978386D01*
X165140001Y-94835086D01*
X165140001Y-96545197D01*
X164018271Y-97666928D01*
X163205000Y-97666928D01*
X163031746Y-97683992D01*
X162865150Y-97734528D01*
X162711614Y-97816595D01*
X162577038Y-97927038D01*
X162466595Y-98061614D01*
X162408661Y-98170000D01*
X159047155Y-98170000D01*
X159052572Y-98115000D01*
X159049500Y-98075750D01*
X158890750Y-97917000D01*
X157779000Y-97917000D01*
X157779000Y-97937000D01*
X157525000Y-97937000D01*
X157525000Y-97917000D01*
X156413250Y-97917000D01*
X156254500Y-98075750D01*
X156251428Y-98115000D01*
X156263688Y-98239482D01*
X156299998Y-98359180D01*
X156335180Y-98425000D01*
X156299998Y-98490820D01*
X156263688Y-98610518D01*
X156251428Y-98735000D01*
X156251428Y-99385000D01*
X156263688Y-99509482D01*
X156299998Y-99629180D01*
X156335180Y-99695000D01*
X156299998Y-99760820D01*
X156263688Y-99880518D01*
X156251428Y-100005000D01*
X156251428Y-100483771D01*
X156170199Y-100565000D01*
X156108061Y-100565000D01*
X155908102Y-100604774D01*
X155719744Y-100682795D01*
X155550226Y-100796063D01*
X155406063Y-100940226D01*
X155292795Y-101109744D01*
X155214774Y-101298102D01*
X155175000Y-101498061D01*
X155175000Y-101701939D01*
X155214774Y-101901898D01*
X155292795Y-102090256D01*
X155406063Y-102259774D01*
X155550226Y-102403937D01*
X155719744Y-102517205D01*
X155908102Y-102595226D01*
X156108061Y-102635000D01*
X156311939Y-102635000D01*
X156511898Y-102595226D01*
X156700256Y-102517205D01*
X156869774Y-102403937D01*
X157013937Y-102259774D01*
X157127205Y-102090256D01*
X157205226Y-101901898D01*
X157245000Y-101701939D01*
X157245000Y-101639801D01*
X157566000Y-101318801D01*
X158488201Y-102241003D01*
X158511999Y-102270001D01*
X158540997Y-102293799D01*
X158627723Y-102364974D01*
X158759753Y-102435546D01*
X158903014Y-102479003D01*
X159014667Y-102490000D01*
X159014677Y-102490000D01*
X159052000Y-102493676D01*
X159089322Y-102490000D01*
X162408661Y-102490000D01*
X162466595Y-102598386D01*
X162577038Y-102732962D01*
X162589269Y-102743000D01*
X151257000Y-102743000D01*
X151257000Y-101255325D01*
X151341018Y-101280812D01*
X151465500Y-101293072D01*
X152990500Y-101293072D01*
X153114982Y-101280812D01*
X153234680Y-101244502D01*
X153344994Y-101185537D01*
X153441685Y-101106185D01*
X153521037Y-101009494D01*
X153580002Y-100899180D01*
X153616312Y-100779482D01*
X153628572Y-100655000D01*
X153628572Y-100005000D01*
X153616312Y-99880518D01*
X153580002Y-99760820D01*
X153571466Y-99744850D01*
X153664776Y-99694974D01*
X153780501Y-99600001D01*
X153804302Y-99571000D01*
X153826502Y-99548800D01*
X153855502Y-99525000D01*
X153950475Y-99409275D01*
X154021047Y-99277246D01*
X154064504Y-99133985D01*
X154075501Y-99022332D01*
X154075501Y-99022322D01*
X154079177Y-98985000D01*
X154075501Y-98947677D01*
X154075501Y-96845000D01*
X156251428Y-96845000D01*
X156263688Y-96969482D01*
X156299998Y-97089180D01*
X156335180Y-97155000D01*
X156299998Y-97220820D01*
X156263688Y-97340518D01*
X156251428Y-97465000D01*
X156254500Y-97504250D01*
X156413250Y-97663000D01*
X157525000Y-97663000D01*
X157525000Y-96647000D01*
X157779000Y-96647000D01*
X157779000Y-97663000D01*
X158890750Y-97663000D01*
X159049500Y-97504250D01*
X159052572Y-97465000D01*
X159040312Y-97340518D01*
X159004002Y-97220820D01*
X158968820Y-97155000D01*
X159004002Y-97089180D01*
X159040312Y-96969482D01*
X159052572Y-96845000D01*
X159049500Y-96805750D01*
X158890750Y-96647000D01*
X157779000Y-96647000D01*
X157525000Y-96647000D01*
X156413250Y-96647000D01*
X156254500Y-96805750D01*
X156251428Y-96845000D01*
X154075501Y-96845000D01*
X154075501Y-95575000D01*
X156251428Y-95575000D01*
X156263688Y-95699482D01*
X156299998Y-95819180D01*
X156335180Y-95885000D01*
X156299998Y-95950820D01*
X156263688Y-96070518D01*
X156251428Y-96195000D01*
X156254500Y-96234250D01*
X156413250Y-96393000D01*
X157525000Y-96393000D01*
X157525000Y-95377000D01*
X157779000Y-95377000D01*
X157779000Y-96393000D01*
X158890750Y-96393000D01*
X159049500Y-96234250D01*
X159052572Y-96195000D01*
X159040312Y-96070518D01*
X159004002Y-95950820D01*
X158968820Y-95885000D01*
X159004002Y-95819180D01*
X159040312Y-95699482D01*
X159052572Y-95575000D01*
X159049500Y-95535750D01*
X158890750Y-95377000D01*
X157779000Y-95377000D01*
X157525000Y-95377000D01*
X156413250Y-95377000D01*
X156254500Y-95535750D01*
X156251428Y-95575000D01*
X154075501Y-95575000D01*
X154075501Y-91602024D01*
X154079177Y-91564701D01*
X154075501Y-91527378D01*
X154075501Y-91527369D01*
X154064504Y-91415716D01*
X154021047Y-91272455D01*
X153950475Y-91140426D01*
X153937312Y-91124387D01*
X153879300Y-91053698D01*
X153879296Y-91053694D01*
X153855502Y-91024701D01*
X153826510Y-91000908D01*
X151257000Y-88431399D01*
X151257000Y-85107097D01*
X155505569Y-85107097D01*
X155508641Y-85321347D01*
X155667391Y-85480097D01*
X156741641Y-85480097D01*
X156741641Y-84630847D01*
X156995641Y-84630847D01*
X156995641Y-85480097D01*
X158069891Y-85480097D01*
X158228641Y-85321347D01*
X158231713Y-85107097D01*
X158227075Y-85060000D01*
X164536928Y-85060000D01*
X164540000Y-85274250D01*
X164698750Y-85433000D01*
X165773000Y-85433000D01*
X165773000Y-84583750D01*
X166027000Y-84583750D01*
X166027000Y-85433000D01*
X167101250Y-85433000D01*
X167260000Y-85274250D01*
X167263072Y-85060000D01*
X167250812Y-84935518D01*
X167214502Y-84815820D01*
X167155537Y-84705506D01*
X167076185Y-84608815D01*
X166979494Y-84529463D01*
X166869180Y-84470498D01*
X166749482Y-84434188D01*
X166625000Y-84421928D01*
X166185750Y-84425000D01*
X166027000Y-84583750D01*
X165773000Y-84583750D01*
X165614250Y-84425000D01*
X165175000Y-84421928D01*
X165050518Y-84434188D01*
X164930820Y-84470498D01*
X164820506Y-84529463D01*
X164723815Y-84608815D01*
X164644463Y-84705506D01*
X164585498Y-84815820D01*
X164549188Y-84935518D01*
X164536928Y-85060000D01*
X158227075Y-85060000D01*
X158219453Y-84982615D01*
X158183143Y-84862917D01*
X158124178Y-84752603D01*
X158044826Y-84655912D01*
X157948135Y-84576560D01*
X157837821Y-84517595D01*
X157718123Y-84481285D01*
X157593641Y-84469025D01*
X157154391Y-84472097D01*
X156995641Y-84630847D01*
X156741641Y-84630847D01*
X156582891Y-84472097D01*
X156143641Y-84469025D01*
X156019159Y-84481285D01*
X155899461Y-84517595D01*
X155789147Y-84576560D01*
X155692456Y-84655912D01*
X155613104Y-84752603D01*
X155554139Y-84862917D01*
X155517829Y-84982615D01*
X155505569Y-85107097D01*
X151257000Y-85107097D01*
X151257000Y-83947000D01*
X167513000Y-83947000D01*
X167513000Y-102743000D01*
G36*
X152355000Y-97663000D02*
G01*
X152375000Y-97663000D01*
X152375000Y-97917000D01*
X152355000Y-97917000D01*
X152355000Y-97937000D01*
X152101000Y-97937000D01*
X152101000Y-97917000D01*
X152081000Y-97917000D01*
X152081000Y-97663000D01*
X152101000Y-97663000D01*
X152101000Y-97643000D01*
X152355000Y-97643000D01*
X152355000Y-97663000D01*
G37*
X152355000Y-97663000D02*
X152375000Y-97663000D01*
X152375000Y-97917000D01*
X152355000Y-97917000D01*
X152355000Y-97937000D01*
X152101000Y-97937000D01*
X152101000Y-97917000D01*
X152081000Y-97917000D01*
X152081000Y-97663000D01*
X152101000Y-97663000D01*
X152101000Y-97643000D01*
X152355000Y-97643000D01*
X152355000Y-97663000D01*
G36*
X152355000Y-95123000D02*
G01*
X152375000Y-95123000D01*
X152375000Y-95377000D01*
X152355000Y-95377000D01*
X152355000Y-95397000D01*
X152101000Y-95397000D01*
X152101000Y-95377000D01*
X152081000Y-95377000D01*
X152081000Y-95123000D01*
X152101000Y-95123000D01*
X152101000Y-95103000D01*
X152355000Y-95103000D01*
X152355000Y-95123000D01*
G37*
X152355000Y-95123000D02*
X152375000Y-95123000D01*
X152375000Y-95377000D01*
X152355000Y-95377000D01*
X152355000Y-95397000D01*
X152101000Y-95397000D01*
X152101000Y-95377000D01*
X152081000Y-95377000D01*
X152081000Y-95123000D01*
X152101000Y-95123000D01*
X152101000Y-95103000D01*
X152355000Y-95103000D01*
X152355000Y-95123000D01*
G36*
X135763000Y-92778230D02*
G01*
X135739180Y-92765498D01*
X135619482Y-92729188D01*
X135495000Y-92716928D01*
X134905750Y-92720000D01*
X134747000Y-92878750D01*
X134747000Y-93853000D01*
X134767000Y-93853000D01*
X134767000Y-94107000D01*
X134747000Y-94107000D01*
X134747000Y-94127000D01*
X134493000Y-94127000D01*
X134493000Y-94107000D01*
X134473000Y-94107000D01*
X134473000Y-93853000D01*
X134493000Y-93853000D01*
X134493000Y-92878750D01*
X134334250Y-92720000D01*
X133745000Y-92716928D01*
X133620518Y-92729188D01*
X133500820Y-92765498D01*
X133477000Y-92778230D01*
X133477000Y-85852000D01*
X135763000Y-85852000D01*
X135763000Y-92778230D01*
G37*
X135763000Y-92778230D02*
X135739180Y-92765498D01*
X135619482Y-92729188D01*
X135495000Y-92716928D01*
X134905750Y-92720000D01*
X134747000Y-92878750D01*
X134747000Y-93853000D01*
X134767000Y-93853000D01*
X134767000Y-94107000D01*
X134747000Y-94107000D01*
X134747000Y-94127000D01*
X134493000Y-94127000D01*
X134493000Y-94107000D01*
X134473000Y-94107000D01*
X134473000Y-93853000D01*
X134493000Y-93853000D01*
X134493000Y-92878750D01*
X134334250Y-92720000D01*
X133745000Y-92716928D01*
X133620518Y-92729188D01*
X133500820Y-92765498D01*
X133477000Y-92778230D01*
X133477000Y-85852000D01*
X135763000Y-85852000D01*
X135763000Y-92778230D01*
%TD*%
M02*
