M48
; DRILL file {KiCad (5.1.6)-1} date 11/25/20 02:53:33
; FORMAT={-:-/ absolute / inch / decimal}
; #@! TF.CreationDate,2020-11-25T02:53:33+01:00
; #@! TF.GenerationSoftware,Kicad,Pcbnew,(5.1.6)-1
FMAT,2
INCH
T1C0.0157
T2C0.0394
T3C0.1181
%
G90
G05
T1
X4.3Y-3.8
X4.425Y-4.0
X4.45Y-3.65
X4.875Y-3.575
X5.0752Y-3.9248
X5.175Y-3.6
X5.175Y-3.775
X5.1757Y-3.9493
X5.225Y-3.775
X5.275Y-3.9
X5.3534Y-3.7534
X5.4Y-3.6
X5.4508Y-3.7242
X5.525Y-3.625
X5.5627Y-3.8127
X5.6Y-3.625
X5.625Y-3.8
X5.625Y-3.8
X5.65Y-3.55
X6.15Y-4.0
X6.225Y-3.575
T2
X5.15Y-4.25
X5.25Y-4.25
X5.35Y-4.25
X5.45Y-4.25
T3
X6.79Y-3.9595
X3.7883Y-3.96
X6.7898Y-3.4001
X3.791Y-3.4002
T0
M30
