M48
; DRILL file {KiCad (5.1.6)-1} date 11/25/20 02:59:14
; FORMAT={-:-/ absolute / inch / decimal}
; #@! TF.CreationDate,2020-11-25T02:59:14+01:00
; #@! TF.GenerationSoftware,Kicad,Pcbnew,(5.1.6)-1
FMAT,2
INCH
T1C0.0157
T2C0.0394
T3C0.0433
T4C0.0512
T5C0.0598
T6C0.1181
%
G90
G05
T1
X3.975Y-3.575
X3.975Y-3.75
X4.6Y-4.55
X4.625Y-4.425
X4.7Y-4.075
X5.05Y-4.15
X5.325Y-4.125
X5.35Y-4.375
X5.425Y-3.75
X5.425Y-3.9
X5.45Y-4.15
X5.625Y-4.15
X5.75Y-3.875
X5.75Y-4.15
X6.125Y-3.95
X6.375Y-3.95
T2
X4.35Y-4.0
X4.45Y-4.0
X5.1488Y-4.2436
X5.2488Y-4.2436
X5.3488Y-4.2436
X5.4488Y-4.2436
X5.0459Y-3.6747
X5.1459Y-3.6747
X6.4605Y-3.675
X6.5605Y-3.675
X4.35Y-4.15
X4.45Y-4.15
X5.75Y-3.675
X5.85Y-3.675
X5.4Y-3.675
X5.5Y-3.675
X3.975Y-3.675
X4.075Y-3.675
X6.1Y-3.675
X6.2Y-3.675
X4.325Y-3.675
X4.425Y-3.675
X4.35Y-3.85
X4.45Y-3.85
X4.6907Y-3.6747
X4.7907Y-3.6747
X4.9Y-4.5
X5.0Y-4.5
X5.1Y-4.5
X5.2Y-4.5
X5.3Y-4.5
X5.4Y-4.5
X5.5Y-4.5
X5.6Y-4.5
X5.7Y-4.5
X4.65Y-4.0
X4.75Y-4.0
T3
X6.05Y-4.3
X6.05Y-4.4
X6.05Y-4.5
T4
X3.9563Y-4.4316
X4.35Y-4.3331
X4.35Y-4.53
T5
X6.45Y-4.325
X6.45Y-4.525
T6
X3.7849Y-3.9585
X6.7858Y-3.9595
T0
M30
