%TF.GenerationSoftware,KiCad,Pcbnew,(5.1.6)-1*%
%TF.CreationDate,2020-11-25T02:59:11+01:00*%
%TF.ProjectId,heater_led_tempSensor_board,68656174-6572-45f6-9c65-645f74656d70,rev?*%
%TF.SameCoordinates,Original*%
%TF.FileFunction,Soldermask,Bot*%
%TF.FilePolarity,Negative*%
%FSLAX46Y46*%
G04 Gerber Fmt 4.6, Leading zero omitted, Abs format (unit mm)*
G04 Created by KiCad (PCBNEW (5.1.6)-1) date 2020-11-25 02:59:11*
%MOMM*%
%LPD*%
G01*
G04 APERTURE LIST*
%ADD10O,1.800000X1.800000*%
%ADD11R,1.800000X1.800000*%
%ADD12C,3.100000*%
%ADD13R,3.100000X3.100000*%
%ADD14C,2.440000*%
%ADD15O,2.100000X2.005000*%
%ADD16R,2.100000X2.005000*%
G04 APERTURE END LIST*
D10*
%TO.C,TH3*%
X110490000Y-101600000D03*
D11*
X113030000Y-101600000D03*
%TD*%
D10*
%TO.C,TH2*%
X110490000Y-105410000D03*
D11*
X113030000Y-105410000D03*
%TD*%
D10*
%TO.C,TH1*%
X118110000Y-101600000D03*
D11*
X120650000Y-101600000D03*
%TD*%
D12*
%TO.C,J3*%
X163830000Y-114935000D03*
D13*
X163830000Y-109855000D03*
%TD*%
D11*
%TO.C,TH4*%
X113030000Y-97790000D03*
D10*
X110490000Y-97790000D03*
%TD*%
D12*
%TO.C,REF\u002A\u002A*%
X172358637Y-100571805D03*
%TD*%
%TO.C,REF\u002A\u002A*%
X96137415Y-100545203D03*
%TD*%
D14*
%TO.C,R1*%
X110490000Y-110061398D03*
X100490000Y-112561398D03*
X110490000Y-115061398D03*
%TD*%
D15*
%TO.C,Q1*%
X153670000Y-109220000D03*
X153670000Y-111760000D03*
D16*
X153670000Y-114300000D03*
%TD*%
D10*
%TO.C,J2*%
X144780000Y-114300000D03*
X142240000Y-114300000D03*
X139700000Y-114300000D03*
X137160000Y-114300000D03*
X134620000Y-114300000D03*
X132080000Y-114300000D03*
X129540000Y-114300000D03*
X127000000Y-114300000D03*
D11*
X124460000Y-114300000D03*
%TD*%
D10*
%TO.C,J1*%
X138399669Y-107788560D03*
X135859669Y-107788560D03*
X133319669Y-107788560D03*
D11*
X130779669Y-107788560D03*
%TD*%
D10*
%TO.C,D8*%
X164096279Y-93345000D03*
D11*
X166636279Y-93345000D03*
%TD*%
D10*
%TO.C,D7*%
X154940000Y-93345000D03*
D11*
X157480000Y-93345000D03*
%TD*%
D10*
%TO.C,D6*%
X146050000Y-93345000D03*
D11*
X148590000Y-93345000D03*
%TD*%
D10*
%TO.C,D5*%
X137160000Y-93345000D03*
D11*
X139700000Y-93345000D03*
%TD*%
D10*
%TO.C,D4*%
X128164893Y-93338336D03*
D11*
X130704893Y-93338336D03*
%TD*%
D10*
%TO.C,D3*%
X119144844Y-93338336D03*
D11*
X121684844Y-93338336D03*
%TD*%
D10*
%TO.C,D2*%
X109855000Y-93345000D03*
D11*
X112395000Y-93345000D03*
%TD*%
D10*
%TO.C,D1*%
X100965000Y-93345000D03*
D11*
X103505000Y-93345000D03*
%TD*%
M02*
