%TF.GenerationSoftware,KiCad,Pcbnew,(5.1.6)-1*%
%TF.CreationDate,2020-11-25T17:12:48+01:00*%
%TF.ProjectId,heater_led_tempSensor_board,68656174-6572-45f6-9c65-645f74656d70,rev?*%
%TF.SameCoordinates,Original*%
%TF.FileFunction,Legend,Bot*%
%TF.FilePolarity,Positive*%
%FSLAX46Y46*%
G04 Gerber Fmt 4.6, Leading zero omitted, Abs format (unit mm)*
G04 Created by KiCad (PCBNEW (5.1.6)-1) date 2020-11-25 17:12:48*
%MOMM*%
%LPD*%
G01*
G04 APERTURE LIST*
%ADD10C,0.120000*%
%ADD11C,0.150000*%
G04 APERTURE END LIST*
D10*
%TO.C,Q1*%
X156940000Y-109909000D02*
X155430000Y-109909000D01*
X156940000Y-113610000D02*
X155430000Y-113610000D01*
X155430000Y-116880000D02*
X155430000Y-106640000D01*
X156940000Y-106640000D02*
X152299000Y-106640000D01*
X156940000Y-116880000D02*
X152299000Y-116880000D01*
X152299000Y-116880000D02*
X152299000Y-106640000D01*
X156940000Y-116880000D02*
X156940000Y-106640000D01*
D11*
X158487619Y-111664761D02*
X158440000Y-111569523D01*
X158344761Y-111474285D01*
X158201904Y-111331428D01*
X158154285Y-111236190D01*
X158154285Y-111140952D01*
X158392380Y-111188571D02*
X158344761Y-111093333D01*
X158249523Y-110998095D01*
X158059047Y-110950476D01*
X157725714Y-110950476D01*
X157535238Y-110998095D01*
X157440000Y-111093333D01*
X157392380Y-111188571D01*
X157392380Y-111379047D01*
X157440000Y-111474285D01*
X157535238Y-111569523D01*
X157725714Y-111617142D01*
X158059047Y-111617142D01*
X158249523Y-111569523D01*
X158344761Y-111474285D01*
X158392380Y-111379047D01*
X158392380Y-111188571D01*
X158392380Y-112569523D02*
X158392380Y-111998095D01*
X158392380Y-112283809D02*
X157392380Y-112283809D01*
X157535238Y-112188571D01*
X157630476Y-112093333D01*
X157678095Y-111998095D01*
%TD*%
M02*
