%TF.GenerationSoftware,KiCad,Pcbnew,(5.1.6)-1*%
%TF.CreationDate,2020-11-25T02:59:11+01:00*%
%TF.ProjectId,heater_led_tempSensor_board,68656174-6572-45f6-9c65-645f74656d70,rev?*%
%TF.SameCoordinates,Original*%
%TF.FileFunction,Paste,Top*%
%TF.FilePolarity,Positive*%
%FSLAX46Y46*%
G04 Gerber Fmt 4.6, Leading zero omitted, Abs format (unit mm)*
G04 Created by KiCad (PCBNEW (5.1.6)-1) date 2020-11-25 02:59:11*
%MOMM*%
%LPD*%
G01*
G04 APERTURE LIST*
%ADD10R,0.650000X1.525000*%
%ADD11R,0.250000X1.100000*%
%ADD12R,1.750000X3.200000*%
%ADD13R,1.750000X0.950000*%
G04 APERTURE END LIST*
%TO.C,C1*%
G36*
G01*
X157845000Y-102245000D02*
X157845000Y-103495000D01*
G75*
G02*
X157595000Y-103745000I-250000J0D01*
G01*
X156845000Y-103745000D01*
G75*
G02*
X156595000Y-103495000I0J250000D01*
G01*
X156595000Y-102245000D01*
G75*
G02*
X156845000Y-101995000I250000J0D01*
G01*
X157595000Y-101995000D01*
G75*
G02*
X157845000Y-102245000I0J-250000D01*
G01*
G37*
G36*
G01*
X160645000Y-102245000D02*
X160645000Y-103495000D01*
G75*
G02*
X160395000Y-103745000I-250000J0D01*
G01*
X159645000Y-103745000D01*
G75*
G02*
X159395000Y-103495000I0J250000D01*
G01*
X159395000Y-102245000D01*
G75*
G02*
X159645000Y-101995000I250000J0D01*
G01*
X160395000Y-101995000D01*
G75*
G02*
X160645000Y-102245000I0J-250000D01*
G01*
G37*
%TD*%
D10*
%TO.C,IC2*%
X144145000Y-103214000D03*
X142875000Y-103214000D03*
X141605000Y-103214000D03*
X140335000Y-103214000D03*
X139065000Y-103214000D03*
X137795000Y-103214000D03*
X136525000Y-103214000D03*
X135255000Y-103214000D03*
X135255000Y-97790000D03*
X136525000Y-97790000D03*
X137795000Y-97790000D03*
X139065000Y-97790000D03*
X140335000Y-97790000D03*
X141605000Y-97790000D03*
X142875000Y-97790000D03*
X144145000Y-97790000D03*
%TD*%
D11*
%TO.C,U3*%
X123460000Y-105410000D03*
X123960000Y-105410000D03*
X124460000Y-105410000D03*
X124960000Y-105410000D03*
X125460000Y-105410000D03*
X125460000Y-109710000D03*
X124960000Y-109710000D03*
X124460000Y-109710000D03*
X123960000Y-109710000D03*
X123460000Y-109710000D03*
%TD*%
%TO.C,R7*%
G36*
G01*
X159525000Y-98415000D02*
X159525000Y-97165000D01*
G75*
G02*
X159775000Y-96915000I250000J0D01*
G01*
X160525000Y-96915000D01*
G75*
G02*
X160775000Y-97165000I0J-250000D01*
G01*
X160775000Y-98415000D01*
G75*
G02*
X160525000Y-98665000I-250000J0D01*
G01*
X159775000Y-98665000D01*
G75*
G02*
X159525000Y-98415000I0J250000D01*
G01*
G37*
G36*
G01*
X156725000Y-98415000D02*
X156725000Y-97165000D01*
G75*
G02*
X156975000Y-96915000I250000J0D01*
G01*
X157725000Y-96915000D01*
G75*
G02*
X157975000Y-97165000I0J-250000D01*
G01*
X157975000Y-98415000D01*
G75*
G02*
X157725000Y-98665000I-250000J0D01*
G01*
X156975000Y-98665000D01*
G75*
G02*
X156725000Y-98415000I0J250000D01*
G01*
G37*
%TD*%
%TO.C,R6*%
G36*
G01*
X157845000Y-99705000D02*
X157845000Y-100955000D01*
G75*
G02*
X157595000Y-101205000I-250000J0D01*
G01*
X156845000Y-101205000D01*
G75*
G02*
X156595000Y-100955000I0J250000D01*
G01*
X156595000Y-99705000D01*
G75*
G02*
X156845000Y-99455000I250000J0D01*
G01*
X157595000Y-99455000D01*
G75*
G02*
X157845000Y-99705000I0J-250000D01*
G01*
G37*
G36*
G01*
X160645000Y-99705000D02*
X160645000Y-100955000D01*
G75*
G02*
X160395000Y-101205000I-250000J0D01*
G01*
X159645000Y-101205000D01*
G75*
G02*
X159395000Y-100955000I0J250000D01*
G01*
X159395000Y-99705000D01*
G75*
G02*
X159645000Y-99455000I250000J0D01*
G01*
X160395000Y-99455000D01*
G75*
G02*
X160645000Y-99705000I0J-250000D01*
G01*
G37*
%TD*%
%TO.C,R5*%
G36*
G01*
X103495000Y-97165000D02*
X103495000Y-98415000D01*
G75*
G02*
X103245000Y-98665000I-250000J0D01*
G01*
X102495000Y-98665000D01*
G75*
G02*
X102245000Y-98415000I0J250000D01*
G01*
X102245000Y-97165000D01*
G75*
G02*
X102495000Y-96915000I250000J0D01*
G01*
X103245000Y-96915000D01*
G75*
G02*
X103495000Y-97165000I0J-250000D01*
G01*
G37*
G36*
G01*
X106295000Y-97165000D02*
X106295000Y-98415000D01*
G75*
G02*
X106045000Y-98665000I-250000J0D01*
G01*
X105295000Y-98665000D01*
G75*
G02*
X105045000Y-98415000I0J250000D01*
G01*
X105045000Y-97165000D01*
G75*
G02*
X105295000Y-96915000I250000J0D01*
G01*
X106045000Y-96915000D01*
G75*
G02*
X106295000Y-97165000I0J-250000D01*
G01*
G37*
%TD*%
%TO.C,R4*%
G36*
G01*
X103365000Y-99705000D02*
X103365000Y-100955000D01*
G75*
G02*
X103115000Y-101205000I-250000J0D01*
G01*
X102365000Y-101205000D01*
G75*
G02*
X102115000Y-100955000I0J250000D01*
G01*
X102115000Y-99705000D01*
G75*
G02*
X102365000Y-99455000I250000J0D01*
G01*
X103115000Y-99455000D01*
G75*
G02*
X103365000Y-99705000I0J-250000D01*
G01*
G37*
G36*
G01*
X106165000Y-99705000D02*
X106165000Y-100955000D01*
G75*
G02*
X105915000Y-101205000I-250000J0D01*
G01*
X105165000Y-101205000D01*
G75*
G02*
X104915000Y-100955000I0J250000D01*
G01*
X104915000Y-99705000D01*
G75*
G02*
X105165000Y-99455000I250000J0D01*
G01*
X105915000Y-99455000D01*
G75*
G02*
X106165000Y-99705000I0J-250000D01*
G01*
G37*
%TD*%
%TO.C,R3*%
G36*
G01*
X103365000Y-104785000D02*
X103365000Y-106035000D01*
G75*
G02*
X103115000Y-106285000I-250000J0D01*
G01*
X102365000Y-106285000D01*
G75*
G02*
X102115000Y-106035000I0J250000D01*
G01*
X102115000Y-104785000D01*
G75*
G02*
X102365000Y-104535000I250000J0D01*
G01*
X103115000Y-104535000D01*
G75*
G02*
X103365000Y-104785000I0J-250000D01*
G01*
G37*
G36*
G01*
X106165000Y-104785000D02*
X106165000Y-106035000D01*
G75*
G02*
X105915000Y-106285000I-250000J0D01*
G01*
X105165000Y-106285000D01*
G75*
G02*
X104915000Y-106035000I0J250000D01*
G01*
X104915000Y-104785000D01*
G75*
G02*
X105165000Y-104535000I250000J0D01*
G01*
X105915000Y-104535000D01*
G75*
G02*
X106165000Y-104785000I0J-250000D01*
G01*
G37*
%TD*%
%TO.C,R2*%
G36*
G01*
X103365000Y-102245000D02*
X103365000Y-103495000D01*
G75*
G02*
X103115000Y-103745000I-250000J0D01*
G01*
X102365000Y-103745000D01*
G75*
G02*
X102115000Y-103495000I0J250000D01*
G01*
X102115000Y-102245000D01*
G75*
G02*
X102365000Y-101995000I250000J0D01*
G01*
X103115000Y-101995000D01*
G75*
G02*
X103365000Y-102245000I0J-250000D01*
G01*
G37*
G36*
G01*
X106165000Y-102245000D02*
X106165000Y-103495000D01*
G75*
G02*
X105915000Y-103745000I-250000J0D01*
G01*
X105165000Y-103745000D01*
G75*
G02*
X104915000Y-103495000I0J250000D01*
G01*
X104915000Y-102245000D01*
G75*
G02*
X105165000Y-101995000I250000J0D01*
G01*
X105915000Y-101995000D01*
G75*
G02*
X106165000Y-102245000I0J-250000D01*
G01*
G37*
%TD*%
D12*
%TO.C,IC1*%
X120650000Y-114300000D03*
D13*
X114350000Y-116600000D03*
X114350000Y-114300000D03*
X114350000Y-112000000D03*
%TD*%
%TO.C,C2*%
G36*
G01*
X146695000Y-108575000D02*
X146695000Y-107325000D01*
G75*
G02*
X146945000Y-107075000I250000J0D01*
G01*
X147695000Y-107075000D01*
G75*
G02*
X147945000Y-107325000I0J-250000D01*
G01*
X147945000Y-108575000D01*
G75*
G02*
X147695000Y-108825000I-250000J0D01*
G01*
X146945000Y-108825000D01*
G75*
G02*
X146695000Y-108575000I0J250000D01*
G01*
G37*
G36*
G01*
X143895000Y-108575000D02*
X143895000Y-107325000D01*
G75*
G02*
X144145000Y-107075000I250000J0D01*
G01*
X144895000Y-107075000D01*
G75*
G02*
X145145000Y-107325000I0J-250000D01*
G01*
X145145000Y-108575000D01*
G75*
G02*
X144895000Y-108825000I-250000J0D01*
G01*
X144145000Y-108825000D01*
G75*
G02*
X143895000Y-108575000I0J250000D01*
G01*
G37*
%TD*%
M02*
