%TF.GenerationSoftware,KiCad,Pcbnew,(5.1.6)-1*%
%TF.CreationDate,2020-11-25T17:12:48+01:00*%
%TF.ProjectId,heater_led_tempSensor_board,68656174-6572-45f6-9c65-645f74656d70,rev?*%
%TF.SameCoordinates,Original*%
%TF.FileFunction,Soldermask,Top*%
%TF.FilePolarity,Negative*%
%FSLAX46Y46*%
G04 Gerber Fmt 4.6, Leading zero omitted, Abs format (unit mm)*
G04 Created by KiCad (PCBNEW (5.1.6)-1) date 2020-11-25 17:12:48*
%MOMM*%
%LPD*%
G01*
G04 APERTURE LIST*
%ADD10O,1.800000X1.800000*%
%ADD11R,1.800000X1.800000*%
%ADD12C,3.100000*%
%ADD13R,3.100000X3.100000*%
%ADD14R,0.750000X1.625000*%
%ADD15R,0.350000X1.200000*%
%ADD16C,2.440000*%
%ADD17O,2.100000X2.005000*%
%ADD18R,2.100000X2.005000*%
%ADD19R,1.850000X3.300000*%
%ADD20R,1.850000X1.050000*%
G04 APERTURE END LIST*
D10*
%TO.C,TH3*%
X110490000Y-101600000D03*
D11*
X113030000Y-101600000D03*
%TD*%
D10*
%TO.C,TH2*%
X110490000Y-105410000D03*
D11*
X113030000Y-105410000D03*
%TD*%
D10*
%TO.C,TH1*%
X118110000Y-101600000D03*
D11*
X120650000Y-101600000D03*
%TD*%
D12*
%TO.C,J3*%
X163830000Y-114935000D03*
D13*
X163830000Y-109855000D03*
%TD*%
%TO.C,C1*%
G36*
G01*
X157895000Y-102215000D02*
X157895000Y-103525000D01*
G75*
G02*
X157625000Y-103795000I-270000J0D01*
G01*
X156815000Y-103795000D01*
G75*
G02*
X156545000Y-103525000I0J270000D01*
G01*
X156545000Y-102215000D01*
G75*
G02*
X156815000Y-101945000I270000J0D01*
G01*
X157625000Y-101945000D01*
G75*
G02*
X157895000Y-102215000I0J-270000D01*
G01*
G37*
G36*
G01*
X160695000Y-102215000D02*
X160695000Y-103525000D01*
G75*
G02*
X160425000Y-103795000I-270000J0D01*
G01*
X159615000Y-103795000D01*
G75*
G02*
X159345000Y-103525000I0J270000D01*
G01*
X159345000Y-102215000D01*
G75*
G02*
X159615000Y-101945000I270000J0D01*
G01*
X160425000Y-101945000D01*
G75*
G02*
X160695000Y-102215000I0J-270000D01*
G01*
G37*
%TD*%
D11*
%TO.C,TH4*%
X113030000Y-97790000D03*
D10*
X110490000Y-97790000D03*
%TD*%
D14*
%TO.C,IC2*%
X144145000Y-103214000D03*
X142875000Y-103214000D03*
X141605000Y-103214000D03*
X140335000Y-103214000D03*
X139065000Y-103214000D03*
X137795000Y-103214000D03*
X136525000Y-103214000D03*
X135255000Y-103214000D03*
X135255000Y-97790000D03*
X136525000Y-97790000D03*
X137795000Y-97790000D03*
X139065000Y-97790000D03*
X140335000Y-97790000D03*
X141605000Y-97790000D03*
X142875000Y-97790000D03*
X144145000Y-97790000D03*
%TD*%
D12*
%TO.C,REF\u002A\u002A*%
X172358637Y-100571805D03*
%TD*%
%TO.C,REF\u002A\u002A*%
X96137415Y-100545203D03*
%TD*%
D15*
%TO.C,U3*%
X123460000Y-105410000D03*
X123960000Y-105410000D03*
X124460000Y-105410000D03*
X124960000Y-105410000D03*
X125460000Y-105410000D03*
X125460000Y-109710000D03*
X124960000Y-109710000D03*
X124460000Y-109710000D03*
X123960000Y-109710000D03*
X123460000Y-109710000D03*
%TD*%
%TO.C,R7*%
G36*
G01*
X159475000Y-98445000D02*
X159475000Y-97135000D01*
G75*
G02*
X159745000Y-96865000I270000J0D01*
G01*
X160555000Y-96865000D01*
G75*
G02*
X160825000Y-97135000I0J-270000D01*
G01*
X160825000Y-98445000D01*
G75*
G02*
X160555000Y-98715000I-270000J0D01*
G01*
X159745000Y-98715000D01*
G75*
G02*
X159475000Y-98445000I0J270000D01*
G01*
G37*
G36*
G01*
X156675000Y-98445000D02*
X156675000Y-97135000D01*
G75*
G02*
X156945000Y-96865000I270000J0D01*
G01*
X157755000Y-96865000D01*
G75*
G02*
X158025000Y-97135000I0J-270000D01*
G01*
X158025000Y-98445000D01*
G75*
G02*
X157755000Y-98715000I-270000J0D01*
G01*
X156945000Y-98715000D01*
G75*
G02*
X156675000Y-98445000I0J270000D01*
G01*
G37*
%TD*%
%TO.C,R6*%
G36*
G01*
X157895000Y-99675000D02*
X157895000Y-100985000D01*
G75*
G02*
X157625000Y-101255000I-270000J0D01*
G01*
X156815000Y-101255000D01*
G75*
G02*
X156545000Y-100985000I0J270000D01*
G01*
X156545000Y-99675000D01*
G75*
G02*
X156815000Y-99405000I270000J0D01*
G01*
X157625000Y-99405000D01*
G75*
G02*
X157895000Y-99675000I0J-270000D01*
G01*
G37*
G36*
G01*
X160695000Y-99675000D02*
X160695000Y-100985000D01*
G75*
G02*
X160425000Y-101255000I-270000J0D01*
G01*
X159615000Y-101255000D01*
G75*
G02*
X159345000Y-100985000I0J270000D01*
G01*
X159345000Y-99675000D01*
G75*
G02*
X159615000Y-99405000I270000J0D01*
G01*
X160425000Y-99405000D01*
G75*
G02*
X160695000Y-99675000I0J-270000D01*
G01*
G37*
%TD*%
%TO.C,R5*%
G36*
G01*
X103545000Y-97135000D02*
X103545000Y-98445000D01*
G75*
G02*
X103275000Y-98715000I-270000J0D01*
G01*
X102465000Y-98715000D01*
G75*
G02*
X102195000Y-98445000I0J270000D01*
G01*
X102195000Y-97135000D01*
G75*
G02*
X102465000Y-96865000I270000J0D01*
G01*
X103275000Y-96865000D01*
G75*
G02*
X103545000Y-97135000I0J-270000D01*
G01*
G37*
G36*
G01*
X106345000Y-97135000D02*
X106345000Y-98445000D01*
G75*
G02*
X106075000Y-98715000I-270000J0D01*
G01*
X105265000Y-98715000D01*
G75*
G02*
X104995000Y-98445000I0J270000D01*
G01*
X104995000Y-97135000D01*
G75*
G02*
X105265000Y-96865000I270000J0D01*
G01*
X106075000Y-96865000D01*
G75*
G02*
X106345000Y-97135000I0J-270000D01*
G01*
G37*
%TD*%
%TO.C,R4*%
G36*
G01*
X103415000Y-99675000D02*
X103415000Y-100985000D01*
G75*
G02*
X103145000Y-101255000I-270000J0D01*
G01*
X102335000Y-101255000D01*
G75*
G02*
X102065000Y-100985000I0J270000D01*
G01*
X102065000Y-99675000D01*
G75*
G02*
X102335000Y-99405000I270000J0D01*
G01*
X103145000Y-99405000D01*
G75*
G02*
X103415000Y-99675000I0J-270000D01*
G01*
G37*
G36*
G01*
X106215000Y-99675000D02*
X106215000Y-100985000D01*
G75*
G02*
X105945000Y-101255000I-270000J0D01*
G01*
X105135000Y-101255000D01*
G75*
G02*
X104865000Y-100985000I0J270000D01*
G01*
X104865000Y-99675000D01*
G75*
G02*
X105135000Y-99405000I270000J0D01*
G01*
X105945000Y-99405000D01*
G75*
G02*
X106215000Y-99675000I0J-270000D01*
G01*
G37*
%TD*%
%TO.C,R3*%
G36*
G01*
X103415000Y-104755000D02*
X103415000Y-106065000D01*
G75*
G02*
X103145000Y-106335000I-270000J0D01*
G01*
X102335000Y-106335000D01*
G75*
G02*
X102065000Y-106065000I0J270000D01*
G01*
X102065000Y-104755000D01*
G75*
G02*
X102335000Y-104485000I270000J0D01*
G01*
X103145000Y-104485000D01*
G75*
G02*
X103415000Y-104755000I0J-270000D01*
G01*
G37*
G36*
G01*
X106215000Y-104755000D02*
X106215000Y-106065000D01*
G75*
G02*
X105945000Y-106335000I-270000J0D01*
G01*
X105135000Y-106335000D01*
G75*
G02*
X104865000Y-106065000I0J270000D01*
G01*
X104865000Y-104755000D01*
G75*
G02*
X105135000Y-104485000I270000J0D01*
G01*
X105945000Y-104485000D01*
G75*
G02*
X106215000Y-104755000I0J-270000D01*
G01*
G37*
%TD*%
%TO.C,R2*%
G36*
G01*
X103415000Y-102215000D02*
X103415000Y-103525000D01*
G75*
G02*
X103145000Y-103795000I-270000J0D01*
G01*
X102335000Y-103795000D01*
G75*
G02*
X102065000Y-103525000I0J270000D01*
G01*
X102065000Y-102215000D01*
G75*
G02*
X102335000Y-101945000I270000J0D01*
G01*
X103145000Y-101945000D01*
G75*
G02*
X103415000Y-102215000I0J-270000D01*
G01*
G37*
G36*
G01*
X106215000Y-102215000D02*
X106215000Y-103525000D01*
G75*
G02*
X105945000Y-103795000I-270000J0D01*
G01*
X105135000Y-103795000D01*
G75*
G02*
X104865000Y-103525000I0J270000D01*
G01*
X104865000Y-102215000D01*
G75*
G02*
X105135000Y-101945000I270000J0D01*
G01*
X105945000Y-101945000D01*
G75*
G02*
X106215000Y-102215000I0J-270000D01*
G01*
G37*
%TD*%
D16*
%TO.C,R1*%
X110490000Y-110061398D03*
X100490000Y-112561398D03*
X110490000Y-115061398D03*
%TD*%
D17*
%TO.C,Q1*%
X153670000Y-109220000D03*
X153670000Y-111760000D03*
D18*
X153670000Y-114300000D03*
%TD*%
D10*
%TO.C,J2*%
X144780000Y-114300000D03*
X142240000Y-114300000D03*
X139700000Y-114300000D03*
X137160000Y-114300000D03*
X134620000Y-114300000D03*
X132080000Y-114300000D03*
X129540000Y-114300000D03*
X127000000Y-114300000D03*
D11*
X124460000Y-114300000D03*
%TD*%
D10*
%TO.C,J1*%
X138399669Y-107788560D03*
X135859669Y-107788560D03*
X133319669Y-107788560D03*
D11*
X130779669Y-107788560D03*
%TD*%
D19*
%TO.C,IC1*%
X120650000Y-114300000D03*
D20*
X114350000Y-116600000D03*
X114350000Y-114300000D03*
X114350000Y-112000000D03*
%TD*%
D10*
%TO.C,D8*%
X164096279Y-93345000D03*
D11*
X166636279Y-93345000D03*
%TD*%
D10*
%TO.C,D7*%
X154940000Y-93345000D03*
D11*
X157480000Y-93345000D03*
%TD*%
D10*
%TO.C,D6*%
X146050000Y-93345000D03*
D11*
X148590000Y-93345000D03*
%TD*%
D10*
%TO.C,D5*%
X137160000Y-93345000D03*
D11*
X139700000Y-93345000D03*
%TD*%
D10*
%TO.C,D4*%
X128164893Y-93338336D03*
D11*
X130704893Y-93338336D03*
%TD*%
D10*
%TO.C,D3*%
X119144844Y-93338336D03*
D11*
X121684844Y-93338336D03*
%TD*%
D10*
%TO.C,D2*%
X109855000Y-93345000D03*
D11*
X112395000Y-93345000D03*
%TD*%
D10*
%TO.C,D1*%
X100965000Y-93345000D03*
D11*
X103505000Y-93345000D03*
%TD*%
%TO.C,C2*%
G36*
G01*
X146645000Y-108605000D02*
X146645000Y-107295000D01*
G75*
G02*
X146915000Y-107025000I270000J0D01*
G01*
X147725000Y-107025000D01*
G75*
G02*
X147995000Y-107295000I0J-270000D01*
G01*
X147995000Y-108605000D01*
G75*
G02*
X147725000Y-108875000I-270000J0D01*
G01*
X146915000Y-108875000D01*
G75*
G02*
X146645000Y-108605000I0J270000D01*
G01*
G37*
G36*
G01*
X143845000Y-108605000D02*
X143845000Y-107295000D01*
G75*
G02*
X144115000Y-107025000I270000J0D01*
G01*
X144925000Y-107025000D01*
G75*
G02*
X145195000Y-107295000I0J-270000D01*
G01*
X145195000Y-108605000D01*
G75*
G02*
X144925000Y-108875000I-270000J0D01*
G01*
X144115000Y-108875000D01*
G75*
G02*
X143845000Y-108605000I0J270000D01*
G01*
G37*
%TD*%
M02*
