%TF.GenerationSoftware,KiCad,Pcbnew,(5.1.6)-1*%
%TF.CreationDate,2020-11-25T17:12:48+01:00*%
%TF.ProjectId,heater_led_tempSensor_board,68656174-6572-45f6-9c65-645f74656d70,rev?*%
%TF.SameCoordinates,Original*%
%TF.FileFunction,Copper,L2,Bot*%
%TF.FilePolarity,Positive*%
%FSLAX46Y46*%
G04 Gerber Fmt 4.6, Leading zero omitted, Abs format (unit mm)*
G04 Created by KiCad (PCBNEW (5.1.6)-1) date 2020-11-25 17:12:48*
%MOMM*%
%LPD*%
G01*
G04 APERTURE LIST*
%TA.AperFunction,ComponentPad*%
%ADD10O,1.700000X1.700000*%
%TD*%
%TA.AperFunction,ComponentPad*%
%ADD11R,1.700000X1.700000*%
%TD*%
%TA.AperFunction,ComponentPad*%
%ADD12C,3.000000*%
%TD*%
%TA.AperFunction,ComponentPad*%
%ADD13R,3.000000X3.000000*%
%TD*%
%TA.AperFunction,ComponentPad*%
%ADD14C,2.340000*%
%TD*%
%TA.AperFunction,ComponentPad*%
%ADD15O,2.000000X1.905000*%
%TD*%
%TA.AperFunction,ComponentPad*%
%ADD16R,2.000000X1.905000*%
%TD*%
%TA.AperFunction,ViaPad*%
%ADD17C,0.800000*%
%TD*%
%TA.AperFunction,Conductor*%
%ADD18C,0.500000*%
%TD*%
%TA.AperFunction,Conductor*%
%ADD19C,0.250000*%
%TD*%
G04 APERTURE END LIST*
D10*
%TO.P,TH3,2*%
%TO.N,NTC3*%
X110490000Y-101600000D03*
D11*
%TO.P,TH3,1*%
%TO.N,+5V*%
X113030000Y-101600000D03*
%TD*%
D10*
%TO.P,TH2,2*%
%TO.N,NTC2*%
X110490000Y-105410000D03*
D11*
%TO.P,TH2,1*%
%TO.N,+5V*%
X113030000Y-105410000D03*
%TD*%
D10*
%TO.P,TH1,2*%
%TO.N,NTC1*%
X118110000Y-101600000D03*
D11*
%TO.P,TH1,1*%
%TO.N,+5V*%
X120650000Y-101600000D03*
%TD*%
D12*
%TO.P,J3,2*%
%TO.N,Net-(J3-Pad2)*%
X163830000Y-114935000D03*
D13*
%TO.P,J3,1*%
%TO.N,+12V*%
X163830000Y-109855000D03*
%TD*%
D11*
%TO.P,TH4,1*%
%TO.N,+5V*%
X113030000Y-97790000D03*
D10*
%TO.P,TH4,2*%
%TO.N,NTC4*%
X110490000Y-97790000D03*
%TD*%
D14*
%TO.P,R1,1*%
%TO.N,GND*%
X110490000Y-110061398D03*
%TO.P,R1,2*%
%TO.N,Net-(D1-Pad1)*%
X100490000Y-112561398D03*
%TO.P,R1,3*%
%TO.N,N/C*%
X110490000Y-115061398D03*
%TD*%
D15*
%TO.P,Q1,3*%
%TO.N,GND*%
X153670000Y-109220000D03*
%TO.P,Q1,2*%
%TO.N,Net-(J3-Pad2)*%
X153670000Y-111760000D03*
D16*
%TO.P,Q1,1*%
%TO.N,Net-(Q1-Pad1)*%
X153670000Y-114300000D03*
%TD*%
D10*
%TO.P,J2,9*%
%TO.N,GND*%
X144780000Y-114300000D03*
%TO.P,J2,8*%
%TO.N,+12V*%
X142240000Y-114300000D03*
%TO.P,J2,7*%
%TO.N,heater_PWN*%
X139700000Y-114300000D03*
%TO.P,J2,6*%
%TO.N,INH*%
X137160000Y-114300000D03*
%TO.P,J2,5*%
%TO.N,DA*%
X134620000Y-114300000D03*
%TO.P,J2,4*%
%TO.N,DB*%
X132080000Y-114300000D03*
%TO.P,J2,3*%
%TO.N,DC*%
X129540000Y-114300000D03*
%TO.P,J2,2*%
%TO.N,SDA*%
X127000000Y-114300000D03*
D11*
%TO.P,J2,1*%
%TO.N,SCL*%
X124460000Y-114300000D03*
%TD*%
D10*
%TO.P,J1,4*%
%TO.N,GND*%
X138399669Y-107788560D03*
%TO.P,J1,3*%
%TO.N,+5V*%
X135859669Y-107788560D03*
%TO.P,J1,2*%
%TO.N,SDA*%
X133319669Y-107788560D03*
D11*
%TO.P,J1,1*%
%TO.N,SCL*%
X130779669Y-107788560D03*
%TD*%
D10*
%TO.P,D8,2*%
%TO.N,LED8*%
X164096279Y-93345000D03*
D11*
%TO.P,D8,1*%
%TO.N,Net-(D1-Pad1)*%
X166636279Y-93345000D03*
%TD*%
D10*
%TO.P,D7,2*%
%TO.N,LED7*%
X154940000Y-93345000D03*
D11*
%TO.P,D7,1*%
%TO.N,Net-(D1-Pad1)*%
X157480000Y-93345000D03*
%TD*%
D10*
%TO.P,D6,2*%
%TO.N,LED6*%
X146050000Y-93345000D03*
D11*
%TO.P,D6,1*%
%TO.N,Net-(D1-Pad1)*%
X148590000Y-93345000D03*
%TD*%
D10*
%TO.P,D5,2*%
%TO.N,LED5*%
X137160000Y-93345000D03*
D11*
%TO.P,D5,1*%
%TO.N,Net-(D1-Pad1)*%
X139700000Y-93345000D03*
%TD*%
D10*
%TO.P,D4,2*%
%TO.N,LED4*%
X128164893Y-93338336D03*
D11*
%TO.P,D4,1*%
%TO.N,Net-(D1-Pad1)*%
X130704893Y-93338336D03*
%TD*%
D10*
%TO.P,D3,2*%
%TO.N,LED3*%
X119144844Y-93338336D03*
D11*
%TO.P,D3,1*%
%TO.N,Net-(D1-Pad1)*%
X121684844Y-93338336D03*
%TD*%
D10*
%TO.P,D2,2*%
%TO.N,LED2*%
X109855000Y-93345000D03*
D11*
%TO.P,D2,1*%
%TO.N,Net-(D1-Pad1)*%
X112395000Y-93345000D03*
%TD*%
D10*
%TO.P,D1,2*%
%TO.N,LED1*%
X100965000Y-93345000D03*
D11*
%TO.P,D1,1*%
%TO.N,Net-(D1-Pad1)*%
X103505000Y-93345000D03*
%TD*%
D17*
%TO.N,GND*%
X137795000Y-95250000D03*
X146050000Y-98425000D03*
X100965000Y-90805000D03*
X100965000Y-95250000D03*
X146050000Y-105410000D03*
X142875000Y-105410000D03*
X117475000Y-112395000D03*
%TO.N,+5V*%
X116840000Y-115570000D03*
X135890000Y-111125000D03*
X128270000Y-105410000D03*
X141605000Y-99060000D03*
X143510000Y-101600000D03*
%TO.N,LED4*%
X138430000Y-105410000D03*
%TO.N,DA*%
X135255000Y-104775000D03*
%TO.N,INH*%
X137795000Y-99060000D03*
%TO.N,heater_PWN*%
X155575000Y-100330000D03*
%TO.N,Net-(Q1-Pad1)*%
X161925000Y-100330000D03*
%TO.N,NTC4*%
X119380000Y-103505000D03*
%TD*%
D18*
%TO.N,GND*%
X142875000Y-95250000D02*
X146050000Y-98425000D01*
X137795000Y-95250000D02*
X142875000Y-95250000D01*
X99664999Y-93949999D02*
X100965000Y-95250000D01*
X99664999Y-92105001D02*
X99664999Y-93949999D01*
X100965000Y-90805000D02*
X99664999Y-92105001D01*
X146050000Y-105410000D02*
X142875000Y-105410000D01*
X112823602Y-112395000D02*
X110490000Y-110061398D01*
X117475000Y-112395000D02*
X112823602Y-112395000D01*
%TO.N,+5V*%
X113030000Y-97790000D02*
X113030000Y-101600000D01*
X113030000Y-101600000D02*
X113030000Y-105410000D01*
X133481109Y-105410000D02*
X135859669Y-107788560D01*
X120650000Y-101600000D02*
X120650000Y-105410000D01*
X113030000Y-105410000D02*
X120650000Y-105410000D01*
X120650000Y-105410000D02*
X128270000Y-105410000D01*
X119410001Y-112999999D02*
X130648230Y-112999999D01*
X116840000Y-115570000D02*
X119410001Y-112999999D01*
X133985000Y-111125000D02*
X133254115Y-110394115D01*
X135890000Y-111125000D02*
X133985000Y-111125000D01*
X130648230Y-112999999D02*
X133254115Y-110394115D01*
X133254115Y-110394115D02*
X135859669Y-107788560D01*
X128270000Y-105410000D02*
X133481109Y-105410000D01*
D19*
X143510000Y-100965000D02*
X141605000Y-99060000D01*
X143510000Y-101600000D02*
X143510000Y-100965000D01*
D18*
%TO.N,Net-(D1-Pad1)*%
X156179999Y-92044999D02*
X157480000Y-93345000D01*
X149890001Y-92044999D02*
X156179999Y-92044999D01*
X148590000Y-93345000D02*
X149890001Y-92044999D01*
X158780001Y-92044999D02*
X165336278Y-92044999D01*
X165336278Y-92044999D02*
X166636279Y-93345000D01*
X157480000Y-93345000D02*
X158780001Y-92044999D01*
D19*
%TO.N,LED4*%
X128164893Y-93338336D02*
X128164893Y-95144893D01*
X128164893Y-95144893D02*
X138430000Y-105410000D01*
X138430000Y-105410000D02*
X138430000Y-105410000D01*
%TO.N,DA*%
X134620000Y-114300000D02*
X137034670Y-111885330D01*
X137034670Y-111885330D02*
X137034670Y-106805330D01*
X137034670Y-106805330D02*
X137034670Y-106554670D01*
X137034670Y-106554670D02*
X135255000Y-104775000D01*
X135255000Y-104775000D02*
X135255000Y-104775000D01*
%TO.N,INH*%
X139574670Y-111885330D02*
X139574670Y-101474670D01*
X137160000Y-114300000D02*
X139574670Y-111885330D01*
X139574670Y-101474670D02*
X137795000Y-99695000D01*
X137795000Y-99695000D02*
X137795000Y-99060000D01*
X137795000Y-99060000D02*
X137795000Y-99060000D01*
%TO.N,heater_PWN*%
X153670000Y-100330000D02*
X139700000Y-114300000D01*
X155575000Y-100330000D02*
X153670000Y-100330000D01*
%TO.N,Net-(Q1-Pad1)*%
X153670000Y-114300000D02*
X161925000Y-106045000D01*
X161925000Y-106045000D02*
X161925000Y-100330000D01*
X161925000Y-100330000D02*
X161925000Y-100330000D01*
%TO.N,NTC4*%
X119380000Y-103505000D02*
X118275998Y-103505000D01*
X114382999Y-96857997D02*
X114382999Y-99612001D01*
X111665001Y-96614999D02*
X114140001Y-96614999D01*
X114140001Y-96614999D02*
X114382999Y-96857997D01*
X110490000Y-97790000D02*
X111665001Y-96614999D01*
X118275998Y-103505000D02*
X114382999Y-99612001D01*
%TD*%
M02*
