%TF.GenerationSoftware,KiCad,Pcbnew,(5.1.6)-1*%
%TF.CreationDate,2020-11-25T02:59:11+01:00*%
%TF.ProjectId,heater_led_tempSensor_board,68656174-6572-45f6-9c65-645f74656d70,rev?*%
%TF.SameCoordinates,Original*%
%TF.FileFunction,Copper,L1,Top*%
%TF.FilePolarity,Positive*%
%FSLAX46Y46*%
G04 Gerber Fmt 4.6, Leading zero omitted, Abs format (unit mm)*
G04 Created by KiCad (PCBNEW (5.1.6)-1) date 2020-11-25 02:59:11*
%MOMM*%
%LPD*%
G01*
G04 APERTURE LIST*
%TA.AperFunction,ComponentPad*%
%ADD10O,1.700000X1.700000*%
%TD*%
%TA.AperFunction,ComponentPad*%
%ADD11R,1.700000X1.700000*%
%TD*%
%TA.AperFunction,ComponentPad*%
%ADD12C,3.000000*%
%TD*%
%TA.AperFunction,ComponentPad*%
%ADD13R,3.000000X3.000000*%
%TD*%
%TA.AperFunction,SMDPad,CuDef*%
%ADD14R,0.650000X1.525000*%
%TD*%
%TA.AperFunction,SMDPad,CuDef*%
%ADD15R,0.250000X1.100000*%
%TD*%
%TA.AperFunction,ComponentPad*%
%ADD16C,2.340000*%
%TD*%
%TA.AperFunction,ComponentPad*%
%ADD17O,2.000000X1.905000*%
%TD*%
%TA.AperFunction,ComponentPad*%
%ADD18R,2.000000X1.905000*%
%TD*%
%TA.AperFunction,SMDPad,CuDef*%
%ADD19R,1.750000X3.200000*%
%TD*%
%TA.AperFunction,SMDPad,CuDef*%
%ADD20R,1.750000X0.950000*%
%TD*%
%TA.AperFunction,ViaPad*%
%ADD21C,0.800000*%
%TD*%
%TA.AperFunction,Conductor*%
%ADD22C,0.250000*%
%TD*%
%TA.AperFunction,Conductor*%
%ADD23C,0.500000*%
%TD*%
%TA.AperFunction,Conductor*%
%ADD24C,0.254000*%
%TD*%
G04 APERTURE END LIST*
D10*
%TO.P,TH3,2*%
%TO.N,NTC3*%
X110490000Y-101600000D03*
D11*
%TO.P,TH3,1*%
%TO.N,+5V*%
X113030000Y-101600000D03*
%TD*%
D10*
%TO.P,TH2,2*%
%TO.N,NTC2*%
X110490000Y-105410000D03*
D11*
%TO.P,TH2,1*%
%TO.N,+5V*%
X113030000Y-105410000D03*
%TD*%
D10*
%TO.P,TH1,2*%
%TO.N,NTC1*%
X118110000Y-101600000D03*
D11*
%TO.P,TH1,1*%
%TO.N,+5V*%
X120650000Y-101600000D03*
%TD*%
D12*
%TO.P,J3,2*%
%TO.N,Net-(J3-Pad2)*%
X163830000Y-114935000D03*
D13*
%TO.P,J3,1*%
%TO.N,+12V*%
X163830000Y-109855000D03*
%TD*%
%TO.P,C1,2*%
%TO.N,GND*%
%TA.AperFunction,SMDPad,CuDef*%
G36*
G01*
X157845000Y-102245000D02*
X157845000Y-103495000D01*
G75*
G02*
X157595000Y-103745000I-250000J0D01*
G01*
X156845000Y-103745000D01*
G75*
G02*
X156595000Y-103495000I0J250000D01*
G01*
X156595000Y-102245000D01*
G75*
G02*
X156845000Y-101995000I250000J0D01*
G01*
X157595000Y-101995000D01*
G75*
G02*
X157845000Y-102245000I0J-250000D01*
G01*
G37*
%TD.AperFunction*%
%TO.P,C1,1*%
%TO.N,+12V*%
%TA.AperFunction,SMDPad,CuDef*%
G36*
G01*
X160645000Y-102245000D02*
X160645000Y-103495000D01*
G75*
G02*
X160395000Y-103745000I-250000J0D01*
G01*
X159645000Y-103745000D01*
G75*
G02*
X159395000Y-103495000I0J250000D01*
G01*
X159395000Y-102245000D01*
G75*
G02*
X159645000Y-101995000I250000J0D01*
G01*
X160395000Y-101995000D01*
G75*
G02*
X160645000Y-102245000I0J-250000D01*
G01*
G37*
%TD.AperFunction*%
%TD*%
D11*
%TO.P,TH4,1*%
%TO.N,+5V*%
X113030000Y-97790000D03*
D10*
%TO.P,TH4,2*%
%TO.N,NTC4*%
X110490000Y-97790000D03*
%TD*%
D14*
%TO.P,IC2,16*%
%TO.N,+5V*%
X144145000Y-103214000D03*
%TO.P,IC2,15*%
%TO.N,LED3*%
X142875000Y-103214000D03*
%TO.P,IC2,14*%
%TO.N,LED2*%
X141605000Y-103214000D03*
%TO.P,IC2,13*%
%TO.N,LED1*%
X140335000Y-103214000D03*
%TO.P,IC2,12*%
%TO.N,LED4*%
X139065000Y-103214000D03*
%TO.P,IC2,11*%
%TO.N,DC*%
X137795000Y-103214000D03*
%TO.P,IC2,10*%
%TO.N,DB*%
X136525000Y-103214000D03*
%TO.P,IC2,9*%
%TO.N,DA*%
X135255000Y-103214000D03*
%TO.P,IC2,8*%
%TO.N,GND*%
X135255000Y-97790000D03*
%TO.P,IC2,7*%
X136525000Y-97790000D03*
%TO.P,IC2,6*%
%TO.N,INH*%
X137795000Y-97790000D03*
%TO.P,IC2,5*%
%TO.N,LED6*%
X139065000Y-97790000D03*
%TO.P,IC2,4*%
%TO.N,LED8*%
X140335000Y-97790000D03*
%TO.P,IC2,3*%
%TO.N,Net-(IC2-Pad3)*%
X141605000Y-97790000D03*
%TO.P,IC2,2*%
%TO.N,LED7*%
X142875000Y-97790000D03*
%TO.P,IC2,1*%
%TO.N,LED5*%
X144145000Y-97790000D03*
%TD*%
D15*
%TO.P,U3,10*%
%TO.N,SCL*%
X123460000Y-105410000D03*
%TO.P,U3,9*%
%TO.N,SDA*%
X123960000Y-105410000D03*
%TO.P,U3,8*%
%TO.N,+5V*%
X124460000Y-105410000D03*
%TO.P,U3,7*%
%TO.N,NTC4*%
X124960000Y-105410000D03*
%TO.P,U3,6*%
%TO.N,NTC3*%
X125460000Y-105410000D03*
%TO.P,U3,5*%
%TO.N,NTC2*%
X125460000Y-109710000D03*
%TO.P,U3,4*%
%TO.N,NTC1*%
X124960000Y-109710000D03*
%TO.P,U3,3*%
%TO.N,GND*%
X124460000Y-109710000D03*
%TO.P,U3,2*%
%TO.N,Net-(U3-Pad2)*%
X123960000Y-109710000D03*
%TO.P,U3,1*%
%TO.N,SCL*%
X123460000Y-109710000D03*
%TD*%
%TO.P,R7,2*%
%TO.N,Net-(Q1-Pad1)*%
%TA.AperFunction,SMDPad,CuDef*%
G36*
G01*
X159525000Y-98415000D02*
X159525000Y-97165000D01*
G75*
G02*
X159775000Y-96915000I250000J0D01*
G01*
X160525000Y-96915000D01*
G75*
G02*
X160775000Y-97165000I0J-250000D01*
G01*
X160775000Y-98415000D01*
G75*
G02*
X160525000Y-98665000I-250000J0D01*
G01*
X159775000Y-98665000D01*
G75*
G02*
X159525000Y-98415000I0J250000D01*
G01*
G37*
%TD.AperFunction*%
%TO.P,R7,1*%
%TO.N,GND*%
%TA.AperFunction,SMDPad,CuDef*%
G36*
G01*
X156725000Y-98415000D02*
X156725000Y-97165000D01*
G75*
G02*
X156975000Y-96915000I250000J0D01*
G01*
X157725000Y-96915000D01*
G75*
G02*
X157975000Y-97165000I0J-250000D01*
G01*
X157975000Y-98415000D01*
G75*
G02*
X157725000Y-98665000I-250000J0D01*
G01*
X156975000Y-98665000D01*
G75*
G02*
X156725000Y-98415000I0J250000D01*
G01*
G37*
%TD.AperFunction*%
%TD*%
%TO.P,R6,2*%
%TO.N,heater_PWN*%
%TA.AperFunction,SMDPad,CuDef*%
G36*
G01*
X157845000Y-99705000D02*
X157845000Y-100955000D01*
G75*
G02*
X157595000Y-101205000I-250000J0D01*
G01*
X156845000Y-101205000D01*
G75*
G02*
X156595000Y-100955000I0J250000D01*
G01*
X156595000Y-99705000D01*
G75*
G02*
X156845000Y-99455000I250000J0D01*
G01*
X157595000Y-99455000D01*
G75*
G02*
X157845000Y-99705000I0J-250000D01*
G01*
G37*
%TD.AperFunction*%
%TO.P,R6,1*%
%TO.N,Net-(Q1-Pad1)*%
%TA.AperFunction,SMDPad,CuDef*%
G36*
G01*
X160645000Y-99705000D02*
X160645000Y-100955000D01*
G75*
G02*
X160395000Y-101205000I-250000J0D01*
G01*
X159645000Y-101205000D01*
G75*
G02*
X159395000Y-100955000I0J250000D01*
G01*
X159395000Y-99705000D01*
G75*
G02*
X159645000Y-99455000I250000J0D01*
G01*
X160395000Y-99455000D01*
G75*
G02*
X160645000Y-99705000I0J-250000D01*
G01*
G37*
%TD.AperFunction*%
%TD*%
%TO.P,R5,2*%
%TO.N,GND*%
%TA.AperFunction,SMDPad,CuDef*%
G36*
G01*
X103495000Y-97165000D02*
X103495000Y-98415000D01*
G75*
G02*
X103245000Y-98665000I-250000J0D01*
G01*
X102495000Y-98665000D01*
G75*
G02*
X102245000Y-98415000I0J250000D01*
G01*
X102245000Y-97165000D01*
G75*
G02*
X102495000Y-96915000I250000J0D01*
G01*
X103245000Y-96915000D01*
G75*
G02*
X103495000Y-97165000I0J-250000D01*
G01*
G37*
%TD.AperFunction*%
%TO.P,R5,1*%
%TO.N,NTC4*%
%TA.AperFunction,SMDPad,CuDef*%
G36*
G01*
X106295000Y-97165000D02*
X106295000Y-98415000D01*
G75*
G02*
X106045000Y-98665000I-250000J0D01*
G01*
X105295000Y-98665000D01*
G75*
G02*
X105045000Y-98415000I0J250000D01*
G01*
X105045000Y-97165000D01*
G75*
G02*
X105295000Y-96915000I250000J0D01*
G01*
X106045000Y-96915000D01*
G75*
G02*
X106295000Y-97165000I0J-250000D01*
G01*
G37*
%TD.AperFunction*%
%TD*%
%TO.P,R4,2*%
%TO.N,GND*%
%TA.AperFunction,SMDPad,CuDef*%
G36*
G01*
X103365000Y-99705000D02*
X103365000Y-100955000D01*
G75*
G02*
X103115000Y-101205000I-250000J0D01*
G01*
X102365000Y-101205000D01*
G75*
G02*
X102115000Y-100955000I0J250000D01*
G01*
X102115000Y-99705000D01*
G75*
G02*
X102365000Y-99455000I250000J0D01*
G01*
X103115000Y-99455000D01*
G75*
G02*
X103365000Y-99705000I0J-250000D01*
G01*
G37*
%TD.AperFunction*%
%TO.P,R4,1*%
%TO.N,NTC3*%
%TA.AperFunction,SMDPad,CuDef*%
G36*
G01*
X106165000Y-99705000D02*
X106165000Y-100955000D01*
G75*
G02*
X105915000Y-101205000I-250000J0D01*
G01*
X105165000Y-101205000D01*
G75*
G02*
X104915000Y-100955000I0J250000D01*
G01*
X104915000Y-99705000D01*
G75*
G02*
X105165000Y-99455000I250000J0D01*
G01*
X105915000Y-99455000D01*
G75*
G02*
X106165000Y-99705000I0J-250000D01*
G01*
G37*
%TD.AperFunction*%
%TD*%
%TO.P,R3,2*%
%TO.N,GND*%
%TA.AperFunction,SMDPad,CuDef*%
G36*
G01*
X103365000Y-104785000D02*
X103365000Y-106035000D01*
G75*
G02*
X103115000Y-106285000I-250000J0D01*
G01*
X102365000Y-106285000D01*
G75*
G02*
X102115000Y-106035000I0J250000D01*
G01*
X102115000Y-104785000D01*
G75*
G02*
X102365000Y-104535000I250000J0D01*
G01*
X103115000Y-104535000D01*
G75*
G02*
X103365000Y-104785000I0J-250000D01*
G01*
G37*
%TD.AperFunction*%
%TO.P,R3,1*%
%TO.N,NTC2*%
%TA.AperFunction,SMDPad,CuDef*%
G36*
G01*
X106165000Y-104785000D02*
X106165000Y-106035000D01*
G75*
G02*
X105915000Y-106285000I-250000J0D01*
G01*
X105165000Y-106285000D01*
G75*
G02*
X104915000Y-106035000I0J250000D01*
G01*
X104915000Y-104785000D01*
G75*
G02*
X105165000Y-104535000I250000J0D01*
G01*
X105915000Y-104535000D01*
G75*
G02*
X106165000Y-104785000I0J-250000D01*
G01*
G37*
%TD.AperFunction*%
%TD*%
%TO.P,R2,2*%
%TO.N,GND*%
%TA.AperFunction,SMDPad,CuDef*%
G36*
G01*
X103365000Y-102245000D02*
X103365000Y-103495000D01*
G75*
G02*
X103115000Y-103745000I-250000J0D01*
G01*
X102365000Y-103745000D01*
G75*
G02*
X102115000Y-103495000I0J250000D01*
G01*
X102115000Y-102245000D01*
G75*
G02*
X102365000Y-101995000I250000J0D01*
G01*
X103115000Y-101995000D01*
G75*
G02*
X103365000Y-102245000I0J-250000D01*
G01*
G37*
%TD.AperFunction*%
%TO.P,R2,1*%
%TO.N,NTC1*%
%TA.AperFunction,SMDPad,CuDef*%
G36*
G01*
X106165000Y-102245000D02*
X106165000Y-103495000D01*
G75*
G02*
X105915000Y-103745000I-250000J0D01*
G01*
X105165000Y-103745000D01*
G75*
G02*
X104915000Y-103495000I0J250000D01*
G01*
X104915000Y-102245000D01*
G75*
G02*
X105165000Y-101995000I250000J0D01*
G01*
X105915000Y-101995000D01*
G75*
G02*
X106165000Y-102245000I0J-250000D01*
G01*
G37*
%TD.AperFunction*%
%TD*%
D16*
%TO.P,R1,1*%
%TO.N,GND*%
X110490000Y-110061398D03*
%TO.P,R1,2*%
%TO.N,Net-(D1-Pad1)*%
X100490000Y-112561398D03*
%TO.P,R1,3*%
%TO.N,N/C*%
X110490000Y-115061398D03*
%TD*%
D17*
%TO.P,Q1,3*%
%TO.N,GND*%
X153670000Y-109220000D03*
%TO.P,Q1,2*%
%TO.N,Net-(J3-Pad2)*%
X153670000Y-111760000D03*
D18*
%TO.P,Q1,1*%
%TO.N,Net-(Q1-Pad1)*%
X153670000Y-114300000D03*
%TD*%
D10*
%TO.P,J2,9*%
%TO.N,GND*%
X144780000Y-114300000D03*
%TO.P,J2,8*%
%TO.N,+12V*%
X142240000Y-114300000D03*
%TO.P,J2,7*%
%TO.N,heater_PWN*%
X139700000Y-114300000D03*
%TO.P,J2,6*%
%TO.N,INH*%
X137160000Y-114300000D03*
%TO.P,J2,5*%
%TO.N,DA*%
X134620000Y-114300000D03*
%TO.P,J2,4*%
%TO.N,DB*%
X132080000Y-114300000D03*
%TO.P,J2,3*%
%TO.N,DC*%
X129540000Y-114300000D03*
%TO.P,J2,2*%
%TO.N,SDA*%
X127000000Y-114300000D03*
D11*
%TO.P,J2,1*%
%TO.N,SCL*%
X124460000Y-114300000D03*
%TD*%
D10*
%TO.P,J1,4*%
%TO.N,GND*%
X138399669Y-107788560D03*
%TO.P,J1,3*%
%TO.N,+5V*%
X135859669Y-107788560D03*
%TO.P,J1,2*%
%TO.N,SDA*%
X133319669Y-107788560D03*
D11*
%TO.P,J1,1*%
%TO.N,SCL*%
X130779669Y-107788560D03*
%TD*%
D19*
%TO.P,IC1,4*%
%TO.N,GND*%
X120650000Y-114300000D03*
D20*
%TO.P,IC1,3*%
%TO.N,+5V*%
X114350000Y-116600000D03*
%TO.P,IC1,2*%
%TO.N,GND*%
X114350000Y-114300000D03*
%TO.P,IC1,1*%
%TO.N,+12V*%
X114350000Y-112000000D03*
%TD*%
D10*
%TO.P,D8,2*%
%TO.N,LED8*%
X164096279Y-93345000D03*
D11*
%TO.P,D8,1*%
%TO.N,Net-(D1-Pad1)*%
X166636279Y-93345000D03*
%TD*%
D10*
%TO.P,D7,2*%
%TO.N,LED7*%
X154940000Y-93345000D03*
D11*
%TO.P,D7,1*%
%TO.N,Net-(D1-Pad1)*%
X157480000Y-93345000D03*
%TD*%
D10*
%TO.P,D6,2*%
%TO.N,LED6*%
X146050000Y-93345000D03*
D11*
%TO.P,D6,1*%
%TO.N,Net-(D1-Pad1)*%
X148590000Y-93345000D03*
%TD*%
D10*
%TO.P,D5,2*%
%TO.N,LED5*%
X137160000Y-93345000D03*
D11*
%TO.P,D5,1*%
%TO.N,Net-(D1-Pad1)*%
X139700000Y-93345000D03*
%TD*%
D10*
%TO.P,D4,2*%
%TO.N,LED4*%
X128164893Y-93338336D03*
D11*
%TO.P,D4,1*%
%TO.N,Net-(D1-Pad1)*%
X130704893Y-93338336D03*
%TD*%
D10*
%TO.P,D3,2*%
%TO.N,LED3*%
X119144844Y-93338336D03*
D11*
%TO.P,D3,1*%
%TO.N,Net-(D1-Pad1)*%
X121684844Y-93338336D03*
%TD*%
D10*
%TO.P,D2,2*%
%TO.N,LED2*%
X109855000Y-93345000D03*
D11*
%TO.P,D2,1*%
%TO.N,Net-(D1-Pad1)*%
X112395000Y-93345000D03*
%TD*%
D10*
%TO.P,D1,2*%
%TO.N,LED1*%
X100965000Y-93345000D03*
D11*
%TO.P,D1,1*%
%TO.N,Net-(D1-Pad1)*%
X103505000Y-93345000D03*
%TD*%
%TO.P,C2,2*%
%TO.N,GND*%
%TA.AperFunction,SMDPad,CuDef*%
G36*
G01*
X146695000Y-108575000D02*
X146695000Y-107325000D01*
G75*
G02*
X146945000Y-107075000I250000J0D01*
G01*
X147695000Y-107075000D01*
G75*
G02*
X147945000Y-107325000I0J-250000D01*
G01*
X147945000Y-108575000D01*
G75*
G02*
X147695000Y-108825000I-250000J0D01*
G01*
X146945000Y-108825000D01*
G75*
G02*
X146695000Y-108575000I0J250000D01*
G01*
G37*
%TD.AperFunction*%
%TO.P,C2,1*%
%TO.N,+5V*%
%TA.AperFunction,SMDPad,CuDef*%
G36*
G01*
X143895000Y-108575000D02*
X143895000Y-107325000D01*
G75*
G02*
X144145000Y-107075000I250000J0D01*
G01*
X144895000Y-107075000D01*
G75*
G02*
X145145000Y-107325000I0J-250000D01*
G01*
X145145000Y-108575000D01*
G75*
G02*
X144895000Y-108825000I-250000J0D01*
G01*
X144145000Y-108825000D01*
G75*
G02*
X143895000Y-108575000I0J250000D01*
G01*
G37*
%TD.AperFunction*%
%TD*%
D21*
%TO.N,GND*%
X137795000Y-95250000D03*
X146050000Y-98425000D03*
X100965000Y-90805000D03*
X100965000Y-95250000D03*
X146050000Y-105410000D03*
X142875000Y-105410000D03*
X117475000Y-112395000D03*
%TO.N,+5V*%
X116840000Y-115570000D03*
X135890000Y-111125000D03*
X128270000Y-105410000D03*
%TO.N,LED4*%
X138430000Y-105410000D03*
%TO.N,DA*%
X135255000Y-104775000D03*
%TO.N,INH*%
X137795000Y-99060000D03*
%TO.N,heater_PWN*%
X155575000Y-100330000D03*
%TO.N,Net-(Q1-Pad1)*%
X161925000Y-100330000D03*
%TO.N,NTC4*%
X119380000Y-103505000D03*
%TD*%
D22*
%TO.N,GND*%
X124460000Y-108910000D02*
X124785000Y-108585000D01*
X124460000Y-109710000D02*
X124460000Y-108910000D01*
X124785000Y-108585000D02*
X125730000Y-108585000D01*
D23*
%TO.N,+12V*%
X162560000Y-105410000D02*
X160020000Y-102870000D01*
X144780000Y-116840000D02*
X142240000Y-114300000D01*
X140189999Y-116350001D02*
X142240000Y-114300000D01*
X114750000Y-112000000D02*
X119100001Y-116350001D01*
X119100001Y-116350001D02*
X140189999Y-116350001D01*
X114350000Y-112000000D02*
X114750000Y-112000000D01*
X165780001Y-111805001D02*
X163830000Y-109855000D01*
X165780001Y-115871001D02*
X165780001Y-111805001D01*
X155538231Y-116840000D02*
X155583232Y-116885001D01*
X164766001Y-116885001D02*
X165780001Y-115871001D01*
X155583232Y-116885001D02*
X164766001Y-116885001D01*
X144780000Y-116840000D02*
X155538231Y-116840000D01*
X163830000Y-106680000D02*
X162560000Y-105410000D01*
X163830000Y-109855000D02*
X163830000Y-106680000D01*
D22*
%TO.N,+5V*%
X144520000Y-103589000D02*
X144145000Y-103214000D01*
X144520000Y-107950000D02*
X144520000Y-103589000D01*
D23*
X114350000Y-116600000D02*
X115810000Y-116600000D01*
X115810000Y-116600000D02*
X116840000Y-115570000D01*
X116840000Y-115570000D02*
X116840000Y-115570000D01*
X144520000Y-107950000D02*
X141345000Y-111125000D01*
X141345000Y-111125000D02*
X135890000Y-111125000D01*
X135890000Y-111125000D02*
X135890000Y-111125000D01*
D22*
X124460000Y-106210000D02*
X124460000Y-105410000D01*
X124535001Y-106285001D02*
X124460000Y-106210000D01*
X127394999Y-106285001D02*
X124535001Y-106285001D01*
X128270000Y-105410000D02*
X127394999Y-106285001D01*
%TO.N,LED1*%
X140335000Y-102811498D02*
X140335000Y-103214000D01*
X109455988Y-99129990D02*
X109925999Y-99600001D01*
X105196800Y-99129990D02*
X109455988Y-99129990D01*
X130879990Y-99129990D02*
X133350000Y-101600000D01*
X133350000Y-101600000D02*
X139123502Y-101600000D01*
X103820010Y-96200010D02*
X103820010Y-97753200D01*
X100965000Y-93345000D02*
X103820010Y-96200010D01*
X109925999Y-99600001D02*
X119474999Y-99600001D01*
X119474999Y-99600001D02*
X119945011Y-99129990D01*
X103820010Y-97753200D02*
X105196800Y-99129990D01*
X119945011Y-99129990D02*
X130879990Y-99129990D01*
X139123502Y-101600000D02*
X140335000Y-102811498D01*
D23*
%TO.N,Net-(D1-Pad1)*%
X102204999Y-92044999D02*
X103505000Y-93345000D01*
X100340999Y-92044999D02*
X102204999Y-92044999D01*
X99664999Y-92720999D02*
X100340999Y-92044999D01*
X99664999Y-111094999D02*
X99664999Y-92720999D01*
X100965000Y-112395000D02*
X99664999Y-111094999D01*
X104805001Y-92044999D02*
X111094999Y-92044999D01*
X111094999Y-92044999D02*
X112395000Y-93345000D01*
X103505000Y-93345000D02*
X104805001Y-92044999D01*
X120384843Y-92038335D02*
X121684844Y-93338336D01*
X113701665Y-92038335D02*
X120384843Y-92038335D01*
X112395000Y-93345000D02*
X113701665Y-92038335D01*
X129404892Y-92038335D02*
X130704893Y-93338336D01*
X122984845Y-92038335D02*
X129404892Y-92038335D01*
X121684844Y-93338336D02*
X122984845Y-92038335D01*
X138399999Y-92044999D02*
X139700000Y-93345000D01*
X131998230Y-92044999D02*
X138399999Y-92044999D01*
X130704893Y-93338336D02*
X131998230Y-92044999D01*
X147289999Y-92044999D02*
X148590000Y-93345000D01*
X141000001Y-92044999D02*
X147289999Y-92044999D01*
X139700000Y-93345000D02*
X141000001Y-92044999D01*
D22*
%TO.N,LED2*%
X112045003Y-94520001D02*
X114300000Y-96774998D01*
X109855000Y-93345000D02*
X111030001Y-94520001D01*
X111030001Y-94520001D02*
X112045003Y-94520001D01*
X114554998Y-96774998D02*
X116459980Y-98679980D01*
X114300000Y-96774998D02*
X114554998Y-96774998D01*
X116459980Y-98679980D02*
X131066391Y-98679981D01*
X141605000Y-102811498D02*
X141605000Y-103214000D01*
X133536400Y-101149990D02*
X139943492Y-101149990D01*
X139943492Y-101149990D02*
X141605000Y-102811498D01*
X131066391Y-98679981D02*
X133536400Y-101149990D01*
%TO.N,LED3*%
X142875000Y-102811498D02*
X142875000Y-103214000D01*
X140763482Y-100699980D02*
X142875000Y-102811498D01*
X119144844Y-93338336D02*
X119144844Y-96284844D01*
X119144844Y-96284844D02*
X120650000Y-97790000D01*
X133722800Y-100699980D02*
X140763482Y-100699980D01*
X120650000Y-97790000D02*
X130812820Y-97790000D01*
X130812820Y-97790000D02*
X133722800Y-100699980D01*
%TO.N,LED4*%
X139065000Y-104775000D02*
X139065000Y-103214000D01*
X138430000Y-105410000D02*
X139065000Y-104775000D01*
%TO.N,LED5*%
X144145000Y-98802500D02*
X144145000Y-97790000D01*
X144145000Y-99534940D02*
X144145000Y-97790000D01*
X134604999Y-95900001D02*
X134604999Y-99679999D01*
X137160000Y-93345000D02*
X134604999Y-95900001D01*
X134604999Y-99679999D02*
X135174970Y-100249970D01*
X135174970Y-100249970D02*
X143429970Y-100249970D01*
X143429970Y-100249970D02*
X144145000Y-99534940D01*
%TO.N,LED6*%
X139065000Y-96777500D02*
X139065000Y-97790000D01*
X142497500Y-93345000D02*
X139065000Y-96777500D01*
X146050000Y-93345000D02*
X142497500Y-93345000D01*
%TO.N,LED7*%
X142875000Y-96777500D02*
X142875000Y-97790000D01*
X151582501Y-96702499D02*
X142950001Y-96702499D01*
X142950001Y-96702499D02*
X142875000Y-96777500D01*
X154940000Y-93345000D02*
X151582501Y-96702499D01*
%TO.N,LED8*%
X140335000Y-96777500D02*
X140335000Y-97790000D01*
X140860011Y-96252489D02*
X140335000Y-96777500D01*
X147967513Y-96252489D02*
X140860011Y-96252489D01*
X152050003Y-92169999D02*
X147967513Y-96252489D01*
X162921278Y-92169999D02*
X152050003Y-92169999D01*
X164096279Y-93345000D02*
X162921278Y-92169999D01*
%TO.N,DC*%
X137224668Y-103784332D02*
X137795000Y-103214000D01*
X137224668Y-108162563D02*
X137224668Y-103784332D01*
X133444999Y-111942232D02*
X137224668Y-108162563D01*
X133444999Y-114840001D02*
X133444999Y-111942232D01*
X132809999Y-115475001D02*
X133444999Y-114840001D01*
X130715001Y-115475001D02*
X132809999Y-115475001D01*
X129540000Y-114300000D02*
X130715001Y-115475001D01*
%TO.N,DB*%
X136525000Y-102201500D02*
X136525000Y-103214000D01*
X134669999Y-102126499D02*
X136449999Y-102126499D01*
X134494670Y-102301828D02*
X134669999Y-102126499D01*
X134494670Y-108352561D02*
X134494670Y-102301828D01*
X132080000Y-110767231D02*
X134494670Y-108352561D01*
X136449999Y-102126499D02*
X136525000Y-102201500D01*
X132080000Y-114300000D02*
X132080000Y-110767231D01*
%TO.N,DA*%
X135255000Y-104775000D02*
X135255000Y-103214000D01*
%TO.N,INH*%
X137795000Y-99060000D02*
X137795000Y-97790000D01*
%TO.N,SDA*%
X133319669Y-107980331D02*
X133319669Y-107788560D01*
X127000000Y-114300000D02*
X133319669Y-107980331D01*
X123960000Y-105410000D02*
X123960000Y-106346410D01*
X123960000Y-106346410D02*
X124348601Y-106735011D01*
X124348601Y-106735011D02*
X129548216Y-106735011D01*
X132144668Y-106613559D02*
X133319669Y-107788560D01*
X129669668Y-106613559D02*
X132144668Y-106613559D01*
X129548216Y-106735011D02*
X129669668Y-106613559D01*
%TO.N,SCL*%
X124460000Y-114108229D02*
X130779669Y-107788560D01*
X124460000Y-114300000D02*
X124460000Y-114108229D01*
X123460000Y-108949998D02*
X123460000Y-109710000D01*
X124621438Y-107788560D02*
X123460000Y-108949998D01*
X130779669Y-107788560D02*
X124621438Y-107788560D01*
X123460000Y-106627122D02*
X123460000Y-105410000D01*
X124621438Y-107788560D02*
X123460000Y-106627122D01*
%TO.N,heater_PWN*%
X157220000Y-100330000D02*
X155575000Y-100330000D01*
X155575000Y-100330000D02*
X155575000Y-100330000D01*
D23*
%TO.N,Net-(J3-Pad2)*%
X153892502Y-111760000D02*
X153670000Y-111760000D01*
X163830000Y-114935000D02*
X157067502Y-114935000D01*
X157067502Y-114935000D02*
X153892502Y-111760000D01*
D22*
%TO.N,Net-(Q1-Pad1)*%
X161925000Y-100330000D02*
X160020000Y-100330000D01*
X160020000Y-97920000D02*
X160150000Y-97790000D01*
X160020000Y-100330000D02*
X160020000Y-97920000D01*
%TO.N,NTC1*%
X118110000Y-105620002D02*
X118110000Y-101600000D01*
X123074999Y-110585001D02*
X118110000Y-105620002D01*
X124884999Y-110585001D02*
X123074999Y-110585001D01*
X124960000Y-110510000D02*
X124884999Y-110585001D01*
X124960000Y-109710000D02*
X124960000Y-110510000D01*
X116840000Y-102870000D02*
X105540000Y-102870000D01*
X118110000Y-101600000D02*
X116840000Y-102870000D01*
%TO.N,NTC2*%
X125460000Y-110646410D02*
X125460000Y-109710000D01*
X125071400Y-111035010D02*
X125460000Y-110646410D01*
X116115010Y-111035010D02*
X125071400Y-111035010D01*
X110490000Y-105410000D02*
X116115010Y-111035010D01*
X110490000Y-105410000D02*
X105540000Y-105410000D01*
%TO.N,NTC3*%
X106810000Y-101600000D02*
X105540000Y-100330000D01*
X110490000Y-101600000D02*
X106810000Y-101600000D01*
X111665001Y-100424999D02*
X110490000Y-101600000D01*
X123399999Y-100424999D02*
X111665001Y-100424999D01*
X125460000Y-102485000D02*
X123399999Y-100424999D01*
X125460000Y-105410000D02*
X125460000Y-102485000D01*
%TO.N,NTC4*%
X109855000Y-97790000D02*
X110490000Y-98425000D01*
X105670000Y-97790000D02*
X109855000Y-97790000D01*
X124960000Y-104610000D02*
X123855000Y-103505000D01*
X124960000Y-105410000D02*
X124960000Y-104610000D01*
X123855000Y-103505000D02*
X119380000Y-103505000D01*
X119380000Y-103505000D02*
X119380000Y-103505000D01*
%TD*%
D24*
%TO.N,GND*%
G36*
X168250001Y-97109877D02*
G01*
X168246808Y-97142289D01*
X168250001Y-97174718D01*
X168250001Y-97174725D01*
X168252185Y-97196904D01*
X168259547Y-97271671D01*
X168259550Y-97271682D01*
X168259551Y-97271689D01*
X168272689Y-97314998D01*
X168297284Y-97396082D01*
X168297288Y-97396090D01*
X168297291Y-97396099D01*
X168326904Y-97451501D01*
X168358566Y-97510741D01*
X168358572Y-97510748D01*
X168358576Y-97510756D01*
X168399618Y-97560765D01*
X168441040Y-97611241D01*
X168441047Y-97611247D01*
X168441053Y-97611254D01*
X168491514Y-97652666D01*
X168541536Y-97693721D01*
X168541544Y-97693725D01*
X168541551Y-97693731D01*
X168597395Y-97723580D01*
X168656191Y-97755009D01*
X168656200Y-97755012D01*
X168656208Y-97755016D01*
X168725602Y-97776067D01*
X168780600Y-97792752D01*
X168780607Y-97792753D01*
X168780618Y-97792756D01*
X168783000Y-97792991D01*
X168783000Y-103489315D01*
X168780631Y-103489548D01*
X168780628Y-103489549D01*
X168780617Y-103489550D01*
X168689986Y-103517043D01*
X168656221Y-103527285D01*
X168656218Y-103527287D01*
X168656207Y-103527290D01*
X168566622Y-103575174D01*
X168541562Y-103588568D01*
X168541560Y-103588570D01*
X168541550Y-103588575D01*
X168466643Y-103650050D01*
X168441063Y-103671042D01*
X168441061Y-103671045D01*
X168441052Y-103671052D01*
X168396777Y-103725002D01*
X168358583Y-103771539D01*
X168358580Y-103771545D01*
X168358575Y-103771551D01*
X168339682Y-103806898D01*
X168297296Y-103886194D01*
X168297294Y-103886200D01*
X168297290Y-103886208D01*
X168275241Y-103958894D01*
X168259553Y-104010604D01*
X168259552Y-104010610D01*
X168259550Y-104010618D01*
X168253702Y-104069999D01*
X168246808Y-104139986D01*
X168250000Y-104172403D01*
X168250001Y-112997572D01*
X168250000Y-112997582D01*
X168250001Y-117450000D01*
X165452580Y-117450000D01*
X166375051Y-116527530D01*
X166408818Y-116499818D01*
X166456109Y-116442195D01*
X166519412Y-116365060D01*
X166601590Y-116211315D01*
X166652196Y-116044491D01*
X166652196Y-116044490D01*
X166665001Y-115914478D01*
X166665001Y-115914470D01*
X166669282Y-115871001D01*
X166665001Y-115827532D01*
X166665001Y-111848470D01*
X166669282Y-111805001D01*
X166665001Y-111761532D01*
X166665001Y-111761524D01*
X166652196Y-111631511D01*
X166601590Y-111464688D01*
X166519412Y-111310942D01*
X166488829Y-111273677D01*
X166436533Y-111209954D01*
X166436531Y-111209952D01*
X166408818Y-111176184D01*
X166375050Y-111148471D01*
X165968072Y-110741493D01*
X165968072Y-108355000D01*
X165955812Y-108230518D01*
X165919502Y-108110820D01*
X165860537Y-108000506D01*
X165781185Y-107903815D01*
X165684494Y-107824463D01*
X165574180Y-107765498D01*
X165454482Y-107729188D01*
X165330000Y-107716928D01*
X164715000Y-107716928D01*
X164715000Y-106723465D01*
X164719281Y-106679999D01*
X164715000Y-106636533D01*
X164715000Y-106636523D01*
X164702195Y-106506510D01*
X164651589Y-106339687D01*
X164569411Y-106185941D01*
X164528438Y-106136016D01*
X164486532Y-106084953D01*
X164486530Y-106084951D01*
X164458817Y-106051183D01*
X164425049Y-106023470D01*
X163216536Y-104814958D01*
X163216532Y-104814953D01*
X161283072Y-102881494D01*
X161283072Y-102245000D01*
X161266008Y-102071746D01*
X161215472Y-101905150D01*
X161133405Y-101751614D01*
X161022962Y-101617038D01*
X161002201Y-101600000D01*
X161022962Y-101582962D01*
X161133405Y-101448386D01*
X161215472Y-101294850D01*
X161264503Y-101133214D01*
X161265226Y-101133937D01*
X161434744Y-101247205D01*
X161623102Y-101325226D01*
X161823061Y-101365000D01*
X162026939Y-101365000D01*
X162226898Y-101325226D01*
X162415256Y-101247205D01*
X162584774Y-101133937D01*
X162728937Y-100989774D01*
X162842205Y-100820256D01*
X162920226Y-100631898D01*
X162960000Y-100431939D01*
X162960000Y-100228061D01*
X162920226Y-100028102D01*
X162842205Y-99839744D01*
X162728937Y-99670226D01*
X162584774Y-99526063D01*
X162415256Y-99412795D01*
X162226898Y-99334774D01*
X162026939Y-99295000D01*
X161823061Y-99295000D01*
X161623102Y-99334774D01*
X161434744Y-99412795D01*
X161265226Y-99526063D01*
X161264503Y-99526786D01*
X161215472Y-99365150D01*
X161133405Y-99211614D01*
X161058570Y-99120427D01*
X161152962Y-99042962D01*
X161263405Y-98908386D01*
X161345472Y-98754850D01*
X161396008Y-98588254D01*
X161413072Y-98415000D01*
X161413072Y-97165000D01*
X161396008Y-96991746D01*
X161345472Y-96825150D01*
X161263405Y-96671614D01*
X161152962Y-96537038D01*
X161018386Y-96426595D01*
X160864850Y-96344528D01*
X160698254Y-96293992D01*
X160525000Y-96276928D01*
X159775000Y-96276928D01*
X159601746Y-96293992D01*
X159435150Y-96344528D01*
X159281614Y-96426595D01*
X159147038Y-96537038D01*
X159036595Y-96671614D01*
X158954528Y-96825150D01*
X158903992Y-96991746D01*
X158886928Y-97165000D01*
X158886928Y-98415000D01*
X158903992Y-98588254D01*
X158954528Y-98754850D01*
X159036595Y-98908386D01*
X159111430Y-98999573D01*
X159017038Y-99077038D01*
X158906595Y-99211614D01*
X158824528Y-99365150D01*
X158773992Y-99531746D01*
X158756928Y-99705000D01*
X158756928Y-100955000D01*
X158773992Y-101128254D01*
X158824528Y-101294850D01*
X158906595Y-101448386D01*
X159017038Y-101582962D01*
X159037799Y-101600000D01*
X159017038Y-101617038D01*
X158906595Y-101751614D01*
X158824528Y-101905150D01*
X158773992Y-102071746D01*
X158756928Y-102245000D01*
X158756928Y-103495000D01*
X158773992Y-103668254D01*
X158824528Y-103834850D01*
X158906595Y-103988386D01*
X159017038Y-104122962D01*
X159151614Y-104233405D01*
X159305150Y-104315472D01*
X159471746Y-104366008D01*
X159645000Y-104383072D01*
X160281494Y-104383072D01*
X161964953Y-106066532D01*
X161964958Y-106066536D01*
X162945001Y-107046580D01*
X162945001Y-107716928D01*
X162330000Y-107716928D01*
X162205518Y-107729188D01*
X162085820Y-107765498D01*
X161975506Y-107824463D01*
X161878815Y-107903815D01*
X161799463Y-108000506D01*
X161740498Y-108110820D01*
X161704188Y-108230518D01*
X161691928Y-108355000D01*
X161691928Y-111355000D01*
X161704188Y-111479482D01*
X161740498Y-111599180D01*
X161799463Y-111709494D01*
X161878815Y-111806185D01*
X161975506Y-111885537D01*
X162085820Y-111944502D01*
X162205518Y-111980812D01*
X162330000Y-111993072D01*
X164716493Y-111993072D01*
X164895002Y-112171581D01*
X164895002Y-113078869D01*
X164841302Y-113042988D01*
X164452756Y-112882047D01*
X164040279Y-112800000D01*
X163619721Y-112800000D01*
X163207244Y-112882047D01*
X162818698Y-113042988D01*
X162469017Y-113276637D01*
X162171637Y-113574017D01*
X161937988Y-113923698D01*
X161885672Y-114050000D01*
X157434081Y-114050000D01*
X155297564Y-111913484D01*
X155312681Y-111760000D01*
X155282030Y-111448796D01*
X155191255Y-111149551D01*
X155043845Y-110873765D01*
X154845463Y-110632037D01*
X154666101Y-110484837D01*
X154851315Y-110329437D01*
X155045969Y-110086923D01*
X155189571Y-109811094D01*
X155260563Y-109592980D01*
X155140594Y-109347000D01*
X153797000Y-109347000D01*
X153797000Y-109367000D01*
X153543000Y-109367000D01*
X153543000Y-109347000D01*
X152199406Y-109347000D01*
X152079437Y-109592980D01*
X152150429Y-109811094D01*
X152294031Y-110086923D01*
X152488685Y-110329437D01*
X152673899Y-110484837D01*
X152494537Y-110632037D01*
X152296155Y-110873765D01*
X152148745Y-111149551D01*
X152057970Y-111448796D01*
X152027319Y-111760000D01*
X152057970Y-112071204D01*
X152148745Y-112370449D01*
X152296155Y-112646235D01*
X152399446Y-112772095D01*
X152315506Y-112816963D01*
X152218815Y-112896315D01*
X152139463Y-112993006D01*
X152080498Y-113103320D01*
X152044188Y-113223018D01*
X152031928Y-113347500D01*
X152031928Y-115252500D01*
X152044188Y-115376982D01*
X152080498Y-115496680D01*
X152139463Y-115606994D01*
X152218815Y-115703685D01*
X152315506Y-115783037D01*
X152425820Y-115842002D01*
X152545518Y-115878312D01*
X152670000Y-115890572D01*
X154670000Y-115890572D01*
X154794482Y-115878312D01*
X154914180Y-115842002D01*
X155024494Y-115783037D01*
X155121185Y-115703685D01*
X155200537Y-115606994D01*
X155259502Y-115496680D01*
X155295812Y-115376982D01*
X155308072Y-115252500D01*
X155308072Y-114427149D01*
X156410972Y-115530049D01*
X156438685Y-115563817D01*
X156472453Y-115591530D01*
X156472455Y-115591532D01*
X156543954Y-115650210D01*
X156573443Y-115674411D01*
X156727189Y-115756589D01*
X156894012Y-115807195D01*
X157024025Y-115820000D01*
X157024035Y-115820000D01*
X157067501Y-115824281D01*
X157110968Y-115820000D01*
X161885672Y-115820000D01*
X161937988Y-115946302D01*
X161973868Y-116000001D01*
X155817855Y-116000001D01*
X155711721Y-115967805D01*
X155581708Y-115955000D01*
X155581700Y-115955000D01*
X155538231Y-115950719D01*
X155494762Y-115955000D01*
X145146579Y-115955000D01*
X144907002Y-115715423D01*
X144907002Y-115620156D01*
X145136890Y-115741476D01*
X145284099Y-115696825D01*
X145546920Y-115571641D01*
X145780269Y-115397588D01*
X145975178Y-115181355D01*
X146124157Y-114931252D01*
X146221481Y-114656891D01*
X146100814Y-114427000D01*
X144907000Y-114427000D01*
X144907000Y-114447000D01*
X144653000Y-114447000D01*
X144653000Y-114427000D01*
X144633000Y-114427000D01*
X144633000Y-114173000D01*
X144653000Y-114173000D01*
X144653000Y-112979845D01*
X144907000Y-112979845D01*
X144907000Y-114173000D01*
X146100814Y-114173000D01*
X146221481Y-113943109D01*
X146124157Y-113668748D01*
X145975178Y-113418645D01*
X145780269Y-113202412D01*
X145546920Y-113028359D01*
X145284099Y-112903175D01*
X145136890Y-112858524D01*
X144907000Y-112979845D01*
X144653000Y-112979845D01*
X144423110Y-112858524D01*
X144275901Y-112903175D01*
X144013080Y-113028359D01*
X143779731Y-113202412D01*
X143584822Y-113418645D01*
X143515195Y-113535534D01*
X143393475Y-113353368D01*
X143186632Y-113146525D01*
X142943411Y-112984010D01*
X142673158Y-112872068D01*
X142386260Y-112815000D01*
X142093740Y-112815000D01*
X141806842Y-112872068D01*
X141536589Y-112984010D01*
X141293368Y-113146525D01*
X141086525Y-113353368D01*
X140970000Y-113527760D01*
X140853475Y-113353368D01*
X140646632Y-113146525D01*
X140403411Y-112984010D01*
X140133158Y-112872068D01*
X139846260Y-112815000D01*
X139553740Y-112815000D01*
X139266842Y-112872068D01*
X138996589Y-112984010D01*
X138753368Y-113146525D01*
X138546525Y-113353368D01*
X138430000Y-113527760D01*
X138313475Y-113353368D01*
X138106632Y-113146525D01*
X137863411Y-112984010D01*
X137593158Y-112872068D01*
X137306260Y-112815000D01*
X137013740Y-112815000D01*
X136726842Y-112872068D01*
X136456589Y-112984010D01*
X136213368Y-113146525D01*
X136006525Y-113353368D01*
X135890000Y-113527760D01*
X135773475Y-113353368D01*
X135566632Y-113146525D01*
X135323411Y-112984010D01*
X135053158Y-112872068D01*
X134766260Y-112815000D01*
X134473740Y-112815000D01*
X134204999Y-112868456D01*
X134204999Y-112257033D01*
X134935885Y-111526147D01*
X134972795Y-111615256D01*
X135086063Y-111784774D01*
X135230226Y-111928937D01*
X135399744Y-112042205D01*
X135588102Y-112120226D01*
X135788061Y-112160000D01*
X135991939Y-112160000D01*
X136191898Y-112120226D01*
X136380256Y-112042205D01*
X136428454Y-112010000D01*
X141301531Y-112010000D01*
X141345000Y-112014281D01*
X141388469Y-112010000D01*
X141388477Y-112010000D01*
X141518490Y-111997195D01*
X141685313Y-111946589D01*
X141839059Y-111864411D01*
X141973817Y-111753817D01*
X142001534Y-111720044D01*
X144258507Y-109463072D01*
X144895000Y-109463072D01*
X145068254Y-109446008D01*
X145234850Y-109395472D01*
X145388386Y-109313405D01*
X145522962Y-109202962D01*
X145633405Y-109068386D01*
X145715472Y-108914850D01*
X145742727Y-108825000D01*
X146056928Y-108825000D01*
X146069188Y-108949482D01*
X146105498Y-109069180D01*
X146164463Y-109179494D01*
X146243815Y-109276185D01*
X146340506Y-109355537D01*
X146450820Y-109414502D01*
X146570518Y-109450812D01*
X146695000Y-109463072D01*
X147034250Y-109460000D01*
X147193000Y-109301250D01*
X147193000Y-108077000D01*
X147447000Y-108077000D01*
X147447000Y-109301250D01*
X147605750Y-109460000D01*
X147945000Y-109463072D01*
X148069482Y-109450812D01*
X148189180Y-109414502D01*
X148299494Y-109355537D01*
X148396185Y-109276185D01*
X148475537Y-109179494D01*
X148534502Y-109069180D01*
X148570812Y-108949482D01*
X148580903Y-108847020D01*
X152079437Y-108847020D01*
X152199406Y-109093000D01*
X153543000Y-109093000D01*
X153543000Y-107794430D01*
X153797000Y-107794430D01*
X153797000Y-109093000D01*
X155140594Y-109093000D01*
X155260563Y-108847020D01*
X155189571Y-108628906D01*
X155045969Y-108353077D01*
X154851315Y-108110563D01*
X154613089Y-107910684D01*
X154340446Y-107761121D01*
X154043863Y-107667622D01*
X153797000Y-107794430D01*
X153543000Y-107794430D01*
X153296137Y-107667622D01*
X152999554Y-107761121D01*
X152726911Y-107910684D01*
X152488685Y-108110563D01*
X152294031Y-108353077D01*
X152150429Y-108628906D01*
X152079437Y-108847020D01*
X148580903Y-108847020D01*
X148583072Y-108825000D01*
X148580000Y-108235750D01*
X148421250Y-108077000D01*
X147447000Y-108077000D01*
X147193000Y-108077000D01*
X146218750Y-108077000D01*
X146060000Y-108235750D01*
X146056928Y-108825000D01*
X145742727Y-108825000D01*
X145766008Y-108748254D01*
X145783072Y-108575000D01*
X145783072Y-107325000D01*
X145766008Y-107151746D01*
X145742728Y-107075000D01*
X146056928Y-107075000D01*
X146060000Y-107664250D01*
X146218750Y-107823000D01*
X147193000Y-107823000D01*
X147193000Y-106598750D01*
X147447000Y-106598750D01*
X147447000Y-107823000D01*
X148421250Y-107823000D01*
X148580000Y-107664250D01*
X148583072Y-107075000D01*
X148570812Y-106950518D01*
X148534502Y-106830820D01*
X148475537Y-106720506D01*
X148396185Y-106623815D01*
X148299494Y-106544463D01*
X148189180Y-106485498D01*
X148069482Y-106449188D01*
X147945000Y-106436928D01*
X147605750Y-106440000D01*
X147447000Y-106598750D01*
X147193000Y-106598750D01*
X147034250Y-106440000D01*
X146695000Y-106436928D01*
X146570518Y-106449188D01*
X146450820Y-106485498D01*
X146340506Y-106544463D01*
X146243815Y-106623815D01*
X146164463Y-106720506D01*
X146105498Y-106830820D01*
X146069188Y-106950518D01*
X146056928Y-107075000D01*
X145742728Y-107075000D01*
X145715472Y-106985150D01*
X145633405Y-106831614D01*
X145522962Y-106697038D01*
X145388386Y-106586595D01*
X145280000Y-106528661D01*
X145280000Y-103745000D01*
X155956928Y-103745000D01*
X155969188Y-103869482D01*
X156005498Y-103989180D01*
X156064463Y-104099494D01*
X156143815Y-104196185D01*
X156240506Y-104275537D01*
X156350820Y-104334502D01*
X156470518Y-104370812D01*
X156595000Y-104383072D01*
X156934250Y-104380000D01*
X157093000Y-104221250D01*
X157093000Y-102997000D01*
X157347000Y-102997000D01*
X157347000Y-104221250D01*
X157505750Y-104380000D01*
X157845000Y-104383072D01*
X157969482Y-104370812D01*
X158089180Y-104334502D01*
X158199494Y-104275537D01*
X158296185Y-104196185D01*
X158375537Y-104099494D01*
X158434502Y-103989180D01*
X158470812Y-103869482D01*
X158483072Y-103745000D01*
X158480000Y-103155750D01*
X158321250Y-102997000D01*
X157347000Y-102997000D01*
X157093000Y-102997000D01*
X156118750Y-102997000D01*
X155960000Y-103155750D01*
X155956928Y-103745000D01*
X145280000Y-103745000D01*
X145280000Y-103626322D01*
X145283676Y-103588999D01*
X145280000Y-103551676D01*
X145280000Y-103551667D01*
X145269003Y-103440014D01*
X145225546Y-103296753D01*
X145154974Y-103164724D01*
X145108072Y-103107574D01*
X145108072Y-102451500D01*
X145095812Y-102327018D01*
X145059502Y-102207320D01*
X145000537Y-102097006D01*
X144921185Y-102000315D01*
X144824494Y-101920963D01*
X144714180Y-101861998D01*
X144594482Y-101825688D01*
X144470000Y-101813428D01*
X143820000Y-101813428D01*
X143695518Y-101825688D01*
X143575820Y-101861998D01*
X143510000Y-101897180D01*
X143444180Y-101861998D01*
X143324482Y-101825688D01*
X143200000Y-101813428D01*
X142951733Y-101813428D01*
X142148274Y-101009970D01*
X143392648Y-101009970D01*
X143429970Y-101013646D01*
X143467292Y-101009970D01*
X143467303Y-101009970D01*
X143578956Y-100998973D01*
X143722217Y-100955516D01*
X143854246Y-100884944D01*
X143969971Y-100789971D01*
X143993773Y-100760968D01*
X144526680Y-100228061D01*
X154540000Y-100228061D01*
X154540000Y-100431939D01*
X154579774Y-100631898D01*
X154657795Y-100820256D01*
X154771063Y-100989774D01*
X154915226Y-101133937D01*
X155084744Y-101247205D01*
X155273102Y-101325226D01*
X155473061Y-101365000D01*
X155676939Y-101365000D01*
X155876898Y-101325226D01*
X156016235Y-101267510D01*
X156024528Y-101294850D01*
X156106595Y-101448386D01*
X156168372Y-101523662D01*
X156143815Y-101543815D01*
X156064463Y-101640506D01*
X156005498Y-101750820D01*
X155969188Y-101870518D01*
X155956928Y-101995000D01*
X155960000Y-102584250D01*
X156118750Y-102743000D01*
X157093000Y-102743000D01*
X157093000Y-102723000D01*
X157347000Y-102723000D01*
X157347000Y-102743000D01*
X158321250Y-102743000D01*
X158480000Y-102584250D01*
X158483072Y-101995000D01*
X158470812Y-101870518D01*
X158434502Y-101750820D01*
X158375537Y-101640506D01*
X158296185Y-101543815D01*
X158271628Y-101523662D01*
X158333405Y-101448386D01*
X158415472Y-101294850D01*
X158466008Y-101128254D01*
X158483072Y-100955000D01*
X158483072Y-99705000D01*
X158466008Y-99531746D01*
X158415472Y-99365150D01*
X158333405Y-99211614D01*
X158323042Y-99198986D01*
X158329494Y-99195537D01*
X158426185Y-99116185D01*
X158505537Y-99019494D01*
X158564502Y-98909180D01*
X158600812Y-98789482D01*
X158613072Y-98665000D01*
X158610000Y-98075750D01*
X158451250Y-97917000D01*
X157477000Y-97917000D01*
X157477000Y-97937000D01*
X157223000Y-97937000D01*
X157223000Y-97917000D01*
X156248750Y-97917000D01*
X156090000Y-98075750D01*
X156086928Y-98665000D01*
X156099188Y-98789482D01*
X156135498Y-98909180D01*
X156194463Y-99019494D01*
X156231768Y-99064950D01*
X156217038Y-99077038D01*
X156106595Y-99211614D01*
X156024528Y-99365150D01*
X156016235Y-99392490D01*
X155876898Y-99334774D01*
X155676939Y-99295000D01*
X155473061Y-99295000D01*
X155273102Y-99334774D01*
X155084744Y-99412795D01*
X154915226Y-99526063D01*
X154771063Y-99670226D01*
X154657795Y-99839744D01*
X154579774Y-100028102D01*
X154540000Y-100228061D01*
X144526680Y-100228061D01*
X144656004Y-100098738D01*
X144685001Y-100074941D01*
X144726581Y-100024276D01*
X144779974Y-99959217D01*
X144850546Y-99827187D01*
X144861819Y-99790025D01*
X144894003Y-99683926D01*
X144905000Y-99572273D01*
X144905000Y-99572264D01*
X144908676Y-99534941D01*
X144905000Y-99497618D01*
X144905000Y-99016968D01*
X144921185Y-99003685D01*
X145000537Y-98906994D01*
X145059502Y-98796680D01*
X145095812Y-98676982D01*
X145108072Y-98552500D01*
X145108072Y-97462499D01*
X151545179Y-97462499D01*
X151582501Y-97466175D01*
X151619823Y-97462499D01*
X151619834Y-97462499D01*
X151731487Y-97451502D01*
X151874748Y-97408045D01*
X152006777Y-97337473D01*
X152122502Y-97242500D01*
X152146305Y-97213496D01*
X152444801Y-96915000D01*
X156086928Y-96915000D01*
X156090000Y-97504250D01*
X156248750Y-97663000D01*
X157223000Y-97663000D01*
X157223000Y-96438750D01*
X157477000Y-96438750D01*
X157477000Y-97663000D01*
X158451250Y-97663000D01*
X158610000Y-97504250D01*
X158613072Y-96915000D01*
X158600812Y-96790518D01*
X158564502Y-96670820D01*
X158505537Y-96560506D01*
X158426185Y-96463815D01*
X158329494Y-96384463D01*
X158219180Y-96325498D01*
X158099482Y-96289188D01*
X157975000Y-96276928D01*
X157635750Y-96280000D01*
X157477000Y-96438750D01*
X157223000Y-96438750D01*
X157064250Y-96280000D01*
X156725000Y-96276928D01*
X156600518Y-96289188D01*
X156480820Y-96325498D01*
X156370506Y-96384463D01*
X156273815Y-96463815D01*
X156194463Y-96560506D01*
X156135498Y-96670820D01*
X156099188Y-96790518D01*
X156086928Y-96915000D01*
X152444801Y-96915000D01*
X154573592Y-94786210D01*
X154793740Y-94830000D01*
X155086260Y-94830000D01*
X155373158Y-94772932D01*
X155643411Y-94660990D01*
X155886632Y-94498475D01*
X156018487Y-94366620D01*
X156040498Y-94439180D01*
X156099463Y-94549494D01*
X156178815Y-94646185D01*
X156275506Y-94725537D01*
X156385820Y-94784502D01*
X156505518Y-94820812D01*
X156630000Y-94833072D01*
X158330000Y-94833072D01*
X158454482Y-94820812D01*
X158574180Y-94784502D01*
X158684494Y-94725537D01*
X158781185Y-94646185D01*
X158860537Y-94549494D01*
X158919502Y-94439180D01*
X158955812Y-94319482D01*
X158968072Y-94195000D01*
X158968072Y-92929999D01*
X162606477Y-92929999D01*
X162655070Y-92978592D01*
X162611279Y-93198740D01*
X162611279Y-93491260D01*
X162668347Y-93778158D01*
X162780289Y-94048411D01*
X162942804Y-94291632D01*
X163149647Y-94498475D01*
X163392868Y-94660990D01*
X163663121Y-94772932D01*
X163950019Y-94830000D01*
X164242539Y-94830000D01*
X164529437Y-94772932D01*
X164799690Y-94660990D01*
X165042911Y-94498475D01*
X165174766Y-94366620D01*
X165196777Y-94439180D01*
X165255742Y-94549494D01*
X165335094Y-94646185D01*
X165431785Y-94725537D01*
X165542099Y-94784502D01*
X165661797Y-94820812D01*
X165786279Y-94833072D01*
X167486279Y-94833072D01*
X167610761Y-94820812D01*
X167730459Y-94784502D01*
X167840773Y-94725537D01*
X167937464Y-94646185D01*
X168016816Y-94549494D01*
X168075781Y-94439180D01*
X168112091Y-94319482D01*
X168124351Y-94195000D01*
X168124351Y-92495000D01*
X168112091Y-92370518D01*
X168075781Y-92250820D01*
X168016816Y-92140506D01*
X167937464Y-92043815D01*
X167840773Y-91964463D01*
X167730459Y-91905498D01*
X167610761Y-91869188D01*
X167486279Y-91856928D01*
X165786279Y-91856928D01*
X165661797Y-91869188D01*
X165542099Y-91905498D01*
X165431785Y-91964463D01*
X165335094Y-92043815D01*
X165255742Y-92140506D01*
X165196777Y-92250820D01*
X165174766Y-92323380D01*
X165042911Y-92191525D01*
X164799690Y-92029010D01*
X164529437Y-91917068D01*
X164242539Y-91860000D01*
X163950019Y-91860000D01*
X163729871Y-91903791D01*
X163485082Y-91659002D01*
X163461279Y-91629998D01*
X163345554Y-91535025D01*
X163213525Y-91464453D01*
X163070264Y-91420996D01*
X162958611Y-91409999D01*
X162958600Y-91409999D01*
X162921278Y-91406323D01*
X162883956Y-91409999D01*
X152087328Y-91409999D01*
X152050003Y-91406323D01*
X152012678Y-91409999D01*
X152012670Y-91409999D01*
X151901017Y-91420996D01*
X151757756Y-91464453D01*
X151625727Y-91535025D01*
X151510002Y-91629998D01*
X151486204Y-91658996D01*
X150078072Y-93067128D01*
X150078072Y-92495000D01*
X150065812Y-92370518D01*
X150029502Y-92250820D01*
X149970537Y-92140506D01*
X149891185Y-92043815D01*
X149794494Y-91964463D01*
X149684180Y-91905498D01*
X149564482Y-91869188D01*
X149440000Y-91856928D01*
X148353506Y-91856928D01*
X147946533Y-91449955D01*
X147918816Y-91416182D01*
X147784058Y-91305588D01*
X147630312Y-91223410D01*
X147463489Y-91172804D01*
X147333476Y-91159999D01*
X147333468Y-91159999D01*
X147289999Y-91155718D01*
X147246530Y-91159999D01*
X141043467Y-91159999D01*
X141000000Y-91155718D01*
X140956534Y-91159999D01*
X140956524Y-91159999D01*
X140826511Y-91172804D01*
X140659688Y-91223410D01*
X140505942Y-91305588D01*
X140505940Y-91305589D01*
X140505941Y-91305589D01*
X140404954Y-91388467D01*
X140404952Y-91388469D01*
X140371184Y-91416182D01*
X140343471Y-91449950D01*
X139936493Y-91856928D01*
X139463506Y-91856928D01*
X139056533Y-91449955D01*
X139028816Y-91416182D01*
X138894058Y-91305588D01*
X138740312Y-91223410D01*
X138573489Y-91172804D01*
X138443476Y-91159999D01*
X138443468Y-91159999D01*
X138399999Y-91155718D01*
X138356530Y-91159999D01*
X132041699Y-91159999D01*
X131998230Y-91155718D01*
X131954761Y-91159999D01*
X131954753Y-91159999D01*
X131824740Y-91172804D01*
X131657917Y-91223410D01*
X131516639Y-91298924D01*
X131504171Y-91305588D01*
X131403183Y-91388467D01*
X131403181Y-91388469D01*
X131369413Y-91416182D01*
X131341700Y-91449950D01*
X130941386Y-91850264D01*
X130468399Y-91850264D01*
X130061426Y-91443291D01*
X130033709Y-91409518D01*
X129898951Y-91298924D01*
X129745205Y-91216746D01*
X129578382Y-91166140D01*
X129448369Y-91153335D01*
X129448361Y-91153335D01*
X129404892Y-91149054D01*
X129361423Y-91153335D01*
X123028311Y-91153335D01*
X122984844Y-91149054D01*
X122941378Y-91153335D01*
X122941368Y-91153335D01*
X122811355Y-91166140D01*
X122644532Y-91216746D01*
X122490786Y-91298924D01*
X122490784Y-91298925D01*
X122490785Y-91298925D01*
X122389798Y-91381803D01*
X122389796Y-91381805D01*
X122356028Y-91409518D01*
X122328315Y-91443286D01*
X121921337Y-91850264D01*
X121448350Y-91850264D01*
X121041377Y-91443291D01*
X121013660Y-91409518D01*
X120878902Y-91298924D01*
X120725156Y-91216746D01*
X120558333Y-91166140D01*
X120428320Y-91153335D01*
X120428312Y-91153335D01*
X120384843Y-91149054D01*
X120341374Y-91153335D01*
X113745130Y-91153335D01*
X113701664Y-91149054D01*
X113658198Y-91153335D01*
X113658188Y-91153335D01*
X113528175Y-91166140D01*
X113361352Y-91216746D01*
X113207606Y-91298924D01*
X113207604Y-91298925D01*
X113207605Y-91298925D01*
X113106618Y-91381803D01*
X113106616Y-91381805D01*
X113072848Y-91409518D01*
X113045135Y-91443286D01*
X112631493Y-91856928D01*
X112158506Y-91856928D01*
X111751533Y-91449955D01*
X111723816Y-91416182D01*
X111589058Y-91305588D01*
X111435312Y-91223410D01*
X111268489Y-91172804D01*
X111138476Y-91159999D01*
X111138468Y-91159999D01*
X111094999Y-91155718D01*
X111051530Y-91159999D01*
X104848467Y-91159999D01*
X104805000Y-91155718D01*
X104761534Y-91159999D01*
X104761524Y-91159999D01*
X104631511Y-91172804D01*
X104464688Y-91223410D01*
X104310942Y-91305588D01*
X104310940Y-91305589D01*
X104310941Y-91305589D01*
X104209954Y-91388467D01*
X104209952Y-91388469D01*
X104176184Y-91416182D01*
X104148471Y-91449950D01*
X103741493Y-91856928D01*
X103268506Y-91856928D01*
X102861533Y-91449955D01*
X102833816Y-91416182D01*
X102699058Y-91305588D01*
X102545312Y-91223410D01*
X102378489Y-91172804D01*
X102248476Y-91159999D01*
X102248468Y-91159999D01*
X102204999Y-91155718D01*
X102161530Y-91159999D01*
X100384464Y-91159999D01*
X100340998Y-91155718D01*
X100297532Y-91159999D01*
X100297522Y-91159999D01*
X100167509Y-91172804D01*
X100000686Y-91223410D01*
X99846940Y-91305588D01*
X99846938Y-91305589D01*
X99846939Y-91305589D01*
X99745952Y-91388467D01*
X99745950Y-91388469D01*
X99721915Y-91408194D01*
X99720816Y-90519946D01*
X168250000Y-90519760D01*
X168250001Y-97109877D01*
G37*
X168250001Y-97109877D02*
X168246808Y-97142289D01*
X168250001Y-97174718D01*
X168250001Y-97174725D01*
X168252185Y-97196904D01*
X168259547Y-97271671D01*
X168259550Y-97271682D01*
X168259551Y-97271689D01*
X168272689Y-97314998D01*
X168297284Y-97396082D01*
X168297288Y-97396090D01*
X168297291Y-97396099D01*
X168326904Y-97451501D01*
X168358566Y-97510741D01*
X168358572Y-97510748D01*
X168358576Y-97510756D01*
X168399618Y-97560765D01*
X168441040Y-97611241D01*
X168441047Y-97611247D01*
X168441053Y-97611254D01*
X168491514Y-97652666D01*
X168541536Y-97693721D01*
X168541544Y-97693725D01*
X168541551Y-97693731D01*
X168597395Y-97723580D01*
X168656191Y-97755009D01*
X168656200Y-97755012D01*
X168656208Y-97755016D01*
X168725602Y-97776067D01*
X168780600Y-97792752D01*
X168780607Y-97792753D01*
X168780618Y-97792756D01*
X168783000Y-97792991D01*
X168783000Y-103489315D01*
X168780631Y-103489548D01*
X168780628Y-103489549D01*
X168780617Y-103489550D01*
X168689986Y-103517043D01*
X168656221Y-103527285D01*
X168656218Y-103527287D01*
X168656207Y-103527290D01*
X168566622Y-103575174D01*
X168541562Y-103588568D01*
X168541560Y-103588570D01*
X168541550Y-103588575D01*
X168466643Y-103650050D01*
X168441063Y-103671042D01*
X168441061Y-103671045D01*
X168441052Y-103671052D01*
X168396777Y-103725002D01*
X168358583Y-103771539D01*
X168358580Y-103771545D01*
X168358575Y-103771551D01*
X168339682Y-103806898D01*
X168297296Y-103886194D01*
X168297294Y-103886200D01*
X168297290Y-103886208D01*
X168275241Y-103958894D01*
X168259553Y-104010604D01*
X168259552Y-104010610D01*
X168259550Y-104010618D01*
X168253702Y-104069999D01*
X168246808Y-104139986D01*
X168250000Y-104172403D01*
X168250001Y-112997572D01*
X168250000Y-112997582D01*
X168250001Y-117450000D01*
X165452580Y-117450000D01*
X166375051Y-116527530D01*
X166408818Y-116499818D01*
X166456109Y-116442195D01*
X166519412Y-116365060D01*
X166601590Y-116211315D01*
X166652196Y-116044491D01*
X166652196Y-116044490D01*
X166665001Y-115914478D01*
X166665001Y-115914470D01*
X166669282Y-115871001D01*
X166665001Y-115827532D01*
X166665001Y-111848470D01*
X166669282Y-111805001D01*
X166665001Y-111761532D01*
X166665001Y-111761524D01*
X166652196Y-111631511D01*
X166601590Y-111464688D01*
X166519412Y-111310942D01*
X166488829Y-111273677D01*
X166436533Y-111209954D01*
X166436531Y-111209952D01*
X166408818Y-111176184D01*
X166375050Y-111148471D01*
X165968072Y-110741493D01*
X165968072Y-108355000D01*
X165955812Y-108230518D01*
X165919502Y-108110820D01*
X165860537Y-108000506D01*
X165781185Y-107903815D01*
X165684494Y-107824463D01*
X165574180Y-107765498D01*
X165454482Y-107729188D01*
X165330000Y-107716928D01*
X164715000Y-107716928D01*
X164715000Y-106723465D01*
X164719281Y-106679999D01*
X164715000Y-106636533D01*
X164715000Y-106636523D01*
X164702195Y-106506510D01*
X164651589Y-106339687D01*
X164569411Y-106185941D01*
X164528438Y-106136016D01*
X164486532Y-106084953D01*
X164486530Y-106084951D01*
X164458817Y-106051183D01*
X164425049Y-106023470D01*
X163216536Y-104814958D01*
X163216532Y-104814953D01*
X161283072Y-102881494D01*
X161283072Y-102245000D01*
X161266008Y-102071746D01*
X161215472Y-101905150D01*
X161133405Y-101751614D01*
X161022962Y-101617038D01*
X161002201Y-101600000D01*
X161022962Y-101582962D01*
X161133405Y-101448386D01*
X161215472Y-101294850D01*
X161264503Y-101133214D01*
X161265226Y-101133937D01*
X161434744Y-101247205D01*
X161623102Y-101325226D01*
X161823061Y-101365000D01*
X162026939Y-101365000D01*
X162226898Y-101325226D01*
X162415256Y-101247205D01*
X162584774Y-101133937D01*
X162728937Y-100989774D01*
X162842205Y-100820256D01*
X162920226Y-100631898D01*
X162960000Y-100431939D01*
X162960000Y-100228061D01*
X162920226Y-100028102D01*
X162842205Y-99839744D01*
X162728937Y-99670226D01*
X162584774Y-99526063D01*
X162415256Y-99412795D01*
X162226898Y-99334774D01*
X162026939Y-99295000D01*
X161823061Y-99295000D01*
X161623102Y-99334774D01*
X161434744Y-99412795D01*
X161265226Y-99526063D01*
X161264503Y-99526786D01*
X161215472Y-99365150D01*
X161133405Y-99211614D01*
X161058570Y-99120427D01*
X161152962Y-99042962D01*
X161263405Y-98908386D01*
X161345472Y-98754850D01*
X161396008Y-98588254D01*
X161413072Y-98415000D01*
X161413072Y-97165000D01*
X161396008Y-96991746D01*
X161345472Y-96825150D01*
X161263405Y-96671614D01*
X161152962Y-96537038D01*
X161018386Y-96426595D01*
X160864850Y-96344528D01*
X160698254Y-96293992D01*
X160525000Y-96276928D01*
X159775000Y-96276928D01*
X159601746Y-96293992D01*
X159435150Y-96344528D01*
X159281614Y-96426595D01*
X159147038Y-96537038D01*
X159036595Y-96671614D01*
X158954528Y-96825150D01*
X158903992Y-96991746D01*
X158886928Y-97165000D01*
X158886928Y-98415000D01*
X158903992Y-98588254D01*
X158954528Y-98754850D01*
X159036595Y-98908386D01*
X159111430Y-98999573D01*
X159017038Y-99077038D01*
X158906595Y-99211614D01*
X158824528Y-99365150D01*
X158773992Y-99531746D01*
X158756928Y-99705000D01*
X158756928Y-100955000D01*
X158773992Y-101128254D01*
X158824528Y-101294850D01*
X158906595Y-101448386D01*
X159017038Y-101582962D01*
X159037799Y-101600000D01*
X159017038Y-101617038D01*
X158906595Y-101751614D01*
X158824528Y-101905150D01*
X158773992Y-102071746D01*
X158756928Y-102245000D01*
X158756928Y-103495000D01*
X158773992Y-103668254D01*
X158824528Y-103834850D01*
X158906595Y-103988386D01*
X159017038Y-104122962D01*
X159151614Y-104233405D01*
X159305150Y-104315472D01*
X159471746Y-104366008D01*
X159645000Y-104383072D01*
X160281494Y-104383072D01*
X161964953Y-106066532D01*
X161964958Y-106066536D01*
X162945001Y-107046580D01*
X162945001Y-107716928D01*
X162330000Y-107716928D01*
X162205518Y-107729188D01*
X162085820Y-107765498D01*
X161975506Y-107824463D01*
X161878815Y-107903815D01*
X161799463Y-108000506D01*
X161740498Y-108110820D01*
X161704188Y-108230518D01*
X161691928Y-108355000D01*
X161691928Y-111355000D01*
X161704188Y-111479482D01*
X161740498Y-111599180D01*
X161799463Y-111709494D01*
X161878815Y-111806185D01*
X161975506Y-111885537D01*
X162085820Y-111944502D01*
X162205518Y-111980812D01*
X162330000Y-111993072D01*
X164716493Y-111993072D01*
X164895002Y-112171581D01*
X164895002Y-113078869D01*
X164841302Y-113042988D01*
X164452756Y-112882047D01*
X164040279Y-112800000D01*
X163619721Y-112800000D01*
X163207244Y-112882047D01*
X162818698Y-113042988D01*
X162469017Y-113276637D01*
X162171637Y-113574017D01*
X161937988Y-113923698D01*
X161885672Y-114050000D01*
X157434081Y-114050000D01*
X155297564Y-111913484D01*
X155312681Y-111760000D01*
X155282030Y-111448796D01*
X155191255Y-111149551D01*
X155043845Y-110873765D01*
X154845463Y-110632037D01*
X154666101Y-110484837D01*
X154851315Y-110329437D01*
X155045969Y-110086923D01*
X155189571Y-109811094D01*
X155260563Y-109592980D01*
X155140594Y-109347000D01*
X153797000Y-109347000D01*
X153797000Y-109367000D01*
X153543000Y-109367000D01*
X153543000Y-109347000D01*
X152199406Y-109347000D01*
X152079437Y-109592980D01*
X152150429Y-109811094D01*
X152294031Y-110086923D01*
X152488685Y-110329437D01*
X152673899Y-110484837D01*
X152494537Y-110632037D01*
X152296155Y-110873765D01*
X152148745Y-111149551D01*
X152057970Y-111448796D01*
X152027319Y-111760000D01*
X152057970Y-112071204D01*
X152148745Y-112370449D01*
X152296155Y-112646235D01*
X152399446Y-112772095D01*
X152315506Y-112816963D01*
X152218815Y-112896315D01*
X152139463Y-112993006D01*
X152080498Y-113103320D01*
X152044188Y-113223018D01*
X152031928Y-113347500D01*
X152031928Y-115252500D01*
X152044188Y-115376982D01*
X152080498Y-115496680D01*
X152139463Y-115606994D01*
X152218815Y-115703685D01*
X152315506Y-115783037D01*
X152425820Y-115842002D01*
X152545518Y-115878312D01*
X152670000Y-115890572D01*
X154670000Y-115890572D01*
X154794482Y-115878312D01*
X154914180Y-115842002D01*
X155024494Y-115783037D01*
X155121185Y-115703685D01*
X155200537Y-115606994D01*
X155259502Y-115496680D01*
X155295812Y-115376982D01*
X155308072Y-115252500D01*
X155308072Y-114427149D01*
X156410972Y-115530049D01*
X156438685Y-115563817D01*
X156472453Y-115591530D01*
X156472455Y-115591532D01*
X156543954Y-115650210D01*
X156573443Y-115674411D01*
X156727189Y-115756589D01*
X156894012Y-115807195D01*
X157024025Y-115820000D01*
X157024035Y-115820000D01*
X157067501Y-115824281D01*
X157110968Y-115820000D01*
X161885672Y-115820000D01*
X161937988Y-115946302D01*
X161973868Y-116000001D01*
X155817855Y-116000001D01*
X155711721Y-115967805D01*
X155581708Y-115955000D01*
X155581700Y-115955000D01*
X155538231Y-115950719D01*
X155494762Y-115955000D01*
X145146579Y-115955000D01*
X144907002Y-115715423D01*
X144907002Y-115620156D01*
X145136890Y-115741476D01*
X145284099Y-115696825D01*
X145546920Y-115571641D01*
X145780269Y-115397588D01*
X145975178Y-115181355D01*
X146124157Y-114931252D01*
X146221481Y-114656891D01*
X146100814Y-114427000D01*
X144907000Y-114427000D01*
X144907000Y-114447000D01*
X144653000Y-114447000D01*
X144653000Y-114427000D01*
X144633000Y-114427000D01*
X144633000Y-114173000D01*
X144653000Y-114173000D01*
X144653000Y-112979845D01*
X144907000Y-112979845D01*
X144907000Y-114173000D01*
X146100814Y-114173000D01*
X146221481Y-113943109D01*
X146124157Y-113668748D01*
X145975178Y-113418645D01*
X145780269Y-113202412D01*
X145546920Y-113028359D01*
X145284099Y-112903175D01*
X145136890Y-112858524D01*
X144907000Y-112979845D01*
X144653000Y-112979845D01*
X144423110Y-112858524D01*
X144275901Y-112903175D01*
X144013080Y-113028359D01*
X143779731Y-113202412D01*
X143584822Y-113418645D01*
X143515195Y-113535534D01*
X143393475Y-113353368D01*
X143186632Y-113146525D01*
X142943411Y-112984010D01*
X142673158Y-112872068D01*
X142386260Y-112815000D01*
X142093740Y-112815000D01*
X141806842Y-112872068D01*
X141536589Y-112984010D01*
X141293368Y-113146525D01*
X141086525Y-113353368D01*
X140970000Y-113527760D01*
X140853475Y-113353368D01*
X140646632Y-113146525D01*
X140403411Y-112984010D01*
X140133158Y-112872068D01*
X139846260Y-112815000D01*
X139553740Y-112815000D01*
X139266842Y-112872068D01*
X138996589Y-112984010D01*
X138753368Y-113146525D01*
X138546525Y-113353368D01*
X138430000Y-113527760D01*
X138313475Y-113353368D01*
X138106632Y-113146525D01*
X137863411Y-112984010D01*
X137593158Y-112872068D01*
X137306260Y-112815000D01*
X137013740Y-112815000D01*
X136726842Y-112872068D01*
X136456589Y-112984010D01*
X136213368Y-113146525D01*
X136006525Y-113353368D01*
X135890000Y-113527760D01*
X135773475Y-113353368D01*
X135566632Y-113146525D01*
X135323411Y-112984010D01*
X135053158Y-112872068D01*
X134766260Y-112815000D01*
X134473740Y-112815000D01*
X134204999Y-112868456D01*
X134204999Y-112257033D01*
X134935885Y-111526147D01*
X134972795Y-111615256D01*
X135086063Y-111784774D01*
X135230226Y-111928937D01*
X135399744Y-112042205D01*
X135588102Y-112120226D01*
X135788061Y-112160000D01*
X135991939Y-112160000D01*
X136191898Y-112120226D01*
X136380256Y-112042205D01*
X136428454Y-112010000D01*
X141301531Y-112010000D01*
X141345000Y-112014281D01*
X141388469Y-112010000D01*
X141388477Y-112010000D01*
X141518490Y-111997195D01*
X141685313Y-111946589D01*
X141839059Y-111864411D01*
X141973817Y-111753817D01*
X142001534Y-111720044D01*
X144258507Y-109463072D01*
X144895000Y-109463072D01*
X145068254Y-109446008D01*
X145234850Y-109395472D01*
X145388386Y-109313405D01*
X145522962Y-109202962D01*
X145633405Y-109068386D01*
X145715472Y-108914850D01*
X145742727Y-108825000D01*
X146056928Y-108825000D01*
X146069188Y-108949482D01*
X146105498Y-109069180D01*
X146164463Y-109179494D01*
X146243815Y-109276185D01*
X146340506Y-109355537D01*
X146450820Y-109414502D01*
X146570518Y-109450812D01*
X146695000Y-109463072D01*
X147034250Y-109460000D01*
X147193000Y-109301250D01*
X147193000Y-108077000D01*
X147447000Y-108077000D01*
X147447000Y-109301250D01*
X147605750Y-109460000D01*
X147945000Y-109463072D01*
X148069482Y-109450812D01*
X148189180Y-109414502D01*
X148299494Y-109355537D01*
X148396185Y-109276185D01*
X148475537Y-109179494D01*
X148534502Y-109069180D01*
X148570812Y-108949482D01*
X148580903Y-108847020D01*
X152079437Y-108847020D01*
X152199406Y-109093000D01*
X153543000Y-109093000D01*
X153543000Y-107794430D01*
X153797000Y-107794430D01*
X153797000Y-109093000D01*
X155140594Y-109093000D01*
X155260563Y-108847020D01*
X155189571Y-108628906D01*
X155045969Y-108353077D01*
X154851315Y-108110563D01*
X154613089Y-107910684D01*
X154340446Y-107761121D01*
X154043863Y-107667622D01*
X153797000Y-107794430D01*
X153543000Y-107794430D01*
X153296137Y-107667622D01*
X152999554Y-107761121D01*
X152726911Y-107910684D01*
X152488685Y-108110563D01*
X152294031Y-108353077D01*
X152150429Y-108628906D01*
X152079437Y-108847020D01*
X148580903Y-108847020D01*
X148583072Y-108825000D01*
X148580000Y-108235750D01*
X148421250Y-108077000D01*
X147447000Y-108077000D01*
X147193000Y-108077000D01*
X146218750Y-108077000D01*
X146060000Y-108235750D01*
X146056928Y-108825000D01*
X145742727Y-108825000D01*
X145766008Y-108748254D01*
X145783072Y-108575000D01*
X145783072Y-107325000D01*
X145766008Y-107151746D01*
X145742728Y-107075000D01*
X146056928Y-107075000D01*
X146060000Y-107664250D01*
X146218750Y-107823000D01*
X147193000Y-107823000D01*
X147193000Y-106598750D01*
X147447000Y-106598750D01*
X147447000Y-107823000D01*
X148421250Y-107823000D01*
X148580000Y-107664250D01*
X148583072Y-107075000D01*
X148570812Y-106950518D01*
X148534502Y-106830820D01*
X148475537Y-106720506D01*
X148396185Y-106623815D01*
X148299494Y-106544463D01*
X148189180Y-106485498D01*
X148069482Y-106449188D01*
X147945000Y-106436928D01*
X147605750Y-106440000D01*
X147447000Y-106598750D01*
X147193000Y-106598750D01*
X147034250Y-106440000D01*
X146695000Y-106436928D01*
X146570518Y-106449188D01*
X146450820Y-106485498D01*
X146340506Y-106544463D01*
X146243815Y-106623815D01*
X146164463Y-106720506D01*
X146105498Y-106830820D01*
X146069188Y-106950518D01*
X146056928Y-107075000D01*
X145742728Y-107075000D01*
X145715472Y-106985150D01*
X145633405Y-106831614D01*
X145522962Y-106697038D01*
X145388386Y-106586595D01*
X145280000Y-106528661D01*
X145280000Y-103745000D01*
X155956928Y-103745000D01*
X155969188Y-103869482D01*
X156005498Y-103989180D01*
X156064463Y-104099494D01*
X156143815Y-104196185D01*
X156240506Y-104275537D01*
X156350820Y-104334502D01*
X156470518Y-104370812D01*
X156595000Y-104383072D01*
X156934250Y-104380000D01*
X157093000Y-104221250D01*
X157093000Y-102997000D01*
X157347000Y-102997000D01*
X157347000Y-104221250D01*
X157505750Y-104380000D01*
X157845000Y-104383072D01*
X157969482Y-104370812D01*
X158089180Y-104334502D01*
X158199494Y-104275537D01*
X158296185Y-104196185D01*
X158375537Y-104099494D01*
X158434502Y-103989180D01*
X158470812Y-103869482D01*
X158483072Y-103745000D01*
X158480000Y-103155750D01*
X158321250Y-102997000D01*
X157347000Y-102997000D01*
X157093000Y-102997000D01*
X156118750Y-102997000D01*
X155960000Y-103155750D01*
X155956928Y-103745000D01*
X145280000Y-103745000D01*
X145280000Y-103626322D01*
X145283676Y-103588999D01*
X145280000Y-103551676D01*
X145280000Y-103551667D01*
X145269003Y-103440014D01*
X145225546Y-103296753D01*
X145154974Y-103164724D01*
X145108072Y-103107574D01*
X145108072Y-102451500D01*
X145095812Y-102327018D01*
X145059502Y-102207320D01*
X145000537Y-102097006D01*
X144921185Y-102000315D01*
X144824494Y-101920963D01*
X144714180Y-101861998D01*
X144594482Y-101825688D01*
X144470000Y-101813428D01*
X143820000Y-101813428D01*
X143695518Y-101825688D01*
X143575820Y-101861998D01*
X143510000Y-101897180D01*
X143444180Y-101861998D01*
X143324482Y-101825688D01*
X143200000Y-101813428D01*
X142951733Y-101813428D01*
X142148274Y-101009970D01*
X143392648Y-101009970D01*
X143429970Y-101013646D01*
X143467292Y-101009970D01*
X143467303Y-101009970D01*
X143578956Y-100998973D01*
X143722217Y-100955516D01*
X143854246Y-100884944D01*
X143969971Y-100789971D01*
X143993773Y-100760968D01*
X144526680Y-100228061D01*
X154540000Y-100228061D01*
X154540000Y-100431939D01*
X154579774Y-100631898D01*
X154657795Y-100820256D01*
X154771063Y-100989774D01*
X154915226Y-101133937D01*
X155084744Y-101247205D01*
X155273102Y-101325226D01*
X155473061Y-101365000D01*
X155676939Y-101365000D01*
X155876898Y-101325226D01*
X156016235Y-101267510D01*
X156024528Y-101294850D01*
X156106595Y-101448386D01*
X156168372Y-101523662D01*
X156143815Y-101543815D01*
X156064463Y-101640506D01*
X156005498Y-101750820D01*
X155969188Y-101870518D01*
X155956928Y-101995000D01*
X155960000Y-102584250D01*
X156118750Y-102743000D01*
X157093000Y-102743000D01*
X157093000Y-102723000D01*
X157347000Y-102723000D01*
X157347000Y-102743000D01*
X158321250Y-102743000D01*
X158480000Y-102584250D01*
X158483072Y-101995000D01*
X158470812Y-101870518D01*
X158434502Y-101750820D01*
X158375537Y-101640506D01*
X158296185Y-101543815D01*
X158271628Y-101523662D01*
X158333405Y-101448386D01*
X158415472Y-101294850D01*
X158466008Y-101128254D01*
X158483072Y-100955000D01*
X158483072Y-99705000D01*
X158466008Y-99531746D01*
X158415472Y-99365150D01*
X158333405Y-99211614D01*
X158323042Y-99198986D01*
X158329494Y-99195537D01*
X158426185Y-99116185D01*
X158505537Y-99019494D01*
X158564502Y-98909180D01*
X158600812Y-98789482D01*
X158613072Y-98665000D01*
X158610000Y-98075750D01*
X158451250Y-97917000D01*
X157477000Y-97917000D01*
X157477000Y-97937000D01*
X157223000Y-97937000D01*
X157223000Y-97917000D01*
X156248750Y-97917000D01*
X156090000Y-98075750D01*
X156086928Y-98665000D01*
X156099188Y-98789482D01*
X156135498Y-98909180D01*
X156194463Y-99019494D01*
X156231768Y-99064950D01*
X156217038Y-99077038D01*
X156106595Y-99211614D01*
X156024528Y-99365150D01*
X156016235Y-99392490D01*
X155876898Y-99334774D01*
X155676939Y-99295000D01*
X155473061Y-99295000D01*
X155273102Y-99334774D01*
X155084744Y-99412795D01*
X154915226Y-99526063D01*
X154771063Y-99670226D01*
X154657795Y-99839744D01*
X154579774Y-100028102D01*
X154540000Y-100228061D01*
X144526680Y-100228061D01*
X144656004Y-100098738D01*
X144685001Y-100074941D01*
X144726581Y-100024276D01*
X144779974Y-99959217D01*
X144850546Y-99827187D01*
X144861819Y-99790025D01*
X144894003Y-99683926D01*
X144905000Y-99572273D01*
X144905000Y-99572264D01*
X144908676Y-99534941D01*
X144905000Y-99497618D01*
X144905000Y-99016968D01*
X144921185Y-99003685D01*
X145000537Y-98906994D01*
X145059502Y-98796680D01*
X145095812Y-98676982D01*
X145108072Y-98552500D01*
X145108072Y-97462499D01*
X151545179Y-97462499D01*
X151582501Y-97466175D01*
X151619823Y-97462499D01*
X151619834Y-97462499D01*
X151731487Y-97451502D01*
X151874748Y-97408045D01*
X152006777Y-97337473D01*
X152122502Y-97242500D01*
X152146305Y-97213496D01*
X152444801Y-96915000D01*
X156086928Y-96915000D01*
X156090000Y-97504250D01*
X156248750Y-97663000D01*
X157223000Y-97663000D01*
X157223000Y-96438750D01*
X157477000Y-96438750D01*
X157477000Y-97663000D01*
X158451250Y-97663000D01*
X158610000Y-97504250D01*
X158613072Y-96915000D01*
X158600812Y-96790518D01*
X158564502Y-96670820D01*
X158505537Y-96560506D01*
X158426185Y-96463815D01*
X158329494Y-96384463D01*
X158219180Y-96325498D01*
X158099482Y-96289188D01*
X157975000Y-96276928D01*
X157635750Y-96280000D01*
X157477000Y-96438750D01*
X157223000Y-96438750D01*
X157064250Y-96280000D01*
X156725000Y-96276928D01*
X156600518Y-96289188D01*
X156480820Y-96325498D01*
X156370506Y-96384463D01*
X156273815Y-96463815D01*
X156194463Y-96560506D01*
X156135498Y-96670820D01*
X156099188Y-96790518D01*
X156086928Y-96915000D01*
X152444801Y-96915000D01*
X154573592Y-94786210D01*
X154793740Y-94830000D01*
X155086260Y-94830000D01*
X155373158Y-94772932D01*
X155643411Y-94660990D01*
X155886632Y-94498475D01*
X156018487Y-94366620D01*
X156040498Y-94439180D01*
X156099463Y-94549494D01*
X156178815Y-94646185D01*
X156275506Y-94725537D01*
X156385820Y-94784502D01*
X156505518Y-94820812D01*
X156630000Y-94833072D01*
X158330000Y-94833072D01*
X158454482Y-94820812D01*
X158574180Y-94784502D01*
X158684494Y-94725537D01*
X158781185Y-94646185D01*
X158860537Y-94549494D01*
X158919502Y-94439180D01*
X158955812Y-94319482D01*
X158968072Y-94195000D01*
X158968072Y-92929999D01*
X162606477Y-92929999D01*
X162655070Y-92978592D01*
X162611279Y-93198740D01*
X162611279Y-93491260D01*
X162668347Y-93778158D01*
X162780289Y-94048411D01*
X162942804Y-94291632D01*
X163149647Y-94498475D01*
X163392868Y-94660990D01*
X163663121Y-94772932D01*
X163950019Y-94830000D01*
X164242539Y-94830000D01*
X164529437Y-94772932D01*
X164799690Y-94660990D01*
X165042911Y-94498475D01*
X165174766Y-94366620D01*
X165196777Y-94439180D01*
X165255742Y-94549494D01*
X165335094Y-94646185D01*
X165431785Y-94725537D01*
X165542099Y-94784502D01*
X165661797Y-94820812D01*
X165786279Y-94833072D01*
X167486279Y-94833072D01*
X167610761Y-94820812D01*
X167730459Y-94784502D01*
X167840773Y-94725537D01*
X167937464Y-94646185D01*
X168016816Y-94549494D01*
X168075781Y-94439180D01*
X168112091Y-94319482D01*
X168124351Y-94195000D01*
X168124351Y-92495000D01*
X168112091Y-92370518D01*
X168075781Y-92250820D01*
X168016816Y-92140506D01*
X167937464Y-92043815D01*
X167840773Y-91964463D01*
X167730459Y-91905498D01*
X167610761Y-91869188D01*
X167486279Y-91856928D01*
X165786279Y-91856928D01*
X165661797Y-91869188D01*
X165542099Y-91905498D01*
X165431785Y-91964463D01*
X165335094Y-92043815D01*
X165255742Y-92140506D01*
X165196777Y-92250820D01*
X165174766Y-92323380D01*
X165042911Y-92191525D01*
X164799690Y-92029010D01*
X164529437Y-91917068D01*
X164242539Y-91860000D01*
X163950019Y-91860000D01*
X163729871Y-91903791D01*
X163485082Y-91659002D01*
X163461279Y-91629998D01*
X163345554Y-91535025D01*
X163213525Y-91464453D01*
X163070264Y-91420996D01*
X162958611Y-91409999D01*
X162958600Y-91409999D01*
X162921278Y-91406323D01*
X162883956Y-91409999D01*
X152087328Y-91409999D01*
X152050003Y-91406323D01*
X152012678Y-91409999D01*
X152012670Y-91409999D01*
X151901017Y-91420996D01*
X151757756Y-91464453D01*
X151625727Y-91535025D01*
X151510002Y-91629998D01*
X151486204Y-91658996D01*
X150078072Y-93067128D01*
X150078072Y-92495000D01*
X150065812Y-92370518D01*
X150029502Y-92250820D01*
X149970537Y-92140506D01*
X149891185Y-92043815D01*
X149794494Y-91964463D01*
X149684180Y-91905498D01*
X149564482Y-91869188D01*
X149440000Y-91856928D01*
X148353506Y-91856928D01*
X147946533Y-91449955D01*
X147918816Y-91416182D01*
X147784058Y-91305588D01*
X147630312Y-91223410D01*
X147463489Y-91172804D01*
X147333476Y-91159999D01*
X147333468Y-91159999D01*
X147289999Y-91155718D01*
X147246530Y-91159999D01*
X141043467Y-91159999D01*
X141000000Y-91155718D01*
X140956534Y-91159999D01*
X140956524Y-91159999D01*
X140826511Y-91172804D01*
X140659688Y-91223410D01*
X140505942Y-91305588D01*
X140505940Y-91305589D01*
X140505941Y-91305589D01*
X140404954Y-91388467D01*
X140404952Y-91388469D01*
X140371184Y-91416182D01*
X140343471Y-91449950D01*
X139936493Y-91856928D01*
X139463506Y-91856928D01*
X139056533Y-91449955D01*
X139028816Y-91416182D01*
X138894058Y-91305588D01*
X138740312Y-91223410D01*
X138573489Y-91172804D01*
X138443476Y-91159999D01*
X138443468Y-91159999D01*
X138399999Y-91155718D01*
X138356530Y-91159999D01*
X132041699Y-91159999D01*
X131998230Y-91155718D01*
X131954761Y-91159999D01*
X131954753Y-91159999D01*
X131824740Y-91172804D01*
X131657917Y-91223410D01*
X131516639Y-91298924D01*
X131504171Y-91305588D01*
X131403183Y-91388467D01*
X131403181Y-91388469D01*
X131369413Y-91416182D01*
X131341700Y-91449950D01*
X130941386Y-91850264D01*
X130468399Y-91850264D01*
X130061426Y-91443291D01*
X130033709Y-91409518D01*
X129898951Y-91298924D01*
X129745205Y-91216746D01*
X129578382Y-91166140D01*
X129448369Y-91153335D01*
X129448361Y-91153335D01*
X129404892Y-91149054D01*
X129361423Y-91153335D01*
X123028311Y-91153335D01*
X122984844Y-91149054D01*
X122941378Y-91153335D01*
X122941368Y-91153335D01*
X122811355Y-91166140D01*
X122644532Y-91216746D01*
X122490786Y-91298924D01*
X122490784Y-91298925D01*
X122490785Y-91298925D01*
X122389798Y-91381803D01*
X122389796Y-91381805D01*
X122356028Y-91409518D01*
X122328315Y-91443286D01*
X121921337Y-91850264D01*
X121448350Y-91850264D01*
X121041377Y-91443291D01*
X121013660Y-91409518D01*
X120878902Y-91298924D01*
X120725156Y-91216746D01*
X120558333Y-91166140D01*
X120428320Y-91153335D01*
X120428312Y-91153335D01*
X120384843Y-91149054D01*
X120341374Y-91153335D01*
X113745130Y-91153335D01*
X113701664Y-91149054D01*
X113658198Y-91153335D01*
X113658188Y-91153335D01*
X113528175Y-91166140D01*
X113361352Y-91216746D01*
X113207606Y-91298924D01*
X113207604Y-91298925D01*
X113207605Y-91298925D01*
X113106618Y-91381803D01*
X113106616Y-91381805D01*
X113072848Y-91409518D01*
X113045135Y-91443286D01*
X112631493Y-91856928D01*
X112158506Y-91856928D01*
X111751533Y-91449955D01*
X111723816Y-91416182D01*
X111589058Y-91305588D01*
X111435312Y-91223410D01*
X111268489Y-91172804D01*
X111138476Y-91159999D01*
X111138468Y-91159999D01*
X111094999Y-91155718D01*
X111051530Y-91159999D01*
X104848467Y-91159999D01*
X104805000Y-91155718D01*
X104761534Y-91159999D01*
X104761524Y-91159999D01*
X104631511Y-91172804D01*
X104464688Y-91223410D01*
X104310942Y-91305588D01*
X104310940Y-91305589D01*
X104310941Y-91305589D01*
X104209954Y-91388467D01*
X104209952Y-91388469D01*
X104176184Y-91416182D01*
X104148471Y-91449950D01*
X103741493Y-91856928D01*
X103268506Y-91856928D01*
X102861533Y-91449955D01*
X102833816Y-91416182D01*
X102699058Y-91305588D01*
X102545312Y-91223410D01*
X102378489Y-91172804D01*
X102248476Y-91159999D01*
X102248468Y-91159999D01*
X102204999Y-91155718D01*
X102161530Y-91159999D01*
X100384464Y-91159999D01*
X100340998Y-91155718D01*
X100297532Y-91159999D01*
X100297522Y-91159999D01*
X100167509Y-91172804D01*
X100000686Y-91223410D01*
X99846940Y-91305588D01*
X99846938Y-91305589D01*
X99846939Y-91305589D01*
X99745952Y-91388467D01*
X99745950Y-91388469D01*
X99721915Y-91408194D01*
X99720816Y-90519946D01*
X168250000Y-90519760D01*
X168250001Y-97109877D01*
G36*
X100818740Y-94830000D02*
G01*
X101111260Y-94830000D01*
X101331408Y-94786209D01*
X102825198Y-96280000D01*
X102742998Y-96280000D01*
X102742998Y-96438748D01*
X102584250Y-96280000D01*
X102245000Y-96276928D01*
X102120518Y-96289188D01*
X102000820Y-96325498D01*
X101890506Y-96384463D01*
X101793815Y-96463815D01*
X101714463Y-96560506D01*
X101655498Y-96670820D01*
X101619188Y-96790518D01*
X101606928Y-96915000D01*
X101610000Y-97504250D01*
X101768750Y-97663000D01*
X102743000Y-97663000D01*
X102743000Y-97643000D01*
X102997000Y-97643000D01*
X102997000Y-97663000D01*
X103017000Y-97663000D01*
X103017000Y-97917000D01*
X102997000Y-97917000D01*
X102997000Y-97937000D01*
X102743000Y-97937000D01*
X102743000Y-97917000D01*
X101768750Y-97917000D01*
X101610000Y-98075750D01*
X101606928Y-98665000D01*
X101619188Y-98789482D01*
X101655498Y-98909180D01*
X101693194Y-98979704D01*
X101663815Y-99003815D01*
X101584463Y-99100506D01*
X101525498Y-99210820D01*
X101489188Y-99330518D01*
X101476928Y-99455000D01*
X101480000Y-100044250D01*
X101638750Y-100203000D01*
X102613000Y-100203000D01*
X102613000Y-100183000D01*
X102867000Y-100183000D01*
X102867000Y-100203000D01*
X103841250Y-100203000D01*
X104000000Y-100044250D01*
X104003072Y-99455000D01*
X103990812Y-99330518D01*
X103954502Y-99210820D01*
X103916806Y-99140296D01*
X103946185Y-99116185D01*
X104019211Y-99027202D01*
X104348927Y-99356919D01*
X104344528Y-99365150D01*
X104293992Y-99531746D01*
X104276928Y-99705000D01*
X104276928Y-100955000D01*
X104293992Y-101128254D01*
X104344528Y-101294850D01*
X104426595Y-101448386D01*
X104537038Y-101582962D01*
X104557799Y-101600000D01*
X104537038Y-101617038D01*
X104426595Y-101751614D01*
X104344528Y-101905150D01*
X104293992Y-102071746D01*
X104276928Y-102245000D01*
X104276928Y-103495000D01*
X104293992Y-103668254D01*
X104344528Y-103834850D01*
X104426595Y-103988386D01*
X104537038Y-104122962D01*
X104557799Y-104140000D01*
X104537038Y-104157038D01*
X104426595Y-104291614D01*
X104344528Y-104445150D01*
X104293992Y-104611746D01*
X104276928Y-104785000D01*
X104276928Y-106035000D01*
X104293992Y-106208254D01*
X104344528Y-106374850D01*
X104426595Y-106528386D01*
X104537038Y-106662962D01*
X104671614Y-106773405D01*
X104825150Y-106855472D01*
X104991746Y-106906008D01*
X105165000Y-106923072D01*
X105915000Y-106923072D01*
X106088254Y-106906008D01*
X106254850Y-106855472D01*
X106408386Y-106773405D01*
X106542962Y-106662962D01*
X106653405Y-106528386D01*
X106735472Y-106374850D01*
X106786008Y-106208254D01*
X106789776Y-106170000D01*
X109211822Y-106170000D01*
X109336525Y-106356632D01*
X109543368Y-106563475D01*
X109786589Y-106725990D01*
X110056842Y-106837932D01*
X110343740Y-106895000D01*
X110636260Y-106895000D01*
X110856408Y-106851209D01*
X114892125Y-110886928D01*
X113475000Y-110886928D01*
X113350518Y-110899188D01*
X113230820Y-110935498D01*
X113120506Y-110994463D01*
X113023815Y-111073815D01*
X112944463Y-111170506D01*
X112885498Y-111280820D01*
X112849188Y-111400518D01*
X112836928Y-111525000D01*
X112836928Y-112475000D01*
X112849188Y-112599482D01*
X112885498Y-112719180D01*
X112944463Y-112829494D01*
X113023815Y-112926185D01*
X113120506Y-113005537D01*
X113230820Y-113064502D01*
X113350518Y-113100812D01*
X113475000Y-113113072D01*
X114611494Y-113113072D01*
X114688149Y-113189727D01*
X114635750Y-113190000D01*
X114477000Y-113348750D01*
X114477000Y-114173000D01*
X114497000Y-114173000D01*
X114497000Y-114427000D01*
X114477000Y-114427000D01*
X114477000Y-115251250D01*
X114635750Y-115410000D01*
X115225000Y-115413072D01*
X115349482Y-115400812D01*
X115469180Y-115364502D01*
X115579494Y-115305537D01*
X115676185Y-115226185D01*
X115755537Y-115129494D01*
X115814502Y-115019180D01*
X115850812Y-114899482D01*
X115863072Y-114775000D01*
X115860000Y-114585750D01*
X115701252Y-114427002D01*
X115860000Y-114427002D01*
X115860000Y-114361578D01*
X116230735Y-114732314D01*
X116180226Y-114766063D01*
X116036063Y-114910226D01*
X115922795Y-115079744D01*
X115844774Y-115268102D01*
X115833465Y-115324956D01*
X115569370Y-115589052D01*
X115469180Y-115535498D01*
X115349482Y-115499188D01*
X115225000Y-115486928D01*
X113475000Y-115486928D01*
X113350518Y-115499188D01*
X113230820Y-115535498D01*
X113120506Y-115594463D01*
X113023815Y-115673815D01*
X112944463Y-115770506D01*
X112885498Y-115880820D01*
X112849188Y-116000518D01*
X112836928Y-116125000D01*
X112836928Y-117075000D01*
X112849188Y-117199482D01*
X112885498Y-117319180D01*
X112944463Y-117429494D01*
X112961292Y-117450000D01*
X99720000Y-117450000D01*
X99720000Y-114883621D01*
X108685000Y-114883621D01*
X108685000Y-115239175D01*
X108754365Y-115587897D01*
X108890429Y-115916386D01*
X109087965Y-116212019D01*
X109339379Y-116463433D01*
X109635012Y-116660969D01*
X109963501Y-116797033D01*
X110312223Y-116866398D01*
X110667777Y-116866398D01*
X111016499Y-116797033D01*
X111344988Y-116660969D01*
X111640621Y-116463433D01*
X111892035Y-116212019D01*
X112089571Y-115916386D01*
X112225635Y-115587897D01*
X112295000Y-115239175D01*
X112295000Y-114883621D01*
X112273394Y-114775000D01*
X112836928Y-114775000D01*
X112849188Y-114899482D01*
X112885498Y-115019180D01*
X112944463Y-115129494D01*
X113023815Y-115226185D01*
X113120506Y-115305537D01*
X113230820Y-115364502D01*
X113350518Y-115400812D01*
X113475000Y-115413072D01*
X114064250Y-115410000D01*
X114223000Y-115251250D01*
X114223000Y-114427000D01*
X112998750Y-114427000D01*
X112840000Y-114585750D01*
X112836928Y-114775000D01*
X112273394Y-114775000D01*
X112225635Y-114534899D01*
X112089571Y-114206410D01*
X111892035Y-113910777D01*
X111806258Y-113825000D01*
X112836928Y-113825000D01*
X112840000Y-114014250D01*
X112998750Y-114173000D01*
X114223000Y-114173000D01*
X114223000Y-113348750D01*
X114064250Y-113190000D01*
X113475000Y-113186928D01*
X113350518Y-113199188D01*
X113230820Y-113235498D01*
X113120506Y-113294463D01*
X113023815Y-113373815D01*
X112944463Y-113470506D01*
X112885498Y-113580820D01*
X112849188Y-113700518D01*
X112836928Y-113825000D01*
X111806258Y-113825000D01*
X111640621Y-113659363D01*
X111344988Y-113461827D01*
X111016499Y-113325763D01*
X110667777Y-113256398D01*
X110312223Y-113256398D01*
X109963501Y-113325763D01*
X109635012Y-113461827D01*
X109339379Y-113659363D01*
X109087965Y-113910777D01*
X108890429Y-114206410D01*
X108754365Y-114534899D01*
X108685000Y-114883621D01*
X99720000Y-114883621D01*
X99720000Y-114196172D01*
X99963501Y-114297033D01*
X100312223Y-114366398D01*
X100667777Y-114366398D01*
X101016499Y-114297033D01*
X101344988Y-114160969D01*
X101640621Y-113963433D01*
X101892035Y-113712019D01*
X102089571Y-113416386D01*
X102225635Y-113087897D01*
X102295000Y-112739175D01*
X102295000Y-112383621D01*
X102225635Y-112034899D01*
X102089571Y-111706410D01*
X101892035Y-111410777D01*
X101799258Y-111318000D01*
X109413003Y-111318000D01*
X109529275Y-111599787D01*
X109847860Y-111757655D01*
X110191122Y-111850336D01*
X110545869Y-111874271D01*
X110898470Y-111828537D01*
X111235373Y-111714893D01*
X111450725Y-111599787D01*
X111566997Y-111318000D01*
X110490000Y-110241003D01*
X109413003Y-111318000D01*
X101799258Y-111318000D01*
X101640621Y-111159363D01*
X101344988Y-110961827D01*
X101016499Y-110825763D01*
X100667777Y-110756398D01*
X100577976Y-110756398D01*
X100549999Y-110728421D01*
X100549999Y-110117267D01*
X108677127Y-110117267D01*
X108722861Y-110469868D01*
X108836505Y-110806771D01*
X108951611Y-111022123D01*
X109233398Y-111138395D01*
X110310395Y-110061398D01*
X110669605Y-110061398D01*
X111746602Y-111138395D01*
X112028389Y-111022123D01*
X112186257Y-110703538D01*
X112278938Y-110360276D01*
X112302873Y-110005529D01*
X112257139Y-109652928D01*
X112143495Y-109316025D01*
X112028389Y-109100673D01*
X111746602Y-108984401D01*
X110669605Y-110061398D01*
X110310395Y-110061398D01*
X109233398Y-108984401D01*
X108951611Y-109100673D01*
X108793743Y-109419258D01*
X108701062Y-109762520D01*
X108677127Y-110117267D01*
X100549999Y-110117267D01*
X100549999Y-108804796D01*
X109413003Y-108804796D01*
X110490000Y-109881793D01*
X111566997Y-108804796D01*
X111450725Y-108523009D01*
X111132140Y-108365141D01*
X110788878Y-108272460D01*
X110434131Y-108248525D01*
X110081530Y-108294259D01*
X109744627Y-108407903D01*
X109529275Y-108523009D01*
X109413003Y-108804796D01*
X100549999Y-108804796D01*
X100549999Y-106285000D01*
X101476928Y-106285000D01*
X101489188Y-106409482D01*
X101525498Y-106529180D01*
X101584463Y-106639494D01*
X101663815Y-106736185D01*
X101760506Y-106815537D01*
X101870820Y-106874502D01*
X101990518Y-106910812D01*
X102115000Y-106923072D01*
X102454250Y-106920000D01*
X102613000Y-106761250D01*
X102613000Y-105537000D01*
X102867000Y-105537000D01*
X102867000Y-106761250D01*
X103025750Y-106920000D01*
X103365000Y-106923072D01*
X103489482Y-106910812D01*
X103609180Y-106874502D01*
X103719494Y-106815537D01*
X103816185Y-106736185D01*
X103895537Y-106639494D01*
X103954502Y-106529180D01*
X103990812Y-106409482D01*
X104003072Y-106285000D01*
X104000000Y-105695750D01*
X103841250Y-105537000D01*
X102867000Y-105537000D01*
X102613000Y-105537000D01*
X101638750Y-105537000D01*
X101480000Y-105695750D01*
X101476928Y-106285000D01*
X100549999Y-106285000D01*
X100549999Y-103745000D01*
X101476928Y-103745000D01*
X101489188Y-103869482D01*
X101525498Y-103989180D01*
X101584463Y-104099494D01*
X101617705Y-104140000D01*
X101584463Y-104180506D01*
X101525498Y-104290820D01*
X101489188Y-104410518D01*
X101476928Y-104535000D01*
X101480000Y-105124250D01*
X101638750Y-105283000D01*
X102613000Y-105283000D01*
X102613000Y-102997000D01*
X102867000Y-102997000D01*
X102867000Y-105283000D01*
X103841250Y-105283000D01*
X104000000Y-105124250D01*
X104003072Y-104535000D01*
X103990812Y-104410518D01*
X103954502Y-104290820D01*
X103895537Y-104180506D01*
X103862295Y-104140000D01*
X103895537Y-104099494D01*
X103954502Y-103989180D01*
X103990812Y-103869482D01*
X104003072Y-103745000D01*
X104000000Y-103155750D01*
X103841250Y-102997000D01*
X102867000Y-102997000D01*
X102613000Y-102997000D01*
X101638750Y-102997000D01*
X101480000Y-103155750D01*
X101476928Y-103745000D01*
X100549999Y-103745000D01*
X100549999Y-101205000D01*
X101476928Y-101205000D01*
X101489188Y-101329482D01*
X101525498Y-101449180D01*
X101584463Y-101559494D01*
X101617705Y-101600000D01*
X101584463Y-101640506D01*
X101525498Y-101750820D01*
X101489188Y-101870518D01*
X101476928Y-101995000D01*
X101480000Y-102584250D01*
X101638750Y-102743000D01*
X102613000Y-102743000D01*
X102613000Y-100457000D01*
X102867000Y-100457000D01*
X102867000Y-102743000D01*
X103841250Y-102743000D01*
X104000000Y-102584250D01*
X104003072Y-101995000D01*
X103990812Y-101870518D01*
X103954502Y-101750820D01*
X103895537Y-101640506D01*
X103862295Y-101600000D01*
X103895537Y-101559494D01*
X103954502Y-101449180D01*
X103990812Y-101329482D01*
X104003072Y-101205000D01*
X104000000Y-100615750D01*
X103841250Y-100457000D01*
X102867000Y-100457000D01*
X102613000Y-100457000D01*
X101638750Y-100457000D01*
X101480000Y-100615750D01*
X101476928Y-101205000D01*
X100549999Y-101205000D01*
X100549999Y-94776544D01*
X100818740Y-94830000D01*
G37*
X100818740Y-94830000D02*
X101111260Y-94830000D01*
X101331408Y-94786209D01*
X102825198Y-96280000D01*
X102742998Y-96280000D01*
X102742998Y-96438748D01*
X102584250Y-96280000D01*
X102245000Y-96276928D01*
X102120518Y-96289188D01*
X102000820Y-96325498D01*
X101890506Y-96384463D01*
X101793815Y-96463815D01*
X101714463Y-96560506D01*
X101655498Y-96670820D01*
X101619188Y-96790518D01*
X101606928Y-96915000D01*
X101610000Y-97504250D01*
X101768750Y-97663000D01*
X102743000Y-97663000D01*
X102743000Y-97643000D01*
X102997000Y-97643000D01*
X102997000Y-97663000D01*
X103017000Y-97663000D01*
X103017000Y-97917000D01*
X102997000Y-97917000D01*
X102997000Y-97937000D01*
X102743000Y-97937000D01*
X102743000Y-97917000D01*
X101768750Y-97917000D01*
X101610000Y-98075750D01*
X101606928Y-98665000D01*
X101619188Y-98789482D01*
X101655498Y-98909180D01*
X101693194Y-98979704D01*
X101663815Y-99003815D01*
X101584463Y-99100506D01*
X101525498Y-99210820D01*
X101489188Y-99330518D01*
X101476928Y-99455000D01*
X101480000Y-100044250D01*
X101638750Y-100203000D01*
X102613000Y-100203000D01*
X102613000Y-100183000D01*
X102867000Y-100183000D01*
X102867000Y-100203000D01*
X103841250Y-100203000D01*
X104000000Y-100044250D01*
X104003072Y-99455000D01*
X103990812Y-99330518D01*
X103954502Y-99210820D01*
X103916806Y-99140296D01*
X103946185Y-99116185D01*
X104019211Y-99027202D01*
X104348927Y-99356919D01*
X104344528Y-99365150D01*
X104293992Y-99531746D01*
X104276928Y-99705000D01*
X104276928Y-100955000D01*
X104293992Y-101128254D01*
X104344528Y-101294850D01*
X104426595Y-101448386D01*
X104537038Y-101582962D01*
X104557799Y-101600000D01*
X104537038Y-101617038D01*
X104426595Y-101751614D01*
X104344528Y-101905150D01*
X104293992Y-102071746D01*
X104276928Y-102245000D01*
X104276928Y-103495000D01*
X104293992Y-103668254D01*
X104344528Y-103834850D01*
X104426595Y-103988386D01*
X104537038Y-104122962D01*
X104557799Y-104140000D01*
X104537038Y-104157038D01*
X104426595Y-104291614D01*
X104344528Y-104445150D01*
X104293992Y-104611746D01*
X104276928Y-104785000D01*
X104276928Y-106035000D01*
X104293992Y-106208254D01*
X104344528Y-106374850D01*
X104426595Y-106528386D01*
X104537038Y-106662962D01*
X104671614Y-106773405D01*
X104825150Y-106855472D01*
X104991746Y-106906008D01*
X105165000Y-106923072D01*
X105915000Y-106923072D01*
X106088254Y-106906008D01*
X106254850Y-106855472D01*
X106408386Y-106773405D01*
X106542962Y-106662962D01*
X106653405Y-106528386D01*
X106735472Y-106374850D01*
X106786008Y-106208254D01*
X106789776Y-106170000D01*
X109211822Y-106170000D01*
X109336525Y-106356632D01*
X109543368Y-106563475D01*
X109786589Y-106725990D01*
X110056842Y-106837932D01*
X110343740Y-106895000D01*
X110636260Y-106895000D01*
X110856408Y-106851209D01*
X114892125Y-110886928D01*
X113475000Y-110886928D01*
X113350518Y-110899188D01*
X113230820Y-110935498D01*
X113120506Y-110994463D01*
X113023815Y-111073815D01*
X112944463Y-111170506D01*
X112885498Y-111280820D01*
X112849188Y-111400518D01*
X112836928Y-111525000D01*
X112836928Y-112475000D01*
X112849188Y-112599482D01*
X112885498Y-112719180D01*
X112944463Y-112829494D01*
X113023815Y-112926185D01*
X113120506Y-113005537D01*
X113230820Y-113064502D01*
X113350518Y-113100812D01*
X113475000Y-113113072D01*
X114611494Y-113113072D01*
X114688149Y-113189727D01*
X114635750Y-113190000D01*
X114477000Y-113348750D01*
X114477000Y-114173000D01*
X114497000Y-114173000D01*
X114497000Y-114427000D01*
X114477000Y-114427000D01*
X114477000Y-115251250D01*
X114635750Y-115410000D01*
X115225000Y-115413072D01*
X115349482Y-115400812D01*
X115469180Y-115364502D01*
X115579494Y-115305537D01*
X115676185Y-115226185D01*
X115755537Y-115129494D01*
X115814502Y-115019180D01*
X115850812Y-114899482D01*
X115863072Y-114775000D01*
X115860000Y-114585750D01*
X115701252Y-114427002D01*
X115860000Y-114427002D01*
X115860000Y-114361578D01*
X116230735Y-114732314D01*
X116180226Y-114766063D01*
X116036063Y-114910226D01*
X115922795Y-115079744D01*
X115844774Y-115268102D01*
X115833465Y-115324956D01*
X115569370Y-115589052D01*
X115469180Y-115535498D01*
X115349482Y-115499188D01*
X115225000Y-115486928D01*
X113475000Y-115486928D01*
X113350518Y-115499188D01*
X113230820Y-115535498D01*
X113120506Y-115594463D01*
X113023815Y-115673815D01*
X112944463Y-115770506D01*
X112885498Y-115880820D01*
X112849188Y-116000518D01*
X112836928Y-116125000D01*
X112836928Y-117075000D01*
X112849188Y-117199482D01*
X112885498Y-117319180D01*
X112944463Y-117429494D01*
X112961292Y-117450000D01*
X99720000Y-117450000D01*
X99720000Y-114883621D01*
X108685000Y-114883621D01*
X108685000Y-115239175D01*
X108754365Y-115587897D01*
X108890429Y-115916386D01*
X109087965Y-116212019D01*
X109339379Y-116463433D01*
X109635012Y-116660969D01*
X109963501Y-116797033D01*
X110312223Y-116866398D01*
X110667777Y-116866398D01*
X111016499Y-116797033D01*
X111344988Y-116660969D01*
X111640621Y-116463433D01*
X111892035Y-116212019D01*
X112089571Y-115916386D01*
X112225635Y-115587897D01*
X112295000Y-115239175D01*
X112295000Y-114883621D01*
X112273394Y-114775000D01*
X112836928Y-114775000D01*
X112849188Y-114899482D01*
X112885498Y-115019180D01*
X112944463Y-115129494D01*
X113023815Y-115226185D01*
X113120506Y-115305537D01*
X113230820Y-115364502D01*
X113350518Y-115400812D01*
X113475000Y-115413072D01*
X114064250Y-115410000D01*
X114223000Y-115251250D01*
X114223000Y-114427000D01*
X112998750Y-114427000D01*
X112840000Y-114585750D01*
X112836928Y-114775000D01*
X112273394Y-114775000D01*
X112225635Y-114534899D01*
X112089571Y-114206410D01*
X111892035Y-113910777D01*
X111806258Y-113825000D01*
X112836928Y-113825000D01*
X112840000Y-114014250D01*
X112998750Y-114173000D01*
X114223000Y-114173000D01*
X114223000Y-113348750D01*
X114064250Y-113190000D01*
X113475000Y-113186928D01*
X113350518Y-113199188D01*
X113230820Y-113235498D01*
X113120506Y-113294463D01*
X113023815Y-113373815D01*
X112944463Y-113470506D01*
X112885498Y-113580820D01*
X112849188Y-113700518D01*
X112836928Y-113825000D01*
X111806258Y-113825000D01*
X111640621Y-113659363D01*
X111344988Y-113461827D01*
X111016499Y-113325763D01*
X110667777Y-113256398D01*
X110312223Y-113256398D01*
X109963501Y-113325763D01*
X109635012Y-113461827D01*
X109339379Y-113659363D01*
X109087965Y-113910777D01*
X108890429Y-114206410D01*
X108754365Y-114534899D01*
X108685000Y-114883621D01*
X99720000Y-114883621D01*
X99720000Y-114196172D01*
X99963501Y-114297033D01*
X100312223Y-114366398D01*
X100667777Y-114366398D01*
X101016499Y-114297033D01*
X101344988Y-114160969D01*
X101640621Y-113963433D01*
X101892035Y-113712019D01*
X102089571Y-113416386D01*
X102225635Y-113087897D01*
X102295000Y-112739175D01*
X102295000Y-112383621D01*
X102225635Y-112034899D01*
X102089571Y-111706410D01*
X101892035Y-111410777D01*
X101799258Y-111318000D01*
X109413003Y-111318000D01*
X109529275Y-111599787D01*
X109847860Y-111757655D01*
X110191122Y-111850336D01*
X110545869Y-111874271D01*
X110898470Y-111828537D01*
X111235373Y-111714893D01*
X111450725Y-111599787D01*
X111566997Y-111318000D01*
X110490000Y-110241003D01*
X109413003Y-111318000D01*
X101799258Y-111318000D01*
X101640621Y-111159363D01*
X101344988Y-110961827D01*
X101016499Y-110825763D01*
X100667777Y-110756398D01*
X100577976Y-110756398D01*
X100549999Y-110728421D01*
X100549999Y-110117267D01*
X108677127Y-110117267D01*
X108722861Y-110469868D01*
X108836505Y-110806771D01*
X108951611Y-111022123D01*
X109233398Y-111138395D01*
X110310395Y-110061398D01*
X110669605Y-110061398D01*
X111746602Y-111138395D01*
X112028389Y-111022123D01*
X112186257Y-110703538D01*
X112278938Y-110360276D01*
X112302873Y-110005529D01*
X112257139Y-109652928D01*
X112143495Y-109316025D01*
X112028389Y-109100673D01*
X111746602Y-108984401D01*
X110669605Y-110061398D01*
X110310395Y-110061398D01*
X109233398Y-108984401D01*
X108951611Y-109100673D01*
X108793743Y-109419258D01*
X108701062Y-109762520D01*
X108677127Y-110117267D01*
X100549999Y-110117267D01*
X100549999Y-108804796D01*
X109413003Y-108804796D01*
X110490000Y-109881793D01*
X111566997Y-108804796D01*
X111450725Y-108523009D01*
X111132140Y-108365141D01*
X110788878Y-108272460D01*
X110434131Y-108248525D01*
X110081530Y-108294259D01*
X109744627Y-108407903D01*
X109529275Y-108523009D01*
X109413003Y-108804796D01*
X100549999Y-108804796D01*
X100549999Y-106285000D01*
X101476928Y-106285000D01*
X101489188Y-106409482D01*
X101525498Y-106529180D01*
X101584463Y-106639494D01*
X101663815Y-106736185D01*
X101760506Y-106815537D01*
X101870820Y-106874502D01*
X101990518Y-106910812D01*
X102115000Y-106923072D01*
X102454250Y-106920000D01*
X102613000Y-106761250D01*
X102613000Y-105537000D01*
X102867000Y-105537000D01*
X102867000Y-106761250D01*
X103025750Y-106920000D01*
X103365000Y-106923072D01*
X103489482Y-106910812D01*
X103609180Y-106874502D01*
X103719494Y-106815537D01*
X103816185Y-106736185D01*
X103895537Y-106639494D01*
X103954502Y-106529180D01*
X103990812Y-106409482D01*
X104003072Y-106285000D01*
X104000000Y-105695750D01*
X103841250Y-105537000D01*
X102867000Y-105537000D01*
X102613000Y-105537000D01*
X101638750Y-105537000D01*
X101480000Y-105695750D01*
X101476928Y-106285000D01*
X100549999Y-106285000D01*
X100549999Y-103745000D01*
X101476928Y-103745000D01*
X101489188Y-103869482D01*
X101525498Y-103989180D01*
X101584463Y-104099494D01*
X101617705Y-104140000D01*
X101584463Y-104180506D01*
X101525498Y-104290820D01*
X101489188Y-104410518D01*
X101476928Y-104535000D01*
X101480000Y-105124250D01*
X101638750Y-105283000D01*
X102613000Y-105283000D01*
X102613000Y-102997000D01*
X102867000Y-102997000D01*
X102867000Y-105283000D01*
X103841250Y-105283000D01*
X104000000Y-105124250D01*
X104003072Y-104535000D01*
X103990812Y-104410518D01*
X103954502Y-104290820D01*
X103895537Y-104180506D01*
X103862295Y-104140000D01*
X103895537Y-104099494D01*
X103954502Y-103989180D01*
X103990812Y-103869482D01*
X104003072Y-103745000D01*
X104000000Y-103155750D01*
X103841250Y-102997000D01*
X102867000Y-102997000D01*
X102613000Y-102997000D01*
X101638750Y-102997000D01*
X101480000Y-103155750D01*
X101476928Y-103745000D01*
X100549999Y-103745000D01*
X100549999Y-101205000D01*
X101476928Y-101205000D01*
X101489188Y-101329482D01*
X101525498Y-101449180D01*
X101584463Y-101559494D01*
X101617705Y-101600000D01*
X101584463Y-101640506D01*
X101525498Y-101750820D01*
X101489188Y-101870518D01*
X101476928Y-101995000D01*
X101480000Y-102584250D01*
X101638750Y-102743000D01*
X102613000Y-102743000D01*
X102613000Y-100457000D01*
X102867000Y-100457000D01*
X102867000Y-102743000D01*
X103841250Y-102743000D01*
X104000000Y-102584250D01*
X104003072Y-101995000D01*
X103990812Y-101870518D01*
X103954502Y-101750820D01*
X103895537Y-101640506D01*
X103862295Y-101600000D01*
X103895537Y-101559494D01*
X103954502Y-101449180D01*
X103990812Y-101329482D01*
X104003072Y-101205000D01*
X104000000Y-100615750D01*
X103841250Y-100457000D01*
X102867000Y-100457000D01*
X102613000Y-100457000D01*
X101638750Y-100457000D01*
X101480000Y-100615750D01*
X101476928Y-101205000D01*
X100549999Y-101205000D01*
X100549999Y-94776544D01*
X100818740Y-94830000D01*
G36*
X124681500Y-112811928D02*
G01*
X123610000Y-112811928D01*
X123485518Y-112824188D01*
X123365820Y-112860498D01*
X123255506Y-112919463D01*
X123158815Y-112998815D01*
X123079463Y-113095506D01*
X123020498Y-113205820D01*
X122984188Y-113325518D01*
X122971928Y-113450000D01*
X122971928Y-115150000D01*
X122984188Y-115274482D01*
X123020498Y-115394180D01*
X123058353Y-115465001D01*
X122162055Y-115465001D01*
X122160000Y-114585750D01*
X122001250Y-114427000D01*
X120777000Y-114427000D01*
X120777000Y-114447000D01*
X120523000Y-114447000D01*
X120523000Y-114427000D01*
X119298750Y-114427000D01*
X119140000Y-114585750D01*
X119138711Y-115137132D01*
X116701579Y-112700000D01*
X119136928Y-112700000D01*
X119140000Y-114014250D01*
X119298750Y-114173000D01*
X120523000Y-114173000D01*
X120523000Y-112223750D01*
X120777000Y-112223750D01*
X120777000Y-114173000D01*
X122001250Y-114173000D01*
X122160000Y-114014250D01*
X122163072Y-112700000D01*
X122150812Y-112575518D01*
X122114502Y-112455820D01*
X122055537Y-112345506D01*
X121976185Y-112248815D01*
X121879494Y-112169463D01*
X121769180Y-112110498D01*
X121649482Y-112074188D01*
X121525000Y-112061928D01*
X120935750Y-112065000D01*
X120777000Y-112223750D01*
X120523000Y-112223750D01*
X120364250Y-112065000D01*
X119775000Y-112061928D01*
X119650518Y-112074188D01*
X119530820Y-112110498D01*
X119420506Y-112169463D01*
X119323815Y-112248815D01*
X119244463Y-112345506D01*
X119185498Y-112455820D01*
X119149188Y-112575518D01*
X119136928Y-112700000D01*
X116701579Y-112700000D01*
X115863072Y-111861494D01*
X115863072Y-111752783D01*
X115966024Y-111784013D01*
X116077677Y-111795010D01*
X116077686Y-111795010D01*
X116115009Y-111798686D01*
X116152332Y-111795010D01*
X125034078Y-111795010D01*
X125071400Y-111798686D01*
X125108722Y-111795010D01*
X125108733Y-111795010D01*
X125220386Y-111784013D01*
X125363647Y-111740556D01*
X125495676Y-111669984D01*
X125611401Y-111575011D01*
X125635203Y-111546008D01*
X125971003Y-111210209D01*
X126000001Y-111186411D01*
X126094974Y-111070686D01*
X126165546Y-110938657D01*
X126209003Y-110795396D01*
X126220000Y-110683743D01*
X126220000Y-110683734D01*
X126223676Y-110646411D01*
X126220000Y-110609088D01*
X126220000Y-110291192D01*
X126223072Y-110260000D01*
X126223072Y-109160000D01*
X126210812Y-109035518D01*
X126174502Y-108915820D01*
X126115537Y-108805506D01*
X126036185Y-108708815D01*
X125939494Y-108629463D01*
X125829180Y-108570498D01*
X125756860Y-108548560D01*
X128944867Y-108548560D01*
X124681500Y-112811928D01*
G37*
X124681500Y-112811928D02*
X123610000Y-112811928D01*
X123485518Y-112824188D01*
X123365820Y-112860498D01*
X123255506Y-112919463D01*
X123158815Y-112998815D01*
X123079463Y-113095506D01*
X123020498Y-113205820D01*
X122984188Y-113325518D01*
X122971928Y-113450000D01*
X122971928Y-115150000D01*
X122984188Y-115274482D01*
X123020498Y-115394180D01*
X123058353Y-115465001D01*
X122162055Y-115465001D01*
X122160000Y-114585750D01*
X122001250Y-114427000D01*
X120777000Y-114427000D01*
X120777000Y-114447000D01*
X120523000Y-114447000D01*
X120523000Y-114427000D01*
X119298750Y-114427000D01*
X119140000Y-114585750D01*
X119138711Y-115137132D01*
X116701579Y-112700000D01*
X119136928Y-112700000D01*
X119140000Y-114014250D01*
X119298750Y-114173000D01*
X120523000Y-114173000D01*
X120523000Y-112223750D01*
X120777000Y-112223750D01*
X120777000Y-114173000D01*
X122001250Y-114173000D01*
X122160000Y-114014250D01*
X122163072Y-112700000D01*
X122150812Y-112575518D01*
X122114502Y-112455820D01*
X122055537Y-112345506D01*
X121976185Y-112248815D01*
X121879494Y-112169463D01*
X121769180Y-112110498D01*
X121649482Y-112074188D01*
X121525000Y-112061928D01*
X120935750Y-112065000D01*
X120777000Y-112223750D01*
X120523000Y-112223750D01*
X120364250Y-112065000D01*
X119775000Y-112061928D01*
X119650518Y-112074188D01*
X119530820Y-112110498D01*
X119420506Y-112169463D01*
X119323815Y-112248815D01*
X119244463Y-112345506D01*
X119185498Y-112455820D01*
X119149188Y-112575518D01*
X119136928Y-112700000D01*
X116701579Y-112700000D01*
X115863072Y-111861494D01*
X115863072Y-111752783D01*
X115966024Y-111784013D01*
X116077677Y-111795010D01*
X116077686Y-111795010D01*
X116115009Y-111798686D01*
X116152332Y-111795010D01*
X125034078Y-111795010D01*
X125071400Y-111798686D01*
X125108722Y-111795010D01*
X125108733Y-111795010D01*
X125220386Y-111784013D01*
X125363647Y-111740556D01*
X125495676Y-111669984D01*
X125611401Y-111575011D01*
X125635203Y-111546008D01*
X125971003Y-111210209D01*
X126000001Y-111186411D01*
X126094974Y-111070686D01*
X126165546Y-110938657D01*
X126209003Y-110795396D01*
X126220000Y-110683743D01*
X126220000Y-110683734D01*
X126223676Y-110646411D01*
X126220000Y-110609088D01*
X126220000Y-110291192D01*
X126223072Y-110260000D01*
X126223072Y-109160000D01*
X126210812Y-109035518D01*
X126174502Y-108915820D01*
X126115537Y-108805506D01*
X126036185Y-108708815D01*
X125939494Y-108629463D01*
X125829180Y-108570498D01*
X125756860Y-108548560D01*
X128944867Y-108548560D01*
X124681500Y-112811928D01*
G36*
X143575820Y-104566002D02*
G01*
X143695518Y-104602312D01*
X143760001Y-104608663D01*
X143760000Y-106528661D01*
X143651614Y-106586595D01*
X143517038Y-106697038D01*
X143406595Y-106831614D01*
X143324528Y-106985150D01*
X143273992Y-107151746D01*
X143256928Y-107325000D01*
X143256928Y-107961493D01*
X140978422Y-110240000D01*
X136428454Y-110240000D01*
X136380256Y-110207795D01*
X136291148Y-110170885D01*
X137500486Y-108961547D01*
X137632749Y-109060201D01*
X137895570Y-109185385D01*
X138042779Y-109230036D01*
X138272669Y-109108715D01*
X138272669Y-107915560D01*
X138526669Y-107915560D01*
X138526669Y-109108715D01*
X138756559Y-109230036D01*
X138903768Y-109185385D01*
X139166589Y-109060201D01*
X139399938Y-108886148D01*
X139594847Y-108669915D01*
X139743826Y-108419812D01*
X139841150Y-108145451D01*
X139720483Y-107915560D01*
X138526669Y-107915560D01*
X138272669Y-107915560D01*
X138252669Y-107915560D01*
X138252669Y-107661560D01*
X138272669Y-107661560D01*
X138272669Y-107641560D01*
X138526669Y-107641560D01*
X138526669Y-107661560D01*
X139720483Y-107661560D01*
X139841150Y-107431669D01*
X139743826Y-107157308D01*
X139594847Y-106907205D01*
X139399938Y-106690972D01*
X139166589Y-106516919D01*
X138903768Y-106391735D01*
X138823353Y-106367344D01*
X138920256Y-106327205D01*
X139089774Y-106213937D01*
X139233937Y-106069774D01*
X139347205Y-105900256D01*
X139425226Y-105711898D01*
X139465000Y-105511939D01*
X139465000Y-105449802D01*
X139576004Y-105338798D01*
X139605001Y-105315001D01*
X139699974Y-105199276D01*
X139770546Y-105067247D01*
X139814003Y-104923986D01*
X139825000Y-104812333D01*
X139825000Y-104812332D01*
X139828677Y-104775000D01*
X139825000Y-104737667D01*
X139825000Y-104583954D01*
X139885518Y-104602312D01*
X140010000Y-104614572D01*
X140660000Y-104614572D01*
X140784482Y-104602312D01*
X140904180Y-104566002D01*
X140970000Y-104530820D01*
X141035820Y-104566002D01*
X141155518Y-104602312D01*
X141280000Y-104614572D01*
X141930000Y-104614572D01*
X142054482Y-104602312D01*
X142174180Y-104566002D01*
X142240000Y-104530820D01*
X142305820Y-104566002D01*
X142425518Y-104602312D01*
X142550000Y-104614572D01*
X143200000Y-104614572D01*
X143324482Y-104602312D01*
X143444180Y-104566002D01*
X143510000Y-104530820D01*
X143575820Y-104566002D01*
G37*
X143575820Y-104566002D02*
X143695518Y-104602312D01*
X143760001Y-104608663D01*
X143760000Y-106528661D01*
X143651614Y-106586595D01*
X143517038Y-106697038D01*
X143406595Y-106831614D01*
X143324528Y-106985150D01*
X143273992Y-107151746D01*
X143256928Y-107325000D01*
X143256928Y-107961493D01*
X140978422Y-110240000D01*
X136428454Y-110240000D01*
X136380256Y-110207795D01*
X136291148Y-110170885D01*
X137500486Y-108961547D01*
X137632749Y-109060201D01*
X137895570Y-109185385D01*
X138042779Y-109230036D01*
X138272669Y-109108715D01*
X138272669Y-107915560D01*
X138526669Y-107915560D01*
X138526669Y-109108715D01*
X138756559Y-109230036D01*
X138903768Y-109185385D01*
X139166589Y-109060201D01*
X139399938Y-108886148D01*
X139594847Y-108669915D01*
X139743826Y-108419812D01*
X139841150Y-108145451D01*
X139720483Y-107915560D01*
X138526669Y-107915560D01*
X138272669Y-107915560D01*
X138252669Y-107915560D01*
X138252669Y-107661560D01*
X138272669Y-107661560D01*
X138272669Y-107641560D01*
X138526669Y-107641560D01*
X138526669Y-107661560D01*
X139720483Y-107661560D01*
X139841150Y-107431669D01*
X139743826Y-107157308D01*
X139594847Y-106907205D01*
X139399938Y-106690972D01*
X139166589Y-106516919D01*
X138903768Y-106391735D01*
X138823353Y-106367344D01*
X138920256Y-106327205D01*
X139089774Y-106213937D01*
X139233937Y-106069774D01*
X139347205Y-105900256D01*
X139425226Y-105711898D01*
X139465000Y-105511939D01*
X139465000Y-105449802D01*
X139576004Y-105338798D01*
X139605001Y-105315001D01*
X139699974Y-105199276D01*
X139770546Y-105067247D01*
X139814003Y-104923986D01*
X139825000Y-104812333D01*
X139825000Y-104812332D01*
X139828677Y-104775000D01*
X139825000Y-104737667D01*
X139825000Y-104583954D01*
X139885518Y-104602312D01*
X140010000Y-104614572D01*
X140660000Y-104614572D01*
X140784482Y-104602312D01*
X140904180Y-104566002D01*
X140970000Y-104530820D01*
X141035820Y-104566002D01*
X141155518Y-104602312D01*
X141280000Y-104614572D01*
X141930000Y-104614572D01*
X142054482Y-104602312D01*
X142174180Y-104566002D01*
X142240000Y-104530820D01*
X142305820Y-104566002D01*
X142425518Y-104602312D01*
X142550000Y-104614572D01*
X143200000Y-104614572D01*
X143324482Y-104602312D01*
X143444180Y-104566002D01*
X143510000Y-104530820D01*
X143575820Y-104566002D01*
G36*
X138260498Y-94439180D02*
G01*
X138319463Y-94549494D01*
X138398815Y-94646185D01*
X138495506Y-94725537D01*
X138605820Y-94784502D01*
X138725518Y-94820812D01*
X138850000Y-94833072D01*
X139934627Y-94833072D01*
X138554003Y-96213696D01*
X138524999Y-96237499D01*
X138478637Y-96293992D01*
X138430026Y-96353224D01*
X138380150Y-96446534D01*
X138364180Y-96437998D01*
X138244482Y-96401688D01*
X138120000Y-96389428D01*
X137470000Y-96389428D01*
X137345518Y-96401688D01*
X137225820Y-96437998D01*
X137160000Y-96473180D01*
X137094180Y-96437998D01*
X136974482Y-96401688D01*
X136850000Y-96389428D01*
X136810750Y-96392500D01*
X136652000Y-96551250D01*
X136652000Y-97663000D01*
X136672000Y-97663000D01*
X136672000Y-97917000D01*
X136652000Y-97917000D01*
X136652000Y-99028750D01*
X136760000Y-99136750D01*
X136760000Y-99161939D01*
X136799774Y-99361898D01*
X136852824Y-99489970D01*
X135489772Y-99489970D01*
X135364999Y-99365198D01*
X135364999Y-99187500D01*
X135382002Y-99187500D01*
X135382002Y-99028752D01*
X135540750Y-99187500D01*
X135580000Y-99190572D01*
X135704482Y-99178312D01*
X135824180Y-99142002D01*
X135890000Y-99106820D01*
X135955820Y-99142002D01*
X136075518Y-99178312D01*
X136200000Y-99190572D01*
X136239250Y-99187500D01*
X136398000Y-99028750D01*
X136398000Y-97917000D01*
X135382000Y-97917000D01*
X135382000Y-97937000D01*
X135364999Y-97937000D01*
X135364999Y-97643000D01*
X135382000Y-97643000D01*
X135382000Y-97663000D01*
X136398000Y-97663000D01*
X136398000Y-96551250D01*
X136239250Y-96392500D01*
X136200000Y-96389428D01*
X136075518Y-96401688D01*
X135955820Y-96437998D01*
X135890000Y-96473180D01*
X135824180Y-96437998D01*
X135704482Y-96401688D01*
X135580000Y-96389428D01*
X135540750Y-96392500D01*
X135382002Y-96551248D01*
X135382002Y-96392500D01*
X135364999Y-96392500D01*
X135364999Y-96214802D01*
X136793592Y-94786210D01*
X137013740Y-94830000D01*
X137306260Y-94830000D01*
X137593158Y-94772932D01*
X137863411Y-94660990D01*
X138106632Y-94498475D01*
X138238487Y-94366620D01*
X138260498Y-94439180D01*
G37*
X138260498Y-94439180D02*
X138319463Y-94549494D01*
X138398815Y-94646185D01*
X138495506Y-94725537D01*
X138605820Y-94784502D01*
X138725518Y-94820812D01*
X138850000Y-94833072D01*
X139934627Y-94833072D01*
X138554003Y-96213696D01*
X138524999Y-96237499D01*
X138478637Y-96293992D01*
X138430026Y-96353224D01*
X138380150Y-96446534D01*
X138364180Y-96437998D01*
X138244482Y-96401688D01*
X138120000Y-96389428D01*
X137470000Y-96389428D01*
X137345518Y-96401688D01*
X137225820Y-96437998D01*
X137160000Y-96473180D01*
X137094180Y-96437998D01*
X136974482Y-96401688D01*
X136850000Y-96389428D01*
X136810750Y-96392500D01*
X136652000Y-96551250D01*
X136652000Y-97663000D01*
X136672000Y-97663000D01*
X136672000Y-97917000D01*
X136652000Y-97917000D01*
X136652000Y-99028750D01*
X136760000Y-99136750D01*
X136760000Y-99161939D01*
X136799774Y-99361898D01*
X136852824Y-99489970D01*
X135489772Y-99489970D01*
X135364999Y-99365198D01*
X135364999Y-99187500D01*
X135382002Y-99187500D01*
X135382002Y-99028752D01*
X135540750Y-99187500D01*
X135580000Y-99190572D01*
X135704482Y-99178312D01*
X135824180Y-99142002D01*
X135890000Y-99106820D01*
X135955820Y-99142002D01*
X136075518Y-99178312D01*
X136200000Y-99190572D01*
X136239250Y-99187500D01*
X136398000Y-99028750D01*
X136398000Y-97917000D01*
X135382000Y-97917000D01*
X135382000Y-97937000D01*
X135364999Y-97937000D01*
X135364999Y-97643000D01*
X135382000Y-97643000D01*
X135382000Y-97663000D01*
X136398000Y-97663000D01*
X136398000Y-96551250D01*
X136239250Y-96392500D01*
X136200000Y-96389428D01*
X136075518Y-96401688D01*
X135955820Y-96437998D01*
X135890000Y-96473180D01*
X135824180Y-96437998D01*
X135704482Y-96401688D01*
X135580000Y-96389428D01*
X135540750Y-96392500D01*
X135382002Y-96551248D01*
X135382002Y-96392500D01*
X135364999Y-96392500D01*
X135364999Y-96214802D01*
X136793592Y-94786210D01*
X137013740Y-94830000D01*
X137306260Y-94830000D01*
X137593158Y-94772932D01*
X137863411Y-94660990D01*
X138106632Y-94498475D01*
X138238487Y-94366620D01*
X138260498Y-94439180D01*
%TD*%
M02*
